<?xml version="1.0" encoding="UTF-8" standalone="no"?>
<!-- Created with Inkscape (http://www.inkscape.org/) -->

<svg
   xmlns:dc="http://purl.org/dc/elements/1.1/"
   xmlns:cc="http://creativecommons.org/ns#"
   xmlns:rdf="http://www.w3.org/1999/02/22-rdf-syntax-ns#"
   xmlns:svg="http://www.w3.org/2000/svg"
   xmlns="http://www.w3.org/2000/svg"
   xmlns:xlink="http://www.w3.org/1999/xlink"
   xmlns:sodipodi="http://sodipodi.sourceforge.net/DTD/sodipodi-0.dtd"
   xmlns:inkscape="http://www.inkscape.org/namespaces/inkscape"
   id="svg2816"
   height="24"
   width="24"
   version="1.0"
   inkscape:version="0.48.3.1 r9886"
   sodipodi:docname="applications-microblogging-panel.svg">
  <defs
     id="defs8">
    <linearGradient
       id="linearGradient3753">
      <stop
         style="stop-color:#f0f0f0;stop-opacity:1;"
         offset="0"
         id="stop3755" />
      <stop
         style="stop-color:#828282;stop-opacity:1;"
         offset="1"
         id="stop3757" />
    </linearGradient>
    <linearGradient
       inkscape:collect="always"
       xlink:href="#linearGradient3753"
       id="linearGradient3759"
       x1="1.3050847"
       y1="5.0762711"
       x2="1.3557816"
       y2="23.88983"
       gradientUnits="userSpaceOnUse" />
  </defs>
  <sodipodi:namedview
     pagecolor="#ffffff"
     bordercolor="#666666"
     borderopacity="1"
     objecttolerance="10"
     gridtolerance="10"
     guidetolerance="10"
     inkscape:pageopacity="0"
     inkscape:pageshadow="2"
     inkscape:window-width="955"
     inkscape:window-height="766"
     id="namedview6"
     showgrid="false"
     inkscape:zoom="9.8333333"
     inkscape:cx="-3.2486117"
     inkscape:cy="12"
     inkscape:window-x="330"
     inkscape:window-y="218"
     inkscape:window-maximized="0"
     inkscape:current-layer="svg2816" />
  <metadata
     id="metadata8">
    <rdf:RDF>
      <cc:Work
         rdf:about="">
        <dc:format>image/svg+xml</dc:format>
        <dc:type
           rdf:resource="http://purl.org/dc/dcmitype/StillImage" />
        <dc:title />
      </cc:Work>
    </rdf:RDF>
  </metadata>
  <path
     d="m 11.5,5.6999975 c -1.8596,0 -3.564,0.6905 -4.875,1.8125 -0.6207,-0.3003 -1.9759,-0.8525 -3.625,-0.8125 0,0 1.2426,2.4851 1.6875,3.3750005 C 4.5702,10.329098 4.4637,10.587799 4.375,10.856 3.4851,11.079 1,11.7 1,11.7 c 0,0 1.4673,2 3,2 0,0 0.02455,-0.0042 0.03125,0 0.2543,3.9103 3.4945,7 7.4688,7 1.9648,0 3.7561,-0.76222 5.0938,-2 h 5.406 l -3.344,-3.344 c 0.208,-0.687 0.344,-1.401 0.344,-2.156 0,-4.1400025 -3.36,-7.5000025 -7.5,-7.5000025 z m -3.5,3 c 0.5525,-10e-5 1,0.4478 1,1 C 9,10.252398 8.5523,10.7 8,10.7 7.4478,10.7 7,10.252198 7,9.6999975 c 0,-0.5522 0.4479,-1 1,-1 z M 11.125,11.7 c 0.99508,-0.0042 1.9905,0.36582 2.75,1.125 1.0123,1.0124 1.3443,2.4594 1,3.75 -1.2904,0.34438 -2.7375,0.01253 -3.75,-1 -1.0124,-1.0125 -1.3443,-2.4597 -1,-3.75 0.32261,-0.08611 0.66831,-0.1236 1,-0.125 z"
     style="opacity:0.8;fill:#000000;fill-opacity:1;fill-rule:evenodd"
     id="path3753"
     inkscape:connector-curvature="0" />
  <path
     id="path2396"
     style="fill-rule:evenodd;fill:url(#linearGradient3759);fill-opacity:1"
     d="m11.5 5c-1.8596 0-3.564 0.6905-4.875 1.8125-0.6207-0.3003-1.9759-0.8525-3.625-0.8125 0 0 1.2426 2.4851 1.6875 3.375-0.1173 0.2541-0.2238 0.5128-0.3125 0.781-0.8899 0.223-3.375 0.844-3.375 0.844s1.4673 2 3 2c0 0 0.02455-0.0042 0.03125 0 0.2543 3.9103 3.4945 7 7.4688 7 1.9648 0 3.7561-0.76222 5.0938-2h5.406l-3.344-3.344c0.208-0.687 0.344-1.401 0.344-2.156 0-4.14-3.36-7.5-7.5-7.5zm-3.5 3c0.5525-0.0001 1 0.4478 1 1 0 0.5524-0.4477 1-1 1-0.5522 0-1-0.4478-1-1s0.4479-1 1-1zm3.125 3c0.99508-0.0042 1.9905 0.36582 2.75 1.125 1.0123 1.0124 1.3443 2.4594 1 3.75-1.2904 0.34438-2.7375 0.01253-3.75-1-1.0124-1.0125-1.3443-2.4597-1-3.75 0.32261-0.08611 0.66831-0.1236 1-0.125z" />
</svg>
