<?xml version="1.0" encoding="UTF-8" standalone="no"?>
<!-- Generator: Adobe Illustrator 15.0.0, SVG Export Plug-In . SVG Version: 6.00 Build 0)  -->

<svg
   xmlns:dc="http://purl.org/dc/elements/1.1/"
   xmlns:cc="http://creativecommons.org/ns#"
   xmlns:rdf="http://www.w3.org/1999/02/22-rdf-syntax-ns#"
   xmlns:svg="http://www.w3.org/2000/svg"
   xmlns="http://www.w3.org/2000/svg"
   xmlns:xlink="http://www.w3.org/1999/xlink"
   xmlns:sodipodi="http://sodipodi.sourceforge.net/DTD/sodipodi-0.dtd"
   xmlns:inkscape="http://www.inkscape.org/namespaces/inkscape"
   id="Layer_1"
   xml:space="preserve"
   height="22px"
   viewBox="0 0 22 22"
   width="22px"
   version="1.1"
   y="0px"
   x="0px"
   enable-background="new 0 0 22 22"
   inkscape:version="0.48.3.1 r9886"
   sodipodi:docname="preferences-desktop-personal-directory.svg"><metadata
   id="metadata9"><rdf:RDF><cc:Work
       rdf:about=""><dc:format>image/svg+xml</dc:format><dc:type
         rdf:resource="http://purl.org/dc/dcmitype/StillImage" /></cc:Work></rdf:RDF></metadata><defs
   id="defs7"><linearGradient
     id="linearGradient3753"><stop
       style="stop-color:#f0f0f0;stop-opacity:1;"
       offset="0"
       id="stop3755" /><stop
       style="stop-color:#828282;stop-opacity:1;"
       offset="1"
       id="stop3757" /></linearGradient><linearGradient
     inkscape:collect="always"
     xlink:href="#linearGradient3753"
     id="linearGradient3759"
     x1="2"
     y1="11"
     x2="34.822033"
     y2="11"
     gradientUnits="userSpaceOnUse" /></defs><sodipodi:namedview
   pagecolor="#ffffff"
   bordercolor="#666666"
   borderopacity="1"
   objecttolerance="10"
   gridtolerance="10"
   guidetolerance="10"
   inkscape:pageopacity="0"
   inkscape:pageshadow="2"
   inkscape:window-width="1041"
   inkscape:window-height="683"
   id="namedview5"
   showgrid="false"
   inkscape:zoom="10.727273"
   inkscape:cx="-6.6186438"
   inkscape:cy="11"
   inkscape:window-x="184"
   inkscape:window-y="189"
   inkscape:window-maximized="0"
   inkscape:current-layer="Layer_1" />
		<path
   style="opacity:0.8;fill:#000000;fill-opacity:1"
   id="path3754"
   d="m 16.323,17.296 c -1.8,-0.896 -2.621,-2.444 -2.621,-3.179 0,-0.49 0.326,-1.248 0.642,-1.616 0.309,-0.361 0.766,-0.54 0.983,-0.941 0.352,-0.655 0.541,-1.963 0.43,-2.538 -0.078,-0.41 -0.43,-0.451 -0.43,-0.818 0,-0.328 0.077,-0.859 0.077,-1.76 0,-1.27 -0.485,-1.948 -1.139,-2.538 C 13.675,3.373 12.496,2.8 11.002,2.8 10.686,2.8 10.343,2.829 10.06,2.883 9.412,3.005 8.974,3.311 8.752,3.55 L 8.743,3.545 8.692,3.611 C 8.691,3.613 8.687,3.616 8.685,3.619 8.409,3.66 7.964,3.724 7.584,4.028 7.072,4.437 6.601,5.174 6.601,6.444 c 0,0.9 0.078,1.432 0.078,1.76 0,0.368 -0.354,0.409 -0.432,0.818 -0.111,0.575 0.079,1.883 0.432,2.538 0.217,0.401 0.675,0.58 0.982,0.941 0.315,0.368 0.642,1.126 0.642,1.616 0,0.734 -0.828,2.282 -2.627,3.179 C 3.211,18.525 2,19.089 2,20.8 h 18 c 0,-1.711 -1.212,-2.275 -3.677,-3.504 z M 9.008,3.019 8.831,2.871 C 8.737,2.984 8.672,3.111 8.641,3.239 8.521,3.197 8.385,3.177 8.229,3.177 v 0.231 c 0.185,0 0.332,0.033 0.45,0.1 L 8.743,3.545 8.85,3.408 c 0,-0.129 0.056,-0.267 0.158,-0.389 z"
   inkscape:connector-curvature="0" /><path
   d="m16.323 16.496c-1.8-0.896-2.621-2.444-2.621-3.179 0-0.49 0.326-1.248 0.642-1.616 0.309-0.361 0.766-0.54 0.983-0.941 0.352-0.655 0.541-1.963 0.43-2.538-0.078-0.41-0.43-0.451-0.43-0.818 0-0.328 0.077-0.859 0.077-1.76 0-1.27-0.485-1.948-1.139-2.538-0.59-0.533-1.769-1.106-3.263-1.106-0.316 0-0.659 0.029-0.942 0.083-0.648 0.122-1.086 0.428-1.308 0.667l-0.009-0.005-0.051 0.066c-0.001 0.002-0.005 0.005-0.007 0.008-0.276 0.041-0.721 0.105-1.101 0.409-0.512 0.409-0.983 1.146-0.983 2.416 0 0.9 0.078 1.432 0.078 1.76 0 0.368-0.354 0.409-0.432 0.818-0.111 0.575 0.079 1.883 0.432 2.538 0.217 0.401 0.675 0.58 0.982 0.941 0.315 0.368 0.642 1.126 0.642 1.616 0 0.734-0.828 2.282-2.627 3.179-2.465 1.229-3.676 1.793-3.676 3.504h18c0-1.711-1.212-2.275-3.677-3.504zm-7.315-14.277l-0.177-0.148c-0.094 0.113-0.159 0.24-0.19 0.368-0.12-0.042-0.256-0.062-0.412-0.062v0.231c0.185 0 0.332 0.033 0.45 0.1l0.064 0.037 0.107-0.137c0-0.129 0.056-0.267 0.158-0.389z"
   fill="#363636"
   id="path3"
   style="fill:url(#linearGradient3759);fill-opacity:1" />
</svg>