/* XPM */
static char *_488211959854[] = {
/* columns rows colors chars-per-pixel */
"24 24 84 1 ",
"  c black",
". c #060606",
"X c #070707",
"o c #0B0B0B",
"O c gray5",
"+ c #101010",
"@ c #161616",
"# c #181818",
"$ c gray12",
"% c #202020",
"& c #232323",
"* c #282828",
"= c gray16",
"- c #323232",
"; c gray20",
": c #373737",
"> c #3A3A3A",
", c gray24",
"< c #444444",
"1 c #464646",
"2 c #494949",
"3 c gray29",
"4 c #515151",
"5 c gray32",
"6 c gray38",
"7 c gray39",
"8 c #646464",
"9 c #676767",
"0 c gray42",
"q c #717171",
"w c #747474",
"e c gray46",
"r c #777777",
"t c gray47",
"y c #797979",
"u c gray49",
"i c #808080",
"p c #818181",
"a c gray51",
"s c gray52",
"d c #868686",
"f c gray53",
"g c #888888",
"h c #898989",
"j c #8B8B8B",
"k c gray55",
"l c #8D8D8D",
"z c gray56",
"x c #909090",
"c c #929292",
"v c #939393",
"b c gray58",
"n c gray59",
"m c gray60",
"M c #9A9A9A",
"N c #9B9B9B",
"B c #9D9D9D",
"V c gray63",
"C c #A4A4A4",
"Z c gray65",
"A c gray66",
"S c #A9A9A9",
"D c #AAAAAA",
"F c #ACACAC",
"G c #AEAEAE",
"H c #AFAFAF",
"J c gray70",
"K c gray71",
"L c #B6B6B6",
"P c #B7B7B7",
"I c gray72",
"U c #B9B9B9",
"Y c #BCBCBC",
"T c #C0C0C0",
"R c gray77",
"E c #C5C5C5",
"W c gray79",
"Q c #CDCDCD",
"! c gray82",
"~ c #D5D5D5",
"^ c gray84",
"/ c gray85",
"( c #DADADA",
") c None",
/* pixels */
"))))))))))))))))))))))))",
")))))))))))(((^Q))))))))",
"))))))))))x^^^^W))))))))",
")))))R))))C!!!!G))))))))",
"))))TQQYUWQQQQQS))))))))",
")))KWWWWWWWWWWWWU)))))))",
")))RRRRRRRRRRRRRRK)UU)))",
")))gTTTTTTTTTTTTTTTTYG))",
")))XeYYYYK3O&0YYUYYYYY))",
"))))5KUKU;))))aKUKUKKUf)",
"))))uJJJn)))))1KKJJJKf))",
")))SGGGGM)))))0GGGGt$ ))",
")tSSSSGGGk))))kSSSS5))))",
"),SCSCCCCCx))MSCSCS6))))",
"))nVVVVVVVVVVVVVVVVV))))",
"))8Mk8xBBBBBBBBBBBBBM)))",
"))    &gMMnMMMMMMnMMf)))",
")))))))@annxnxneannk$)))",
"))))))))ekxxxq= o8k;))))",
"))))))))akkkk3))) +)))))",
"))))))))efffg;))))))))))",
"))))))))X#=>1)))))))))))",
"))))))))))))))))))))))))",
"))))))))))))))))))))))))"
};
