/* XPM */
static char * applications_system_18x18_xpm[] = {
"18 18 84 1",
" 	c None",
".	c #D3D3D3",
"+	c #D8D8D8",
"@	c #CECECE",
"#	c #CBCBCB",
"$	c #D2D2D2",
"%	c #D4D4D4",
"&	c #B5B5B5",
"*	c #C2C2C2",
"=	c #CFCFCF",
"-	c #C0C0C0",
";	c #BCBCBC",
">	c #CDCDCD",
",	c #CCCCCC",
"'	c #B0B0B0",
")	c #BFBFBF",
"!	c #C8C8C8",
"~	c #C6C6C6",
"{	c #C7C7C7",
"]	c #C9C9C9",
"^	c #BDBDBD",
"/	c #949494",
"(	c #C1C1C1",
"_	c #C4C4C4",
":	c #C3C3C3",
"<	c #BABABA",
"[	c #000000",
"}	c #7B7B7B",
"|	c #BBBBBB",
"1	c #787878",
"2	c #060606",
"3	c #222222",
"4	c #B9B9B9",
"5	c #B6B6B6",
"6	c #6B6B6B",
"7	c #9D9D9D",
"8	c #A9A9A9",
"9	c #B7B7B7",
"0	c #9A9A9A",
"a	c #AAAAAA",
"b	c #AFAFAF",
"c	c #979797",
"d	c #5B5B5B",
"e	c #A5A5A5",
"f	c #B2B2B2",
"g	c #8C8C8C",
"h	c #272727",
"i	c #090909",
"j	c #8B8B8B",
"k	c #ADADAD",
"l	c #909090",
"m	c #AEAEAE",
"n	c #A3A3A3",
"o	c #A7A7A7",
"p	c #A4A4A4",
"q	c #A2A2A2",
"r	c #9E9E9E",
"s	c #9F9F9F",
"t	c #A0A0A0",
"u	c #A6A6A6",
"v	c #868686",
"w	c #919191",
"x	c #828282",
"y	c #9B9B9B",
"z	c #040404",
"A	c #6D6D6D",
"B	c #999999",
"C	c #989898",
"D	c #767676",
"E	c #7F7F7F",
"F	c #929292",
"G	c #707070",
"H	c #383838",
"I	c #4A4A4A",
"J	c #969696",
"K	c #656565",
"L	c #8D8D8D",
"M	c #858585",
"N	c #444444",
"O	c #141414",
"P	c #686868",
"Q	c #7A7A7A",
"R	c #7C7C7C",
"S	c #2E2E2E",
"                  ",
"        .++@      ",
"        #$%&      ",
"   *=-;>>,@'      ",
"  )!~{!{~~~]^     ",
"  /{-((_#]:(()-<  ",
"  [}-|<123/|4|||5 ",
"   6<&7    89&9;0 ",
"  8ab'c   debfghi ",
" j88akaj  le8md   ",
" }nopqnrstqneuv   ",
"  rwxrrrrrrrrrry  ",
"  [[zABCCB0cCCyD  ",
"      E/lFGHIJK   ",
"      xLLMN  O    ",
"      PQRD        ",
"      [OS         ",
"                  "};
