/* XPM */
static char * arch_mono_18x18_xpm[] = {
"18 18 30 1",
" 	c None",
".	c #747474",
"+	c #7F7F7F",
"@	c #777777",
"#	c #7C7C7C",
"$	c #7B7B7B",
"%	c #919191",
"&	c #828282",
"*	c #818181",
"=	c #888888",
"-	c #868686",
";	c #858585",
">	c #838383",
",	c #848484",
"'	c #8C8C8C",
")	c #8B8B8B",
"!	c #898989",
"~	c #878787",
"{	c #929292",
"]	c #909090",
"^	c #8F8F8F",
"/	c #8D8D8D",
"(	c #8A8A8A",
"_	c #989898",
":	c #979797",
"<	c #949494",
"[	c #959595",
"}	c #737373",
"|	c #757575",
"1	c #767676",
"                  ",
"        .+        ",
"        @#        ",
"        $$%       ",
"       &*+=       ",
"       -;>,       ",
"      ')!=~{      ",
"      %]^/)(      ",
"     _:<=>&-<     ",
"     [&}.||.}     ",
"    &}|||||||1    ",
"   |||||  |||||   ",
"   ||||    ||||   ",
"  |||||    ||||   ",
"  |||||    |||||  ",
" ||||        |||| ",
" ||            || ",
"                  "};
