/* XPM */
static char * arch_mono_16x16_xpm[] = {
"16 16 25 1",
" 	c None",
".	c #747474",
"+	c #7F7F7F",
"@	c #787878",
"#	c #7D7D7D",
"$	c #7E7E7E",
"%	c #7C7C7C",
"&	c #8F8F8F",
"*	c #858585",
"=	c #838383",
"-	c #818181",
";	c #8A8A8A",
">	c #888888",
",	c #868686",
"'	c #919191",
")	c #8E8E8E",
"!	c #8C8C8C",
"~	c #979797",
"{	c #969696",
"]	c #8B8B8B",
"^	c #9A9A9A",
"/	c #848484",
"(	c #757575",
"_	c #797979",
":	c #767676",
"                ",
"       .+       ",
"       @#       ",
"       $%&      ",
"      *=-;      ",
"      ;>,*      ",
"     '&)!;'     ",
"     ~{],*>^    ",
"    ^/..((._    ",
"    (((  (((:   ",
"   ((((  ((((   ",
"  ((((    ((((  ",
"  ((((    ((((  ",
" ((((      (((( ",
" ((          (( ",
"                "};
