/* XPM */
static char * arch_mono_20x20_xpm[] = {
"20 20 33 1",
" 	c None",
".	c #747474",
"+	c #7F7F7F",
"@	c #767676",
"#	c #7A7A7A",
"$	c #7B7B7B",
"%	c #808080",
"&	c #7E7E7E",
"*	c #7D7D7D",
"=	c #8B8B8B",
"-	c #848484",
";	c #838383",
">	c #818181",
",	c #828282",
"'	c #878787",
")	c #858585",
"!	c #8E8E8E",
"~	c #8D8D8D",
"{	c #8A8A8A",
"]	c #898989",
"^	c #888888",
"/	c #929292",
"(	c #909090",
"_	c #8C8C8C",
":	c #959595",
"<	c #979797",
"[	c #989898",
"}	c #868686",
"|	c #9B9B9B",
"1	c #737373",
"2	c #757575",
"3	c #7C7C7C",
"4	c #797979",
"                    ",
"         .+         ",
"         @#         ",
"         #$         ",
"        %&*=        ",
"        -;>,        ",
"        '')-!       ",
"       ~~{]^=       ",
"      //((!_{:      ",
"      <[/}%%;{      ",
"     |/*1.22..*     ",
"     32222222224    ",
"    .2222  22222    ",
"    2222    2222    ",
"   22222    22222   ",
"  222222    2222    ",
"  222222    222222  ",
" 2222          2222 ",
" 22              22 ",
"                    "};
