/* XPM */
static char * arch_haskell_20x240_xpm[] = {
"20 20 38 1",
" 	c None",
".	c #4A5356",
"+	c #576063",
"@	c #4B5457",
"#	c #515A5D",
"$	c #4E575A",
"%	c #50595C",
"&	c #4C5558",
"*	c #60676A",
"=	c #555D60",
"-	c #535C5F",
";	c #525B5E",
">	c #596164",
",	c #586063",
"'	c #565E61",
")	c #545D60",
"!	c #636C6F",
"~	c #5F6769",
"{	c #5D6567",
"]	c #5B6366",
"^	c #5A6265",
"/	c #5E6669",
"(	c #666D70",
"_	c #646C6F",
":	c #636B6D",
"<	c #626A6C",
"[	c #60686B",
"}	c #5C6466",
"|	c #6B7275",
"1	c #6A7275",
"2	c #555E60",
"3	c #555C5F",
"4	c #565F62",
"5	c #5D6568",
"6	c #71797B",
"7	c #676E70",
"8	c #535C5E",
"9	c #495255",
"                    ",
"         .+         ",
"         @#         ",
"         @$         ",
"        %$&*        ",
"        =-;;        ",
"        >,')!       ",
"       *~{]^/       ",
"      (_:<[/}|      ",
"      1|(^2345      ",
"     6789.@@..'     ",
"     ) @ @@@@@@%    ",
"    .@@ @ @@@@@@    ",
"    @@@       @@    ",
"   @@@@@   @  @@@   ",
"  @@@@@     @ @@    ",
"  @@@@       @@@@@  ",
" @@@@          @@@@ ",
" @@              @@ ",
"                    "};
