/* XPM */
static char *backward[] = {
/* columns rows colors chars-per-pixel */
"18 18 52 1 ",
"  c #494949",
". c #555555",
"X c #575757",
"o c #5C5C5C",
"O c #6C6C6C",
"+ c #6D6D6D",
"@ c #737373",
"# c #747474",
"$ c #7A7A7A",
"% c #7E7E7E",
"& c #808080",
"* c #848484",
"= c #878787",
"- c #8D8D8D",
"; c #8F8F8F",
": c #909090",
"> c #939393",
", c #949494",
"< c #969696",
"1 c #979797",
"2 c #999999",
"3 c #9A9A9A",
"4 c #9C9C9C",
"5 c #9D9D9D",
"6 c #A0A0A0",
"7 c #A1A1A1",
"8 c #A2A2A2",
"9 c #A3A3A3",
"0 c #A6A6A6",
"q c #A7A7A7",
"w c #AAAAAA",
"e c #ABABAB",
"r c #ACACAC",
"t c #AFAFAF",
"y c #B0B0B0",
"u c #B1B1B1",
"i c #B2B2B2",
"p c #B4B4B4",
"a c #B5B5B5",
"s c #B6B6B6",
"d c #BABABA",
"f c #BBBBBB",
"g c #BDBDBD",
"h c #BFBFBF",
"j c #C0C0C0",
"k c #C3C3C3",
"l c #C4C4C4",
"z c #C5C5C5",
"x c #C7C7C7",
"c c #C9C9C9",
"v c #CBCBCB",
"b c None",
/* pixels */
"bbbbbbbbbbbbbbbbbb",
"bbbbbbbbbbbbbbbbbb",
"bbbbbbbbbbbbbbbbbb",
"bbbbbbbbbbbbbbbbbb",
"bbbbbbbbbbbbbbbbbb",
"bbbbbbbkcbbbbbbvtb",
"bbbbbalxlbbbbfzcqb",
"bbbwsghhdbbydhhj6b",
"bbwiaaaau>ypaaas1b",
"bb:0reer0%4ereer;b",
"bbb+-7885bb$2889=b",
"bbbbbO;1<bbbX%,3&b",
"bbbbbb @*bbbbbo%#b",
"bbbbbbbb.bbbbbbbbb",
"bbbbbbbbbbbbbbbbbb",
"bbbbbbbbbbbbbbbbbb",
"bbbbbbbbbbbbbbbbbb",
"bbbbbbbbbbbbbbbbbb"
};
