/* XPM */
static char * computer_16x16_XPM[] = {
"16 16 88 1",
" 	c None",
".	c #C9C9C9",
"+	c #D6D6D6",
"@	c #E3E3E3",
"#	c #DEDEDE",
"$	c #DFDFDF",
"%	c #E4E4E4",
"&	c #DDDDDD",
"*	c #E2E2E2",
"=	c #D1D1D1",
"-	c #C5C5C5",
";	c #B6B6B6",
">	c #242424",
",	c #4D4D4D",
"'	c #4C4C4C",
")	c #4F4F4F",
"!	c #4B4B4B",
"~	c #484848",
"{	c #969696",
"]	c #D4D4D4",
"^	c #BDBDBD",
"/	c #C3C3C3",
"(	c #D0D0D0",
"_	c #DADADA",
":	c #D9D9D9",
"<	c #D8D8D8",
"[	c #DCDCDC",
"}	c #939393",
"|	c #CFCFCF",
"1	c #B8B8B8",
"2	c #CCCCCC",
"3	c #929292",
"4	c #CACACA",
"5	c #B3B3B3",
"6	c #A8A8A8",
"7	c #C1C1C1",
"8	c #BFBFBF",
"9	c #C0C0C0",
"0	c #8E8E8E",
"a	c #C2C2C2",
"b	c #ABABAB",
"c	c #ACACAC",
"d	c #9D9D9D",
"e	c #B2B2B2",
"f	c #B0B0B0",
"g	c #B1B1B1",
"h	c #878787",
"i	c #B7B7B7",
"j	c #A2A2A2",
"k	c #AAAAAA",
"l	c #A0A0A0",
"m	c #9F9F9F",
"n	c #828282",
"o	c #A1A1A1",
"p	c #959595",
"q	c #949494",
"r	c #7F7F7F",
"s	c #202020",
"t	c #323232",
"u	c #2E2E2E",
"v	c #2F2F2F",
"w	c #292929",
"x	c #787878",
"y	c #9B9B9B",
"z	c #989898",
"A	c #9E9E9E",
"B	c #303030",
"C	c #646464",
"D	c #616161",
"E	c #626262",
"F	c #5E5E5E",
"G	c #8C8C8C",
"H	c #909090",
"I	c #636363",
"J	c #464646",
"K	c #777777",
"L	c #7C7C7C",
"M	c #6F6F6F",
"N	c #8B8B8B",
"O	c #808080",
"P	c #898989",
"Q	c #868686",
"R	c #676767",
"S	c #666666",
"T	c #686868",
"U	c #6E6E6E",
"V	c #565656",
"W	c #131313",
"                ",
" .+@@#$%@@&**&= ",
" -;>,')!')))~{] ",
" ^/(__::__:<[}| ",
" 1^1=||(2|||=34 ",
" 5;67888988870a ",
" bcdefggffffghi ",
" jk}lmlllmllln1 ",
" lonpq}pqq}}}rk ",
" {ostutvuvutwxc ",
" }y{{{{p{{z{{{A ",
" BCDDEFGHIDDDEJ ",
"      KrLK      ",
"    MNNrOPPQ    ",
"     'RSTUVW    ",
"                "};
