/* XPM */
static char * computer_18x18_xpm[] = {
"18 18 89 1",
" 	c None",
".	c #D3D3D3",
"+	c #DDDDDD",
"@	c #E0E0E0",
"#	c #DFDFDF",
"$	c #DCDCDC",
"%	c #D8D8D8",
"&	c #CDCDCD",
"*	c #C6C6C6",
"=	c #D9D9D9",
"-	c #4A4A4A",
";	c #4B4B4B",
">	c #474747",
",	c #484848",
"'	c #494949",
")	c #4C4C4C",
"!	c #505050",
"~	c #C3C3C3",
"{	c #D6D6D6",
"]	c #C0C0C0",
"^	c #C5C5C5",
"/	c #D0D0D0",
"(	c #CBCBCB",
"_	c #CACACA",
":	c #C8C8C8",
"<	c #CCCCCC",
"[	c #C9C9C9",
"}	c #A1A1A1",
"|	c #D4D4D4",
"1	c #BBBBBB",
"2	c #BEBEBE",
"3	c #CECECE",
"4	c #DADADA",
"5	c #D7D7D7",
"6	c #9F9F9F",
"7	c #CFCFCF",
"8	c #B4B4B4",
"9	c #BABABA",
"0	c #999999",
"a	c #B2B2B2",
"b	c #B3B3B3",
"c	c #B0B0B0",
"d	c #BCBCBC",
"e	c #979797",
"f	c #C1C1C1",
"g	c #AAAAAA",
"h	c #ACACAC",
"i	c #A5A5A5",
"j	c #AEAEAE",
"k	c #ADADAD",
"l	c #919191",
"m	c #B8B8B8",
"n	c #A7A7A7",
"o	c #8B8B8B",
"p	c #B9B9B9",
"q	c #A0A0A0",
"r	c #8C8C8C",
"s	c #939393",
"t	c #949494",
"u	c #888888",
"v	c #989898",
"w	c #9C9C9C",
"x	c #4E4E4E",
"y	c #4F4F4F",
"z	c #808080",
"A	c #929292",
"B	c #9D9D9D",
"C	c #7B7B7B",
"D	c #7C7C7C",
"E	c #7D7D7D",
"F	c #878787",
"G	c #797979",
"H	c #8D8D8D",
"I	c #8F8F8F",
"J	c #444444",
"K	c #575757",
"L	c #909090",
"M	c #8E8E8E",
"N	c #626262",
"O	c #464646",
"P	c #858585",
"Q	c #7F7F7F",
"R	c #5B5B5B",
"S	c #757575",
"T	c #868686",
"U	c #818181",
"V	c #7A7A7A",
"W	c #6C6C6C",
"X	c #353535",
"                  ",
"  .+@+++@#++$@+%& ",
" *=-;>,-',-)))!~{ ",
" ]^ /((_:<_[:: }| ",
" 12 34===544== 67 ",
" 89 2[[[[:[[[[ 0: ",
" ab cd11111111 ef ",
" gh ijkjjjkkjj lm ",
" }n 0666666666 op ",
" }q rststtssss uh ",
" vw -!x!xxyx!y zk ",
" ABuCDCDCECEDDFtq ",
" GHlllllv0AllllIo ",
"  J;) 'KLMN' ;;O  ",
"     PHQRNSHo     ",
"     DzTHruUVW    ",
"       'J,x X     ",
"                  "};
