/* XPM */
static char * drive_harddisk_system_16x16_XPM[] = {
"16 16 78 1",
" 	c None",
".	c #D9D9D9",
"+	c #DBDBDB",
"@	c #C6C6C6",
"#	c #707070",
"$	c #737373",
"%	c #323232",
"&	c #AEAEAE",
"*	c #A5A5A5",
"=	c #989898",
"-	c #DFDFDF",
";	c #C4C4C4",
">	c #7C7C7C",
",	c #545454",
"'	c #9D9D9D",
")	c #CFCFCF",
"!	c #DCDCDC",
"~	c #D5D5D5",
"{	c #B3B3B3",
"]	c #BDBDBD",
"^	c #B6B6B6",
"/	c #929292",
"(	c #9A9A9A",
"_	c #878787",
":	c #E5E5E5",
"<	c #DADADA",
"[	c #D4D4D4",
"}	c #535353",
"|	c #ACACAC",
"1	c #BFBFBF",
"2	c #B2B2B2",
"3	c #9C9C9C",
"4	c #999999",
"5	c #DEDEDE",
"6	c #E1E1E1",
"7	c #979797",
"8	c #939393",
"9	c #909090",
"0	c #858585",
"a	c #D7D7D7",
"b	c #D0D0D0",
"c	c #4E4E4E",
"d	c #565656",
"e	c #5E5E5E",
"f	c #8D8D8D",
"g	c #9F9F9F",
"h	c #949494",
"i	c #7F7F7F",
"j	c #2C2C2C",
"k	c #222222",
"l	c #212121",
"m	c #1F1F1F",
"n	c #202020",
"o	c #1D1D1D",
"p	c #1A1A1A",
"q	c #161616",
"r	c #141414",
"s	c #131313",
"t	c #D3D3D3",
"u	c #CACACA",
"v	c #C5C5C5",
"w	c #BCBCBC",
"x	c #C0C0C0",
"y	c #CCCCCC",
"z	c #AFAFAF",
"A	c #7A7A7A",
"B	c #727272",
"C	c #7D7D7D",
"D	c #ADADAD",
"E	c #969696",
"F	c #676767",
"G	c #797979",
"H	c #959595",
"I	c #333333",
"J	c #3A3A3A",
"K	c #3B3B3B",
"L	c #393939",
"M	c #383838",
"                ",
"                ",
"                ",
"   .+@#$ %&*=   ",
"   -;>    ,*'   ",
"  )!~{ ]^  /(_  ",
"  :<[}|12  34/  ",
" 56<) =@]&78(90 ",
" a![b;>cdefghfi ",
" jklmnnknopqqrs ",
" tuvw]xxy-x[)1[ ",
" zA|    B^ Ci D ",
" E$F    G' >i H ",
" IJJKKKKLMJLLKI ",
"                ",
"                "};
