/* XPM */
static char * drive_harddisk_system_18x18_xpm[] = {
"18 18 105 2",
"  	c None",
". 	c #DDDDDD",
"+ 	c #D6D6D6",
"@ 	c #CECECE",
"# 	c #B8B8B8",
"$ 	c #A0A0A0",
"% 	c #878787",
"& 	c #9D9D9D",
"* 	c #ACACAC",
"= 	c #A9A9A9",
"- 	c #A2A2A2",
"; 	c #D2D2D2",
"> 	c #DFDFDF",
", 	c #ABABAB",
"' 	c #818181",
") 	c #616161",
"! 	c #ADADAD",
"~ 	c #A1A1A1",
"{ 	c #8E8E8E",
"] 	c #E3E3E3",
"^ 	c #D7D7D7",
"/ 	c #CACACA",
"( 	c #BABABA",
"_ 	c #C0C0C0",
": 	c #9E9E9E",
"< 	c #989898",
"[ 	c #6D6D6D",
"} 	c #D8D8D8",
"| 	c #DEDEDE",
"1 	c #838383",
"2 	c #C3C3C3",
"3 	c #BCBCBC",
"4 	c #BBBBBB",
"5 	c #585858",
"6 	c #A3A3A3",
"7 	c #8A8A8A",
"8 	c #E2E2E2",
"9 	c #CDCDCD",
"0 	c #404040",
"a 	c #BEBEBE",
"b 	c #B4B4B4",
"c 	c #949494",
"d 	c #8F8F8F",
"e 	c #E1E1E1",
"f 	c #C5C5C5",
"g 	c #A5A5A5",
"h 	c #C4C4C4",
"i 	c #B2B2B2",
"j 	c #9B9B9B",
"k 	c #979797",
"l 	c #8D8D8D",
"m 	c #C6C6C6",
"n 	c #B6B6B6",
"o 	c #636363",
"p 	c #454545",
"q 	c #4D4D4D",
"r 	c #575757",
"s 	c #7A7A7A",
"t 	c #9A9A9A",
"u 	c #909090",
"v 	c #8C8C8C",
"w 	c #767676",
"x 	c #707070",
"y 	c #5A5A5A",
"z 	c #545454",
"A 	c #535353",
"B 	c #525252",
"C 	c #565656",
"D 	c #595959",
"E 	c #4E4E4E",
"F 	c #484848",
"G 	c #3E3E3E",
"H 	c #3C3C3C",
"I 	c #383838",
"J 	c #343434",
"K 	c #373737",
"L 	c #B7B7B7",
"M 	c #C1C1C1",
"N 	c #B5B5B5",
"O 	c #BDBDBD",
"P 	c #939393",
"Q 	c #4A4A4A",
"R 	c #515151",
"S 	c #3A3A3A",
"T 	c #3B3B3B",
"U 	c #3D3D3D",
"V 	c #777777",
"W 	c #C8C8C8",
"X 	c #434343",
"Y 	c #747474",
"Z 	c #444444",
"` 	c #B0B0B0",
" .	c #7B7B7B",
"..	c #757575",
"+.	c #686868",
"@.	c #AAAAAA",
"#.	c #9F9F9F",
"$.	c #797979",
"%.	c #8B8B8B",
"&.	c #929292",
"*.	c #959595",
"=.	c #969696",
"-.	c #1D1D1D",
";.	c #1E1E1E",
">.	c #1C1C1C",
"                                    ",
"                                    ",
"                                    ",
"        . + @ # $ % & * = -         ",
"      ; > , '         ) ! ~ {       ",
"    * ] ^ / (   _ :     < ~ & [     ",
"    } | ^ ^ 1 2 3 4     5 6 < 7     ",
"    8 . + 9 0 # a b :     < c d     ",
"    e | ^ f   g h 3 i j   < k l     ",
"  m > } ; 9 n o p q r s 6 t u v w   ",
"  x y 5 z A B C D A E F G H I J K   ",
"  ( L 3 a M 3 a M # L 3 n 3 N O #   ",
"  * P Q R S T U I V W X a Y L Z `   ",
"  t  ...          +.@.  #.) j   <   ",
"  $.P %.&.*.*.*.*.u =.*.*.d *.=.s   ",
"    -.;.;.;.;.;.;.;.;.;.>.;.;.-.    ",
"                                    ",
"                                    "};
