/* XPM */
static char *forward_16x16[] = {
/* columns rows colors chars-per-pixel */
"16 16 48 1 ",
"  c #5D5D5D",
". c #656565",
"X c #6D6D6D",
"o c #707070",
"O c #737373",
"+ c #797979",
"@ c #7B7B7B",
"# c #7F7F7F",
"$ c #808080",
"% c #838383",
"& c #868686",
"* c #878787",
"= c #8B8B8B",
"- c #8F8F8F",
"; c #909090",
": c #919191",
"> c #929292",
", c #959595",
"< c #999999",
"1 c #9C9C9C",
"2 c #9D9D9D",
"3 c #9E9E9E",
"4 c #9F9F9F",
"5 c #A1A1A1",
"6 c #A2A2A2",
"7 c #A3A3A3",
"8 c #A5A5A5",
"9 c #A6A6A6",
"0 c #AAAAAA",
"q c #ABABAB",
"w c #ACACAC",
"e c #B0B0B0",
"r c #B1B1B1",
"t c #B3B3B3",
"y c #B4B4B4",
"u c #B5B5B5",
"i c #B6B6B6",
"p c #BABABA",
"a c #BBBBBB",
"s c #BCBCBC",
"d c #BEBEBE",
"f c #BFBFBF",
"g c #C0C0C0",
"h c #C2C2C2",
"j c #C6C6C6",
"k c #C7C7C7",
"l c #CACACA",
"z c None",
/* pixels */
"zzzzzzzzzzzzzzzz",
"zzzzzzzzzzzzzzzz",
"zzzzzzzzzzzzzzzz",
"zzzzzzzzzzzzzzzz",
"zpzzzzzzlzzzzzzz",
"zulhzzzzkjgzzzzz",
"zwhgsyzzdgfarzzz",
"z6iiuye2riiitwzz",
"z<wqq9,*8qq07,zz",
"z-53;$ z451>@zzz",
"z%=#.zzz:&Ozzzzz",
"z+ozzzzzX.zzzzzz",
"zzzzzzzzzzzzzzzz",
"zzzzzzzzzzzzzzzz",
"zzzzzzzzzzzzzzzz",
"zzzzzzzzzzzzzzzz"
};
