/* XPM */
static char *gtk_cancel_16x16[] = {
/* columns rows colors chars-per-pixel */
"16 16 50 1 ",
"  c #3B3B3B",
". c #3E3E3E",
"X c #3F3F3F",
"o c #444444",
"O c #464646",
"+ c #525252",
"@ c #545454",
"# c #555555",
"$ c #585858",
"% c #5E5E5E",
"& c #606060",
"* c #626262",
"= c #636363",
"- c #666666",
"; c #676767",
": c #7B7B7B",
"> c #7F7F7F",
", c #818181",
"< c #868686",
"1 c #8B8B8B",
"2 c #8D8D8D",
"3 c #919191",
"4 c #929292",
"5 c #959595",
"6 c #999999",
"7 c #9C9C9C",
"8 c #9E9E9E",
"9 c #9F9F9F",
"0 c #A1A1A1",
"q c #A2A2A2",
"w c #A3A3A3",
"e c #A5A5A5",
"r c #AAAAAA",
"t c #ABABAB",
"y c #AEAEAE",
"u c #B2B2B2",
"i c #B4B4B4",
"p c #B5B5B5",
"a c #B8B8B8",
"s c #B9B9B9",
"d c #BDBDBD",
"f c #C1C1C1",
"g c #C6C6C6",
"h c #CACACA",
"j c #CFCFCF",
"k c #D1D1D1",
"l c #D2D2D2",
"z c #D3D3D3",
"x c #D4D4D4",
"c c None",
/* pixels */
"cccccccccccccccc",
"cccccccccccccccc",
"cccccccccccccccc",
"ccclzccccccxkccc",
"cccpjhcccchjuccc",
"ccc=ygfccfgr%ccc",
"cccc$edsadq@cccc",
"ccccc#wii0+ccccc",
"cccccc7tt9cccccc",
"ccccc8q42q9ccccc",
"cccc56<OX,65cccc",
"ccc13>occX:31ccc",
"ccc&;.cccc -*ccc",
"cccccccccccccccc",
"cccccccccccccccc",
"cccccccccccccccc"
};
