/* XPM */
static char *gtk_cancel_18x18[] = {
/* columns rows colors chars-per-pixel */
"18 18 52 1 ",
"  c #383838",
". c #3A3A3A",
"X c #484848",
"o c #494949",
"O c #4A4A4A",
"+ c #4B4B4B",
"@ c #4C4C4C",
"# c #515151",
"$ c #545454",
"% c #606060",
"& c #616161",
"* c #646464",
"= c #666666",
"- c #6A6A6A",
"; c #707070",
": c #757575",
"> c #797979",
", c #7E7E7E",
"< c #818181",
"1 c #848484",
"2 c #888888",
"3 c #8B8B8B",
"4 c #909090",
"5 c #919191",
"6 c #949494",
"7 c #969696",
"8 c #989898",
"9 c #999999",
"0 c #9B9B9B",
"q c #9C9C9C",
"w c #A0A0A0",
"e c #A1A1A1",
"r c #A2A2A2",
"t c #A3A3A3",
"y c #A8A8A8",
"u c #AAAAAA",
"i c #ACACAC",
"p c #AEAEAE",
"a c #B0B0B0",
"s c #B4B4B4",
"d c #B8B8B8",
"f c #B9B9B9",
"g c #BBBBBB",
"h c #BDBDBD",
"j c #C0C0C0",
"k c #C4C4C4",
"l c #C8C8C8",
"z c #CCCCCC",
"x c #D0D0D0",
"c c #D3D3D3",
"v c #D6D6D6",
"b c None",
/* pixels */
"bbbbbbbbbbbbbbbbbb",
"bbbbbbbbbbbbbbbbbb",
"bbbbbbbbbbbbbbbbbb",
"bbbbbbbbbbbbbvbbbb",
"bbbdcxbbbbbbxcsbbb",
"bbb>hzlbbbblzf:bbb",
"bbbb-skjbbjka=bbbb",
"bbbbb=pgddgu&bbbbb",
"bbbbbb*ussy%bbbbbb",
"bbbbbbbwiirbbbbbbb",
"bbbbbbwt07tebbbbbb",
"bbbbb8q4$@3q9bbbbb",
"bbbb462#bb+165bbbb",
"bbb;3<@bbbbX,3;bbb",
"bbbbo.bbbbbb Obbbb",
"bbbbbbbbbbbbbbbbbb",
"bbbbbbbbbbbbbbbbbb",
"bbbbbbbbbbbbbbbbbb"
};
