/* XPM */
static char *_488543543378[] = {
/* columns rows colors chars-per-pixel */
"24 24 128 2 ",
"   c #0E0E0E",
".  c #111111",
"X  c gray8",
"o  c gray10",
"O  c gray11",
"+  c #1E1E1E",
"@  c #353535",
"#  c #393939",
"$  c gray23",
"%  c gray24",
"&  c #3F3F3F",
"*  c gray26",
"=  c #434343",
"-  c #444444",
";  c #484848",
":  c #4C4C4C",
">  c #4E4E4E",
",  c gray34",
"<  c #585858",
"1  c #5A5A5A",
"2  c #5D5D5D",
"3  c gray38",
"4  c #626262",
"5  c #656565",
"6  c #676767",
"7  c #686868",
"8  c DimGray",
"9  c #6F6F6F",
"0  c #717171",
"q  c gray45",
"w  c #747474",
"e  c #767676",
"r  c gray47",
"t  c #797979",
"y  c #7C7C7C",
"u  c gray49",
"i  c #7E7E7E",
"p  c #808080",
"a  c #818181",
"s  c gray51",
"d  c gray52",
"f  c #868686",
"g  c gray53",
"h  c #888888",
"j  c #898989",
"k  c gray54",
"l  c #8B8B8B",
"z  c gray55",
"x  c #8D8D8D",
"c  c #8E8E8E",
"v  c gray56",
"b  c #909090",
"n  c gray57",
"m  c #929292",
"M  c #939393",
"N  c gray58",
"B  c #959595",
"V  c gray59",
"C  c #979797",
"Z  c #989898",
"A  c gray60",
"S  c #9A9A9A",
"D  c #9B9B9B",
"F  c gray61",
"G  c #9D9D9D",
"H  c #9F9F9F",
"J  c #A0A0A0",
"K  c gray63",
"L  c #A2A2A2",
"P  c gray64",
"I  c #A4A4A4",
"U  c #A5A5A5",
"Y  c gray65",
"T  c #A7A7A7",
"R  c gray66",
"E  c #A9A9A9",
"W  c #AAAAAA",
"Q  c gray67",
"!  c #ACACAC",
"~  c gray68",
"^  c #AEAEAE",
"/  c #AFAFAF",
"(  c gray69",
")  c #B1B1B1",
"_  c #B2B2B2",
"`  c gray70",
"'  c #B4B4B4",
"]  c gray71",
"[  c #B6B6B6",
"{  c #B7B7B7",
"}  c gray72",
"|  c #B9B9B9",
" . c #BBBBBB",
".. c #BCBCBC",
"X. c gray74",
"o. c gray",
"O. c #C0C0C0",
"+. c #C1C1C1",
"@. c gray76",
"#. c #C3C3C3",
"$. c gray77",
"%. c #C5C5C5",
"&. c #C6C6C6",
"*. c gray78",
"=. c #C8C8C8",
"-. c gray79",
";. c #CACACA",
":. c #CBCBCB",
">. c gray80",
",. c #CDCDCD",
"<. c #CECECE",
"1. c gray81",
"2. c #D0D0D0",
"3. c gray82",
"4. c gray83",
"5. c #D5D5D5",
"6. c gray84",
"7. c #D7D7D7",
"8. c gray85",
"9. c #DADADA",
"0. c gray86",
"q. c #DDDDDD",
"w. c #DFDFDF",
"e. c gray88",
"r. c #E1E1E1",
"t. c #E2E2E2",
"y. c #E4E4E4",
"u. c None",
/* pixels */
"u.u.u.u.u.u.u.u.u.u.u.u.u.u.u.u.u.u.u.u.u.u.u.u.",
"u.u.u.u.u.u.u.u.O.$.3.5.3.$.' Q u.u.u.u.u.u.u.u.",
"u.u.u.u.u.u.) 8.t.t.q.5.3.>.;.O.X.Z u.u.u.u.u.u.",
"u.u.u.u.u.O.5.q.t.y.t.5 ; 3.;.$.X.| U u.u.u.u.u.",
"u.u.u.u.O.3.5.q.q.t.q.u.u.>.;.$.X.| ) U u.u.u.u.",
"u.u.u.U ;.3.5.! - ' 8.u.u.>.Z $ P | ) ! z u.u.u.",
"u.u.u.O.;.>.b u.u.| 5.u.u.;.F u.o b ' ! Q u.u.u.",
"u.u.! O.$.Q u.u.| 3.3.u.u.;.O.P u.u.P ! U b u.u.",
"u.u.| X.O.> u.) >.>.>.u.u.$.O.X.Z u.1 Q P F u.u.",
"u.u.' | ) u.u.$.;.$.$.u.u.O.X.| ) u.u.P P F u.u.",
"u.y ' ' N u.f X.O.O.O.U U X.| ' ) y u.f P F 7 u.",
"u.s ! ) k u.f X.X.X.X.X.| ' ' ) ! u u.y Z Z 0 u.",
"u.5 Q ! N u.9 ' ' | | ' ' ' ) ! Q 7 u.f Z Z 1 u.",
"u.> U Q U u.u.) ' ) ) ) ) ! Q Q U % u.b Z b - u.",
"u.u.P P U w u.u ! ! Q Q Q Q U U y u.u.Z N b u.u.",
"u.u.k F U b u.u.b Q Q U U U P f u.u.f N z y u.u.",
"u.u.% Z F P k u.u.4 N P P z 1 u.u.u N b k @ u.u.",
"u.u.u.4 Z Z Z f u.u.u.X X u.u.u.u b b z 1 u.u.u.",
"u.u.u.u.s N Z Z N s u.u.u.u.u b b z z w u.u.u.u.",
"u.u.u.u.+ 0 b b b N N b b b b z z k 7 + u.u.u.u.",
"u.u.u.u.u.u.- f z b z z z z k k s * u.u.u.u.u.u.",
"u.u.u.u.u.u.u.+ - 2 y f f w 1 * o u.u.u.u.u.u.u.",
"u.u.u.u.u.u.u.u.u.u.u.    u.u.u.u.u.u.u.u.u.u.u.",
"u.u.u.u.u.u.u.u.u.u.u.u.u.u.u.u.u.u.u.u.u.u.u.u."
};
