/* XPM */
static char * input_dialpad_18x18_xpm[] = {
"18 18 91 1",
" 	c None",
".	c #D6D6D6",
"+	c #D9D9D9",
"@	c #DBDBDB",
"#	c #DADADA",
"$	c #D8D8D8",
"%	c #DCDCDC",
"&	c #979797",
"*	c #D4D4D4",
"=	c #BCBCBC",
"-	c #969696",
";	c #9B9B9B",
">	c #C2C2C2",
",	c #888888",
"'	c #898989",
")	c #959595",
"!	c #C1C1C1",
"~	c #8C8C8C",
"{	c #D0D0D0",
"]	c #848484",
"^	c #8B8B8B",
"/	c #919191",
"(	c #C9C9C9",
"_	c #B7B7B7",
":	c #A4A4A4",
"<	c #A5A5A5",
"[	c #A7A7A7",
"}	c #A1A1A1",
"|	c #CACACA",
"1	c #878787",
"2	c #C5C5C5",
"3	c #C0C0C0",
"4	c #BBBBBB",
"5	c #B6B6B6",
"6	c #B9B9B9",
"7	c #C4C4C4",
"8	c #818181",
"9	c #7F7F7F",
"0	c #000000",
"a	c #0A0A0A",
"b	c #949494",
"c	c #050505",
"d	c #030303",
"e	c #0C0C0C",
"f	c #787878",
"g	c #808080",
"h	c #8D8D8D",
"i	c #7E7E7E",
"j	c #7A7A7A",
"k	c #B1B1B1",
"l	c #AFAFAF",
"m	c #B3B3B3",
"n	c #B4B4B4",
"o	c #ADADAD",
"p	c #B8B8B8",
"q	c #B2B2B2",
"r	c #797979",
"s	c #AEAEAE",
"t	c #838383",
"u	c #3D3D3D",
"v	c #454545",
"w	c #343434",
"x	c #323232",
"y	c #484848",
"z	c #3B3B3B",
"A	c #767676",
"B	c #727272",
"C	c #7C7C7C",
"D	c #A6A6A6",
"E	c #717171",
"F	c #A3A3A3",
"G	c #929292",
"H	c #8E8E8E",
"I	c #909090",
"J	c #9A9A9A",
"K	c #8F8F8F",
"L	c #A2A2A2",
"M	c #939393",
"N	c #858585",
"O	c #4D4D4D",
"P	c #525252",
"Q	c #999999",
"R	c #444444",
"S	c #505050",
"T	c #535353",
"U	c #585858",
"V	c #989898",
"W	c #515151",
"X	c #7B7B7B",
"Y	c #3E3E3E",
"Z	c #4E4E4E",
"                  ",
"   .+@#$%%$#@$.   ",
"  &*=-;>,'>;)!*-  ",
"  ~{]  -  )  ^{/  ",
"  ^(_  :<[<  }|'  ",
"  123((4_56(7371  ",
"  8!90abcdbe0f!8  ",
"  g6,  h  h   5i  ",
"  jklmno_po_nqnj  ",
"  rstuv,wx^yzglA  ",
"  B[r  C  C   DB  ",
"  EFGHIbbJ)/K-LE  ",
"  vM;JJNOP1JQ;QR  ",
"   STU&A  rVUTW   ",
"     RG8X98GR     ",
"     y~,^^,~y     ",
"      YSZZSY      ",
"                  "};
