/* XPM */
static char *_488212174153[] = {
/* columns rows colors chars-per-pixel */
"24 24 95 2 ",
"   c black",
".  c #060606",
"X  c #1D1D1D",
"o  c #1E1E1E",
"O  c gray19",
"+  c gray20",
"@  c #393939",
"#  c #414141",
"$  c #444444",
"%  c #4C4C4C",
"&  c gray30",
"*  c gray31",
"=  c gray32",
"-  c gray33",
";  c #555555",
":  c #565656",
">  c gray35",
",  c #5B5B5B",
"<  c gray37",
"1  c #5F5F5F",
"2  c #606060",
"3  c #646464",
"4  c gray40",
"5  c #676767",
"6  c DimGray",
"7  c #6A6A6A",
"8  c gray42",
"9  c #6C6C6C",
"0  c #717171",
"q  c #727272",
"w  c gray45",
"e  c gray46",
"r  c #767676",
"t  c #777777",
"y  c gray47",
"u  c #797979",
"i  c gray48",
"p  c #7B7B7B",
"a  c gray49",
"s  c #808080",
"d  c #818181",
"f  c gray51",
"g  c #838383",
"h  c gray52",
"j  c #868686",
"k  c gray53",
"l  c #888888",
"z  c #898989",
"x  c gray54",
"c  c gray55",
"v  c #8D8D8D",
"b  c #909090",
"n  c gray57",
"m  c #929292",
"M  c #939393",
"N  c gray58",
"B  c #959595",
"V  c gray59",
"C  c #989898",
"Z  c gray60",
"A  c #9A9A9A",
"S  c #9D9D9D",
"D  c gray62",
"F  c #9F9F9F",
"G  c gray63",
"H  c #A2A2A2",
"J  c gray64",
"K  c #A4A4A4",
"L  c gray65",
"P  c gray66",
"I  c #AAAAAA",
"U  c gray67",
"Y  c gray68",
"T  c #AFAFAF",
"R  c #B1B1B1",
"E  c gray70",
"W  c #B4B4B4",
"Q  c gray71",
"!  c #B6B6B6",
"~  c #B7B7B7",
"^  c gray72",
"/  c #BBBBBB",
"(  c #BCBCBC",
")  c gray",
"_  c gray75",
"`  c #C1C1C1",
"'  c gray77",
"]  c #C8C8C8",
"[  c gray80",
"{  c #D0D0D0",
"}  c LightGray",
"|  c gray83",
" . c #D5D5D5",
".. c gray85",
"X. c None",
/* pixels */
"X.X.X.X.X.X.X.X.X.X.X.X.X.X.X.X.X.X.X.X.X.X.X.X.",
"X.X.X.X.| ............................| X.X.X.X.",
"X.X.X.F | | | | | | | | | | | | | | | | F X.X.X.",
"X.X.X.Z { { Z v v ] K i i U ` v x J { { Z X.X.X.",
"X.X.X.b [ [ # X.X.Q i X.X.x K X.X.- [ [ V X.X.X.",
"X.X.X.b ] ] X.X.X.Q d X.X.v U X.X.6 ] ] v X.X.X.",
"X.X.X.v ' ` V X.X.^ J U U U R X.X.Z ' ' v X.X.X.",
"X.X.X.x ` ` ) ) ) ) Q Y Y R ) ) ^ ) ) ` x X.X.X.",
"X.X.X.h ) ^ $     Z e     6 K     + ^ ) h X.X.X.",
"X.X.X.h Q ^ 2 X.X.Z d X.X.e K X.X.X.^ Q d X.X.X.",
"X.X.X.d Q R 6 X.X.Z x X.X.d K X.X.X.Q R d X.X.X.",
"X.X.X.a Y R R Y Y R Y R R R Y R Y R Y R a X.X.X.",
"X.X.X.a U U 1 # # b e + + 9 F # # - U Y i X.X.X.",
"X.X.X.e K K - X.X.x e X.X.6 V X.X.X.K K e X.X.X.",
"X.X.X.e J J , X.X.x 0 X.X.6 b X.X.X.J J e X.X.X.",
"X.X.X.0 F F v b b V V b V V Z b b v F F 0 X.X.X.",
"X.X.X.& Z Z F Z Z Z 0 & = e Z Z Z F Z F % X.X.X.",
"X.X.X.X.= d x x V V 1 X.X.3 V Z x x d - X.X.X.X.",
"X.X.X.X.X.X.  @ b b 1 X.X.3 b b @   X.X.X.X.X.X.",
"X.X.X.X.X.X.X.& v v i a d i v v & X.X.X.X.X.X.X.",
"X.X.X.X.X.X.X.& x h x x x x h x & X.X.X.X.X.X.X.",
"X.X.X.X.X.X.X.X.i h h h h h h i X.X.X.X.X.X.X.X.",
"X.X.X.X.X.X.X.X.. o o o o o o . X.X.X.X.X.X.X.X.",
"X.X.X.X.X.X.X.X.X.X.X.X.X.X.X.X.X.X.X.X.X.X.X.X."
};
