/* XPM */
static char * mail_mark_junk_18x18_xpm[] = {
"18 18 78 1",
" 	c None",
".	c #C3C3C3",
"+	c #D4D4D4",
"@	c #B9B9B9",
"#	c #B8B8B8",
"$	c #D6D6D6",
"%	c #CBCBCB",
"&	c #A4A4A4",
"*	c #D3D3D3",
"=	c #D5D5D5",
"-	c #878787",
";	c #D1D1D1",
">	c #CACACA",
",	c #A9A9A9",
"'	c #BDBDBD",
")	c #CECECE",
"!	c #CFCFCF",
"~	c #2A2A2A",
"{	c #9D9D9D",
"]	c #CDCDCD",
"^	c #C7C7C7",
"/	c #6D6D6D",
"(	c #C6C6C6",
"_	c #656565",
":	c #B2B2B2",
"<	c #C8C8C8",
"[	c #9F9F9F",
"}	c #AEAEAE",
"|	c #4B4B4B",
"1	c #8F8F8F",
"2	c #969696",
"3	c #A3A3A3",
"4	c #B4B4B4",
"5	c #A8A8A8",
"6	c #BBBBBB",
"7	c #C2C2C2",
"8	c #939393",
"9	c #7C7C7C",
"0	c #B0B0B0",
"a	c #AAAAAA",
"b	c #7B7B7B",
"c	c #717171",
"d	c #ADADAD",
"e	c #B1B1B1",
"f	c #727272",
"g	c #A2A2A2",
"h	c #A0A0A0",
"i	c #868686",
"j	c #AFAFAF",
"k	c #898989",
"l	c #9B9B9B",
"m	c #787878",
"n	c #626262",
"o	c #7F7F7F",
"p	c #707070",
"q	c #797979",
"r	c #9E9E9E",
"s	c #989898",
"t	c #858585",
"u	c #767676",
"v	c #5E5E5E",
"w	c #4F4F4F",
"x	c #323232",
"y	c #7D7D7D",
"z	c #9A9A9A",
"A	c #8A8A8A",
"B	c #9C9C9C",
"C	c #5C5C5C",
"D	c #6B6B6B",
"E	c #888888",
"F	c #999999",
"G	c #959595",
"H	c #181818",
"I	c #1E1E1E",
"J	c #585858",
"K	c #1F1F1F",
"L	c #1B1B1B",
"M	c #505050",
"                  ",
"      .+@#$%      ",
"     &**=-;+> ,   ",
"     '))!~{)]^    ",
"      /(_ :<>[    ",
"   }:  | 1234,    ",
"  5678            ",
"  9#60         a  ",
"  0:bc-      dee  ",
" fgh         i,jk ",
"  lmn      o  h[p ",
"  q/grh   situv/w ",
"  xy{zz  Alll{BC  ",
"   DEFF  cG2zAD   ",
"    HI~   oJKL    ",
"           M      ",
"                  ",
"                  "};
