/* XPM */
static char * media_floppy_18x18_xpm[] = {
"18 18 75 1",
" 	c None",
".	c #BCBCBC",
"+	c #CECECE",
"@	c #CDCDCD",
"#	c #CCCCCC",
"$	c #BBBBBB",
"%	c #C6C6C6",
"&	c #B4B4B4",
"*	c #D6D6D6",
"=	c #D5D5D5",
"-	c #DCDCDC",
";	c #5B5B5B",
">	c #343434",
",	c #B6B6B6",
"'	c #D0D0D0",
")	c #ACACAC",
"!	c #CFCFCF",
"~	c #B7B7B7",
"{	c #D1D1D1",
"]	c #CACACA",
"^	c #A8A8A8",
"/	c #CBCBCB",
"(	c #C9C9C9",
"_	c #C2C2C2",
":	c #B3B3B3",
"<	c #A9A9A9",
"[	c #A2A2A2",
"}	c #C3C3C3",
"|	c #C7C7C7",
"1	c #C1C1C1",
"2	c #C8C8C8",
"3	c #9E9E9E",
"4	c #BEBEBE",
"5	c #BDBDBD",
"6	c #878787",
"7	c #747474",
"8	c #A7A7A7",
"9	c #BFBFBF",
"0	c #989898",
"a	c #B8B8B8",
"b	c #B9B9B9",
"c	c #A5A5A5",
"d	c #9A9A9A",
"e	c #959595",
"f	c #B2B2B2",
"g	c #B0B0B0",
"h	c #909090",
"i	c #ADADAD",
"j	c #8F8F8F",
"k	c #8C8C8C",
"l	c #8A8A8A",
"m	c #888888",
"n	c #8D8D8D",
"o	c #AAAAAA",
"p	c #868686",
"q	c #A4A4A4",
"r	c #7F7F7F",
"s	c #9B9B9B",
"t	c #939393",
"u	c #898989",
"v	c #999999",
"w	c #828282",
"x	c #7B7B7B",
"y	c #949494",
"z	c #8E8E8E",
"A	c #818181",
"B	c #7D7D7D",
"C	c #767676",
"D	c #777777",
"E	c #717171",
"F	c #8B8B8B",
"G	c #484848",
"H	c #575757",
"I	c #585858",
"J	c #494949",
"                  ",
" .+@@#@$.....%+   ",
" &*==-;      >,'  ",
" )'!!!        ~{] ",
" ^/]((    _{+ :#< ",
" [}_|_    1+@ )2[ ",
" 34545     67 893 ",
" 0a~~bc aa   c,ad ",
" e:f:&&&&g&&&:f:e ",
" hi<jkkkkklmmn^ih ",
" m<e          mol ",
" p30          nqp ",
" rst          uvw ",
" xyz          AeB ",
" Cjz          lhD ",
" EkF6ppppppppuFkE ",
" GHIIIIIIIIIIIIHJ ",
"                  "};
