/* XPM */
static char * media_flash_18x18_xpm[] = {
"18 18 74 1",
" 	c None",
".	c #DADADA",
"+	c #CECECE",
"@	c #BDBDBD",
"#	c #BEBEBE",
"$	c #BCBCBC",
"%	c #CDCDCD",
"&	c #D7D7D7",
"*	c #797979",
"=	c #D1D1D1",
"-	c #818181",
";	c #828282",
">	c #838383",
",	c #909090",
"'	c #8B8B8B",
")	c #8F8F8F",
"!	c #CCCCCC",
"~	c #8A8A8A",
"{	c #CBCBCB",
"]	c #898989",
"^	c #888888",
"/	c #868686",
"(	c #808080",
"_	c #777777",
":	c #767676",
"<	c #C6C6C6",
"[	c #999999",
"}	c #858585",
"|	c #848484",
"1	c #C8C8C8",
"2	c #727272",
"3	c #737373",
"4	c #C2C2C2",
"5	c #7C7C7C",
"6	c #8E8E8E",
"7	c #585858",
"8	c #878787",
"9	c #C5C5C5",
"0	c #6F6F6F",
"a	c #BFBFBF",
"b	c #7B7B7B",
"c	c #7F7F7F",
"d	c #919191",
"e	c #929292",
"f	c #787878",
"g	c #6B6B6B",
"h	c #8C8C8C",
"i	c #6E6E6E",
"j	c #B7B7B7",
"k	c #B2B2B2",
"l	c #B4B4B4",
"m	c #B1B1B1",
"n	c #BABABA",
"o	c #B6B6B6",
"p	c #6A6A6A",
"q	c #676767",
"r	c #B5B5B5",
"s	c #656565",
"t	c #B3B3B3",
"u	c #616161",
"v	c #969696",
"w	c #3E3E3E",
"x	c #4A4A4A",
"y	c #474747",
"z	c #494949",
"A	c #3F3F3F",
"B	c #393939",
"C	c #636363",
"D	c #7A7A7A",
"E	c #5F5F5F",
"F	c #4D4D4D",
"G	c #606060",
"H	c #626262",
"I	c #464646",
"                  ",
"   .+@@#$$#$#%&   ",
"  *=-;>,'),>;-!~  ",
"  *{;~])^~)/~({_  ",
"  :<'~>-'[)}]|12  ",
"  345}^6:72]>893  ",
"  0abc(/]de-cfag  ",
"  g#h(>||/}}>h#i  ",
"  g@jklllmlllj@g  ",
"  gnoooooooooonp  ",
"  qrmmmmmmmmmmrq  ",
"  sktkkkkkkrktks  ",
"  uvwxyzAzwAABeu  ",
"  Ch b5f D    hC  ",
"  E^          ^E  ",
"  xD          bF  ",
"   wGuEHEuEuEuI   ",
"                  "};
