/* XPM */
static char * network_wired_18x18_xpm[] = {
"18 18 91 1",
" 	c None",
".	c #CECECE",
"+	c #D6D6D6",
"@	c #DADADA",
"#	c #DCDCDC",
"$	c #D7D7D7",
"%	c #D5D5D5",
"&	c #D9D9D9",
"*	c #C2C2C2",
"=	c #CCCCCC",
"-	c #CDCDCD",
";	c #CBCBCB",
">	c #828282",
",	c #646464",
"'	c #BCBCBC",
")	c #D1D1D1",
"!	c #AFAFAF",
"~	c #C4C4C4",
"{	c #C6C6C6",
"]	c #ACACAC",
"^	c #737373",
"/	c #929292",
"(	c #232323",
"_	c #9B9B9B",
":	c #A7A7A7",
"<	c #BABABA",
"[	c #BBBBBB",
"}	c #BDBDBD",
"|	c #3E3E3E",
"1	c #BEBEBE",
"2	c #A5A5A5",
"3	c #B1B1B1",
"4	c #A0A0A0",
"5	c #B6B6B6",
"6	c #B3B3B3",
"7	c #8A8A8A",
"8	c #9C9C9C",
"9	c #919191",
"0	c #959595",
"a	c #ABABAB",
"b	c #999999",
"c	c #696969",
"d	c #6B6B6B",
"e	c #B4B4B4",
"f	c #808080",
"g	c #2E2E2E",
"h	c #666666",
"i	c #AAAAAA",
"j	c #909090",
"k	c #9A9A9A",
"l	c #CACACA",
"m	c #A3A3A3",
"n	c #8D8D8D",
"o	c #A6A6A6",
"p	c #A2A2A2",
"q	c #ADADAD",
"r	c #6F6F6F",
"s	c #969696",
"t	c #848484",
"u	c #4F4F4F",
"v	c #838383",
"w	c #8E8E8E",
"x	c #656565",
"y	c #777777",
"z	c #8F8F8F",
"A	c #7A7A7A",
"B	c #898989",
"C	c #494949",
"D	c #5C5C5C",
"E	c #7E7E7E",
"F	c #7B7B7B",
"G	c #7D7D7D",
"H	c #818181",
"I	c #6C6C6C",
"J	c #343434",
"K	c #252525",
"L	c #989898",
"M	c #A1A1A1",
"N	c #9E9E9E",
"O	c #B2B2B2",
"P	c #6D6D6D",
"Q	c #CFCFCF",
"R	c #D0D0D0",
"S	c #545454",
"T	c #414141",
"U	c #A9A9A9",
"V	c #D2D2D2",
"W	c #3C3C3C",
"X	c #202020",
"Y	c #141414",
"Z	c #5B5B5B",
"                  ",
"     .++++@#$%%&* ",
"     ===-;>,')=.! ",
"     ~~{]^ /(_*~: ",
"     <[}|1!~2 3'4 ",
"     567 /890 a6b ",
"     cd8efghc 2ij ",
"    k'l{~l cc 8m7 ",
"    nopqi: rrf_st ",
"     uvdwxy/9jzjA ",
"    45BrCDEFFGHAI ",
"   [a        JK   ",
"  [3      4LMpN_  ",
" )OP QRa/FF S T8> ",
" UV'0IWX      kI  ",
"  Y          sS   ",
"            hZ    ",
"                  "};
