/* XPM */
static char * network_wired_16x16_XPM[] = {
"16 16 77 1",
" 	c None",
".	c #D3D3D3",
"+	c #D4D4D4",
"@	c #DBDBDB",
"#	c #DADADA",
"$	c #D8D8D8",
"%	c #C9C9C9",
"&	c #CBCBCB",
"*	c #B4B4B4",
"=	c #636363",
"-	c #B0B0B0",
";	c #CCCCCC",
">	c #BDBDBD",
",	c #C0C0C0",
"'	c #C3C3C3",
")	c #646464",
"!	c #ADADAD",
"~	c #A2A2A2",
"{	c #717171",
"]	c #B8B8B8",
"^	c #ABABAB",
"/	c #ACACAC",
"(	c #B1B1B1",
"_	c #AAAAAA",
":	c #666666",
"<	c #8A8A8A",
"[	c #6D6D6D",
"}	c #535353",
"|	c #929292",
"1	c #A1A1A1",
"2	c #AEAEAE",
"3	c #CECECE",
"4	c #D2D2D2",
"5	c #888888",
"6	c #828282",
"7	c #797979",
"8	c #A3A3A3",
"9	c #9A9A9A",
"0	c #959595",
"a	c #A5A5A5",
"b	c #6B6B6B",
"c	c #696969",
"d	c #969696",
"e	c #979797",
"f	c #727272",
"g	c #858585",
"h	c #575757",
"i	c #8D8D8D",
"j	c #606060",
"k	c #878787",
"l	c #919191",
"m	c #8F8F8F",
"n	c #868686",
"o	c #A4A4A4",
"p	c #BABABA",
"q	c #808080",
"r	c #737373",
"s	c #3C3C3C",
"t	c #747474",
"u	c #787878",
"v	c #757575",
"w	c #BBBBBB",
"x	c #444444",
"y	c #B6B6B6",
"z	c #A7A7A7",
"A	c #C4C4C4",
"B	c #A8A8A8",
"C	c #7E7E7E",
"D	c #686868",
"E	c #5A5A5A",
"F	c #A0A0A0",
"G	c #D6D6D6",
"H	c #303030",
"I	c #8C8C8C",
"J	c #4F4F4F",
"K	c #454545",
"L	c #1D1D1D",
"                ",
"     .+++@#++$% ",
"     %%&*==-;%> ",
"     ,') !~ {'* ",
"     ]^ /(-_ */ ",
"     :<^[}=| ^1 ",
"    23;%4567 89 ",
"    0a-/^bccde| ",
"    fghijkllmmn ",
"   opqrs[trruv: ",
"   wf       x   ",
" wy   z*ABCDE5F ",
" G9(-BmfH    I: ",
" JK        i0   ",
"           eL   ",
"                "};
