/* XPM */
static char *pause[] = {
/* columns rows colors chars-per-pixel */
"18 18 29 1 ",
"  c #3D3D3D",
". c #7C7C7C",
"X c #858585",
"o c #898989",
"O c #8A8A8A",
"+ c #8C8C8C",
"@ c #939393",
"# c #949494",
"$ c #9B9B9B",
"% c #9C9C9C",
"& c #A2A2A2",
"* c #A3A3A3",
"= c #A4A4A4",
"- c #AAAAAA",
"; c #ACACAC",
": c #ADADAD",
"> c #B2B2B2",
", c #B4B4B4",
"< c #B5B5B5",
"1 c #B9B9B9",
"2 c #BCBCBC",
"3 c #BDBDBD",
"4 c #C5C5C5",
"5 c #C6C6C6",
"6 c #C7C7C7",
"7 c #CDCDCD",
"8 c #CECECE",
"9 c #D6D6D6",
"0 c None",
/* pixels */
"000000000000000000",
"000000000000000000",
"000000000000000000",
"000000000000000000",
"000099960069990000",
"000077810018770000",
"0000445>00>5440000",
"0000223-00-3220000",
"0000,,<&00&<,,0000",
"0000;;:$00$:;;0000",
"0000*==#00#==*0000",
"0000$$%+00+%$$0000",
"0000@@@X00X@@@0000",
"0000oOO.00.OOo0000",
"0000   0000   0000",
"000000000000000000",
"000000000000000000",
"000000000000000000"
};
