/* XPM */
static char * speaker_18x18_xpm[] = {
"18 18 88 1",
" 	c None",
".	c #DADADA",
"+	c #C5C5C5",
"@	c #909090",
"#	c #A2A2A2",
"$	c #D1D1D1",
"%	c #DCDCDC",
"&	c #ADADAD",
"*	c #C3C3C3",
"=	c #9B9B9B",
"-	c #8F8F8F",
";	c #B2B2B2",
">	c #D2D2D2",
",	c #D0D0D0",
"'	c #D4D4D4",
")	c #A7A7A7",
"!	c #A0A0A0",
"~	c #ABABAB",
"{	c #4D4D4D",
"]	c #9D9D9D",
"^	c #C0C0C0",
"/	c #BFBFBF",
"(	c #BEBEBE",
"_	c #C7C7C7",
":	c #C9C9C9",
"<	c #9E9E9E",
"[	c #CACACA",
"}	c #383838",
"|	c #B7B7B7",
"1	c #808080",
"2	c #8B8B8B",
"3	c #AFAFAF",
"4	c #C1C1C1",
"5	c #999999",
"6	c #777777",
"7	c #696969",
"8	c #767676",
"9	c #A5A5A5",
"0	c #BCBCBC",
"a	c #B6B6B6",
"b	c #B9B9B9",
"c	c #BBBBBB",
"d	c #B8B8B8",
"e	c #949494",
"f	c #C8C8C8",
"g	c #8D8D8D",
"h	c #878787",
"i	c #888888",
"j	c #515151",
"k	c #7F7F7F",
"l	c #9F9F9F",
"m	c #B1B1B1",
"n	c #B0B0B0",
"o	c #B3B3B3",
"p	c #CECECE",
"q	c #929292",
"r	c #818181",
"s	c #5E5E5E",
"t	c #7C7C7C",
"u	c #9A9A9A",
"v	c #AAAAAA",
"w	c #A9A9A9",
"x	c #A6A6A6",
"y	c #A8A8A8",
"z	c #858585",
"A	c #D8D8D8",
"B	c #525252",
"C	c #A4A4A4",
"D	c #656565",
"E	c #747474",
"F	c #6C6C6C",
"G	c #4A4A4A",
"H	c #636363",
"I	c #676767",
"J	c #A1A1A1",
"K	c #7D7D7D",
"L	c #B4B4B4",
"M	c #898989",
"N	c #979797",
"O	c #787878",
"P	c #2F2F2F",
"Q	c #727272",
"R	c #626262",
"S	c #6A6A6A",
"T	c #191919",
"U	c #5D5D5D",
"V	c #707070",
"W	c #101010",
"                  ",
"                  ",
"                  ",
"        .+   @#   ",
"       $%&  * =-  ",
"     ;>,')  !~{]  ",
" ^/((___:< [}| 12 ",
" 3//^/^4*5 , 5678 ",
" 90abacade fghijk ",
" lmmmmnmo2 p1qrst ",
" uvww)xxyz ABCDEF ",
" GDHI<llJK x L zM ",
"     }gNuO  we uE ",
"      PQ@Q  RS]M  ",
"       TIU   V~}  ",
"              W   ",
"                  ",
"                  "};
