/* XPM */
static char *start[] = {
/* columns rows colors chars-per-pixel */
"18 18 49 1 ",
"  c #4D4D4D",
". c #535353",
"X c #585858",
"o c #5E5E5E",
"O c #646464",
"+ c #6B6B6B",
"@ c #6F6F6F",
"# c #7C7C7C",
"$ c #7D7D7D",
"% c #7F7F7F",
"& c #848484",
"* c #888888",
"= c #898989",
"- c #8A8A8A",
"; c #8D8D8D",
": c #909090",
"> c #969696",
", c #989898",
"< c #9B9B9B",
"1 c #9C9C9C",
"2 c #9D9D9D",
"3 c #9E9E9E",
"4 c #9F9F9F",
"5 c #A0A0A0",
"6 c #A2A2A2",
"7 c #A5A5A5",
"8 c #A6A6A6",
"9 c #A7A7A7",
"0 c #A9A9A9",
"q c #ACACAC",
"w c #ADADAD",
"e c #AEAEAE",
"r c #B2B2B2",
"t c #B4B4B4",
"y c #B5B5B5",
"u c #B9B9B9",
"i c #BBBBBB",
"p c #BCBCBC",
"a c #BEBEBE",
"s c #BFBFBF",
"d c #C1C1C1",
"f c #C2C2C2",
"g c #C3C3C3",
"h c #C7C7C7",
"j c #C8C8C8",
"k c #C9C9C9",
"l c #CACACA",
"z c #D0D0D0",
"x c None",
/* pixels */
"xxxxxxxxxxxxxxxxxx",
"xxxxxxxxxxxxxxxxxx",
"xxxxxxxxxxxxxxxxxx",
"xxxxpxxxxxxxxxxxxx",
"xxxxyzkxxxxxxxxxxx",
"xxxxeljhsxxxxxxxxx",
"xxxx0gffdaxxxxxxxx",
"xxxx6piiiiuyxxxxxx",
"xxxx2yttttttrxxxxx",
"xxxx>wqqqqqw1#xxxx",
"xxxx:977885%Xxxxxx",
"xxxx-434<*oxxxxxxx",
"xxxx&,,=+xxxxxxxxx",
"xxxx$;@ xxxxxxxxxx",
"xxxxO.xxxxxxxxxxxx",
"xxxxxxxxxxxxxxxxxx",
"xxxxxxxxxxxxxxxxxx",
"xxxxxxxxxxxxxxxxxx"
};
