/* XPM */
static char *start_16x16[] = {
/* columns rows colors chars-per-pixel */
"16 16 41 1 ",
"  c #5F5F5F",
". c #696969",
"X c #6C6C6C",
"o c #6D6D6D",
"O c #727272",
"+ c #737373",
"@ c #828282",
"# c #8A8A8A",
"$ c #8B8B8B",
"% c #8C8C8C",
"& c #8E8E8E",
"* c #939393",
"= c #9A9A9A",
"- c #9B9B9B",
"; c #9D9D9D",
": c #9E9E9E",
"> c #A0A0A0",
", c #A2A2A2",
"< c #A4A4A4",
"1 c #A5A5A5",
"2 c #AAAAAA",
"3 c #ABABAB",
"4 c #ACACAC",
"5 c #ADADAD",
"6 c #B1B1B1",
"7 c #B3B3B3",
"8 c #B4B4B4",
"9 c #B5B5B5",
"0 c #B8B8B8",
"q c #B9B9B9",
"w c #BBBBBB",
"e c #BCBCBC",
"r c #BDBDBD",
"t c #BEBEBE",
"y c #C0C0C0",
"u c #C1C1C1",
"i c #C4C4C4",
"p c #C5C5C5",
"a c #C7C7C7",
"s c #CBCBCB",
"d c None",
/* pixels */
"dddddddddddddddd",
"dddddddddddddddd",
"dddddddddddddddd",
"dddduddddddddddd",
"ddddysaydddddddd",
"ddddqpiutddddddd",
"dddd6reew09ddddd",
"dddd29888875dddd",
"dddd,54443>#dddd",
"dddd-1<<;&+ddddd",
"dddd*:=%@ dddddd",
"dddd%$O.dddddddd",
"ddddoXdddddddddd",
"dddddddddddddddd",
"dddddddddddddddd",
"dddddddddddddddd"
};
