/* XPM */
static char *stop_16x16[] = {
/* columns rows colors chars-per-pixel */
"16 16 18 1 ",
"  c #767676",
". c #777777",
"X c #787878",
"o c #797979",
"O c #949494",
"+ c #979797",
"@ c #A0A0A0",
"# c #AAAAAA",
"$ c #ABABAB",
"% c #B5B5B5",
"& c #B6B6B6",
"* c #C0C0C0",
"= c #C1C1C1",
"- c #CACACA",
"; c #CBCBCB",
": c #D4D4D4",
"> c #D5D5D5",
", c None",
/* pixels */
",,,,,,,,,,,,,,,,",
",,,,,,,,,,,,,,,,",
",,,,,,,,,,,,,,,,",
",,,,,,,,,,,,,,,,",
",,,,,:>>>>:,,,,,",
",,,,-;;;;;;-,,,,",
",,,,*======*,,,,",
",,,,%&&&&&&%,,,,",
",,,,#$$$$$$#,,,,",
",,,,@@@@@@@@,,,,",
",,,,O++++++O,,,,",
",,,,o X..X o,,,,",
",,,,,,,,,,,,,,,,",
",,,,,,,,,,,,,,,,",
",,,,,,,,,,,,,,,,",
",,,,,,,,,,,,,,,,"
};
