/* XPM */
static char * user_home_20x20_xpm[] = {
"20 20 101 2",
"  	c None",
". 	c #C8C8C8",
"+ 	c #D7D7D7",
"@ 	c #DADADA",
"# 	c #D2D2D2",
"$ 	c #C9C9C9",
"% 	c #ADADAD",
"& 	c #A1A1A1",
"* 	c #D3D3D3",
"= 	c #CECECE",
"- 	c #CBCBCB",
"; 	c #CFCFCF",
"> 	c #A0A0A0",
", 	c #7F7F7F",
"' 	c #7E7E7E",
") 	c #949494",
"! 	c #C6C6C6",
"~ 	c #909090",
"{ 	c #858585",
"] 	c #CACACA",
"^ 	c #888888",
"/ 	c #8A8A8A",
"( 	c #C2C2C2",
"_ 	c #C7C7C7",
": 	c #BDBDBD",
"< 	c #868686",
"[ 	c #8E8E8E",
"} 	c #848484",
"| 	c #B9B9B9",
"1 	c #C0C0C0",
"2 	c #B7B7B7",
"3 	c #808080",
"4 	c #878787",
"5 	c #B8B8B8",
"6 	c #C5C5C5",
"7 	c #C3C3C3",
"8 	c #B5B5B5",
"9 	c #BFBFBF",
"0 	c #BBBBBB",
"a 	c #7A7A7A",
"b 	c #828282",
"c 	c #BABABA",
"d 	c #BEBEBE",
"e 	c #8B8B8B",
"f 	c #7B7B7B",
"g 	c #B1B1B1",
"h 	c #ACACAC",
"i 	c #777777",
"j 	c #797979",
"k 	c #B6B6B6",
"l 	c #787878",
"m 	c #AAAAAA",
"n 	c #5A5A5A",
"o 	c #626262",
"p 	c #666666",
"q 	c #B2B2B2",
"r 	c #AFAFAF",
"s 	c #B3B3B3",
"t 	c #B0B0B0",
"u 	c #696969",
"v 	c #636363",
"w 	c #ABABAB",
"x 	c #9C9C9C",
"y 	c #A6A6A6",
"z 	c #A7A7A7",
"A 	c #A2A2A2",
"B 	c #7D7D7D",
"C 	c #818181",
"D 	c #9A9A9A",
"E 	c #A8A8A8",
"F 	c #A5A5A5",
"G 	c #A9A9A9",
"H 	c #919191",
"I 	c #9F9F9F",
"J 	c #0B0B0B",
"K 	c #000000",
"L 	c #616161",
"M 	c #A3A3A3",
"N 	c #8C8C8C",
"O 	c #9B9B9B",
"P 	c #999999",
"Q 	c #6C6C6C",
"R 	c #969696",
"S 	c #9D9D9D",
"T 	c #959595",
"U 	c #6F6F6F",
"V 	c #989898",
"W 	c #838383",
"X 	c #8F8F8F",
"Y 	c #6A6A6A",
"Z 	c #939393",
"` 	c #898989",
" .	c #8D8D8D",
"..	c #707070",
"+.	c #282828",
"@.	c #343434",
"#.	c #3D3D3D",
"$.	c #414141",
"%.	c #3A3A3A",
"&.	c #3B3B3B",
"*.	c #393939",
"                                        ",
"                . + @ #                 ",
"              $ + % & * =               ",
"            - ; > , ' ) = =             ",
"          $ ! ~ { ] # ^ / ( ]           ",
"        _ : < / ( $ _ ! [ } | !         ",
"      1 2 3 4 5 ( 6 1 7 1 [ 3 8 9       ",
"    0 8 a b 8 : 0 : c 0 d 2 e f g 5     ",
"  h 2 i j 8 2 | | 8 | | 5 | k , l 8 m   ",
"  n o p 5 q g r % s % r q t g 2 j u v   ",
"      g m w w h w h h h w w h r x       ",
"      y z y z A ^ ' B C D E F G H       ",
"      > I > G , J K K K L E > M N       ",
"      O O P A Q           R O S 4       ",
"      T T ) S U           ~ T V W       ",
"      [ X [ V Y           e ~ Z ,       ",
"      / ` ^ X p           4 ` N a       ",
"      e  .[ R o           / [ ) ..      ",
"      +.@.#.#.$.          %.#.&.*.      ",
"                                        "};
