/* XPM */
static char * user_home_18x18_xpm[] = {
"18 18 94 2",
"  	c None",
". 	c #CACACA",
"+ 	c #D2D2D2",
"@ 	c #D4D4D4",
"# 	c #D3D3D3",
"$ 	c #CCCCCC",
"% 	c #CFCFCF",
"& 	c #9F9F9F",
"* 	c #949494",
"= 	c #C9C9C9",
"- 	c #D1D1D1",
"; 	c #CDCDCD",
"> 	c #C0C0C0",
", 	c #979797",
"' 	c #9A9A9A",
") 	c #8C8C8C",
"! 	c #BEBEBE",
"~ 	c #CECECE",
"{ 	c #B4B4B4",
"] 	c #8B8B8B",
"^ 	c #9C9C9C",
"/ 	c #888888",
"( 	c #B0B0B0",
"_ 	c #C8C8C8",
": 	c #C4C4C4",
"< 	c #ADADAD",
"[ 	c #848484",
"} 	c #9B9B9B",
"| 	c #C2C2C2",
"1 	c #C7C7C7",
"2 	c #C3C3C3",
"3 	c #C5C5C5",
"4 	c #A2A2A2",
"5 	c #858585",
"6 	c #AAAAAA",
"7 	c #BDBDBD",
"8 	c #7C7C7C",
"9 	c #989898",
"0 	c #BABABA",
"a 	c #BFBFBF",
"b 	c #BBBBBB",
"c 	c #9D9D9D",
"d 	c #818181",
"e 	c #A7A7A7",
"f 	c #AFAFAF",
"g 	c #757575",
"h 	c #919191",
"i 	c #B7B7B7",
"j 	c #B6B6B6",
"k 	c #B9B9B9",
"l 	c #959595",
"m 	c #777777",
"n 	c #B2B2B2",
"o 	c #5D5D5D",
"p 	c #636363",
"q 	c #838383",
"r 	c #B3B3B3",
"s 	c #8F8F8F",
"t 	c #6D6D6D",
"u 	c #666666",
"v 	c #ABABAB",
"w 	c #ACACAC",
"x 	c #AEAEAE",
"y 	c #A3A3A3",
"z 	c #A5A5A5",
"A 	c #7F7F7F",
"B 	c #707070",
"C 	c #6F6F6F",
"D 	c #A8A8A8",
"E 	c #999999",
"F 	c #9E9E9E",
"G 	c #878787",
"H 	c #191919",
"I 	c #7D7D7D",
"J 	c #A1A1A1",
"K 	c #939393",
"L 	c #A0A0A0",
"M 	c #8D8D8D",
"N 	c #7A7A7A",
"O 	c #929292",
"P 	c #787878",
"Q 	c #8A8A8A",
"R 	c #969696",
"S 	c #898989",
"T 	c #717171",
"U 	c #8E8E8E",
"V 	c #747474",
"W 	c #909090",
"X 	c #828282",
"Y 	c #383838",
"Z 	c #434343",
"` 	c #474747",
" .	c #444444",
"..	c #464646",
"                                    ",
"              . + @ #               ",
"            $ % & * = -             ",
"          ; > * , ' ) ! ~           ",
"        = { ] ^ ; - & / ( _         ",
"      : < [ } | 1 2 3 4 5 6 |       ",
"    7 6 8 9 0 7 a b ! 7 c d e 0     ",
"  { f g h i 0 0 j 0 0 k k l m < n   ",
"  o p q 0 n ( < r < ( n ( i s t u   ",
"      f 6 v w 6 6 v v 6 v x y l     ",
"      z z e 4 A B C m ' D e E [     ",
"      F c D G H       I z J K A     ",
"      E , L m           * ^ M N     ",
"      O h } P         Q s R S m     ",
"      ] Q O T         G S U q V     ",
"      O O ^ B         M W 9 X p     ",
"      Y Z ` `         Z  ...Z       ",
"                                    "};
