/* XPM */
static char * user_home_22x22_xpm[] = {
"22 22 111 2",
"  	c None",
". 	c #C7C7C7",
"+ 	c #D9D9D9",
"@ 	c #DDDDDD",
"# 	c #D1D1D1",
"$ 	c #C5C5C5",
"% 	c #DBDBDB",
"& 	c #C1C1C1",
"* 	c #B6B6B6",
"= 	c #CACACA",
"- 	c #D8D8D8",
"; 	c #6A6A6A",
"> 	c #616161",
", 	c #A7A7A7",
"' 	c #DADADA",
") 	c #C9C9C9",
"! 	c #C4C4C4",
"~ 	c #D5D5D5",
"{ 	c #A3A3A3",
"] 	c #6D6D6D",
"^ 	c #CECECE",
"/ 	c #6B6B6B",
"( 	c #9A9A9A",
"_ 	c #D2D2D2",
": 	c #C6C6C6",
"< 	c #BFBFBF",
"[ 	c #969696",
"} 	c #717171",
"| 	c #BCBCBC",
"1 	c #CCCCCC",
"2 	c #727272",
"3 	c #8E8E8E",
"4 	c #CBCBCB",
"5 	c #C0C0C0",
"6 	c #BDBDBD",
"7 	c #8C8C8C",
"8 	c #707070",
"9 	c #777777",
"0 	c #878787",
"a 	c #BEBEBE",
"b 	c #BABABA",
"c 	c #868686",
"d 	c #6E6E6E",
"e 	c #AFAFAF",
"f 	c #B5B5B5",
"g 	c #767676",
"h 	c #858585",
"i 	c #B9B9B9",
"j 	c #B8B8B8",
"k 	c #656565",
"l 	c #B0B0B0",
"m 	c #BBBBBB",
"n 	c #B4B4B4",
"o 	c #818181",
"p 	c #A4A4A4",
"q 	c #848484",
"r 	c #5C5C5C",
"s 	c #B1B1B1",
"t 	c #B7B7B7",
"u 	c #838383",
"v 	c #565656",
"w 	c #676767",
"x 	c #494949",
"y 	c #B2B2B2",
"z 	c #AEAEAE",
"A 	c #ADADAD",
"B 	c #B3B3B3",
"C 	c #606060",
"D 	c #ABABAB",
"E 	c #ACACAC",
"F 	c #939393",
"G 	c #A8A8A8",
"H 	c #A6A6A6",
"I 	c #949494",
"J 	c #8D8D8D",
"K 	c #9E9E9E",
"L 	c #A9A9A9",
"M 	c #888888",
"N 	c #A1A1A1",
"O 	c #A0A0A0",
"P 	c #070707",
"Q 	c #000000",
"R 	c #464646",
"S 	c #A2A2A2",
"T 	c #9C9C9C",
"U 	c #9B9B9B",
"V 	c #979797",
"W 	c #9F9F9F",
"X 	c #7F7F7F",
"Y 	c #989898",
"Z 	c #666666",
"` 	c #919191",
" .	c #999999",
"..	c #7B7B7B",
"+.	c #929292",
"@.	c #8A8A8A",
"#.	c #959595",
"$.	c #797979",
"%.	c #5E5E5E",
"&.	c #898989",
"*.	c #909090",
"=.	c #757575",
"-.	c #8B8B8B",
";.	c #5B5B5B",
">.	c #828282",
",.	c #242424",
"'.	c #343434",
").	c #333333",
"!.	c #353535",
"~.	c #323232",
"{.	c #2F2F2F",
"                                            ",
"                  . + @ #                   ",
"                $ % & * + =                 ",
"              $ - * ; > , ' )               ",
"            ! ~ { ] & ^ / ( _ :             ",
"          < ^ [ } | 1 ) $ 2 3 4 5           ",
"        6 4 7 8 * . $ $ : 6 9 0 . a         ",
"      b & c d e < a ! a < $ f g h 5 i       ",
"    j 6 c k l m | b m i b m m n 8 o i f     ",
"  p b q r s * * j j n j j t j t s k u i {   ",
"  v w x e f e y z A B A z y e s l n C / C   ",
"        D D E D A D A A A E D E E z F       ",
"        G G H , { I J 7 3 K , H H L M       ",
"        N O p , g P Q Q Q R , S N p u       ",
"        T T U N C           V W U K X       ",
"        Y V V T Z           ` V [  ...      ",
"        +.+.+.( >           @.+.+.#.$.      ",
"        J J 7 F %.          &.3 J *.=.      ",
"        M 0 0 -.;.          h M 0 @.8       ",
"        q &.&.J v           >.&.M J r       ",
"        ,.'.).!.            ~.).!.{.        ",
"                                            "};
