/* XPM */
static char *_488993746235[] = {
/* columns rows colors chars-per-pixel */
"24 24 99 2 ",
"   c black",
".  c gray3",
"X  c gray7",
"o  c #232323",
"O  c gray17",
"+  c #2C2C2C",
"@  c gray18",
"#  c gray20",
"$  c #3A3A3A",
"%  c gray23",
"&  c #3E3E3E",
"*  c gray26",
"=  c #464646",
"-  c gray28",
";  c #484848",
":  c gray29",
">  c #4C4C4C",
",  c gray30",
"<  c gray31",
"1  c #515151",
"2  c gray33",
"3  c #555555",
"4  c gray34",
"5  c #5A5A5A",
"6  c #5B5B5B",
"7  c gray36",
"8  c #5D5D5D",
"9  c #646464",
"0  c DimGray",
"q  c #6C6C6C",
"w  c gray43",
"e  c gray44",
"r  c #717171",
"t  c gray45",
"y  c #777777",
"u  c #797979",
"i  c gray48",
"p  c #7B7B7B",
"a  c #7E7E7E",
"s  c gray50",
"d  c gray51",
"f  c #848484",
"g  c #868686",
"h  c #888888",
"j  c #898989",
"k  c #8B8B8B",
"l  c gray55",
"z  c #909090",
"x  c gray57",
"c  c gray58",
"v  c gray59",
"b  c #989898",
"n  c gray60",
"m  c #9D9D9D",
"M  c gray62",
"N  c #9F9F9F",
"B  c #A0A0A0",
"V  c #A2A2A2",
"C  c #A5A5A5",
"Z  c gray65",
"A  c #A7A7A7",
"S  c #A9A9A9",
"D  c gray67",
"F  c #ACACAC",
"G  c gray68",
"H  c #AFAFAF",
"J  c gray69",
"K  c #B1B1B1",
"L  c #B2B2B2",
"P  c gray70",
"I  c #B4B4B4",
"U  c gray71",
"Y  c #B7B7B7",
"T  c gray72",
"R  c #B9B9B9",
"E  c gray73",
"W  c #BBBBBB",
"Q  c #BCBCBC",
"!  c gray74",
"~  c gray",
"^  c gray75",
"/  c gray76",
"(  c #C3C3C3",
")  c gray77",
"_  c #C6C6C6",
"`  c #C8C8C8",
"'  c gray79",
"]  c #CBCBCB",
"[  c gray80",
"{  c #CDCDCD",
"}  c gray81",
"|  c gray82",
" . c gray83",
".. c gray84",
"X. c gray85",
"o. c #DADADA",
"O. c gainsboro",
"+. c #DDDDDD",
"@. c None",
/* pixels */
"@.@.@.@.@.@.@.@.@.@.@.@.@.@.@.@.@.@.@.@.@.@.@.@.",
"@.@.@.@.@.@.@.@.@.@._ X.+.| @.@.@.@.@.@.@.@.@.@.",
"@.@.@.@.@.@.@.@.@.( X.X.| X.` @.@.@.@.@.@.@.@.@.",
"@.@.@.@.@.@.@.@.( ....5 - ` X.` @.@.@.@.@.@.@.@.",
"@.@.@.@.@.@.@.( | { 2 P _ - ( | _ @.@.@.@.@.@.@.",
"@.@.@.@.@.@.Q { _ > P { ` ( ; R { Q @.@.@.@.@.@.",
"@.@.@.@.@.Q ` Q - P ` ` ` _ Q ; P ` Q @.@.@.@.@.",
"@.@.@.@.R ( R * G ( ( ( ( ( _ R - G _ R @.@.@.@.",
"@.@.@.R Q G & G Q Q Q ( Q Q ( Q Y - A Q Y @.@.@.",
"@.@.Y R D $ G R R Q R R R R R R R P - m R P @.@.",
"@.m Y m $ D Y P Y Y Y P Y Y Y Y Y P G - n Y m @.",
"@.1 r @ V P P G P G G P G G P G P G P D ; r 7 @.",
"@.@.@.@.D D D G D G D G G G G D D G D G j @.@.@.",
"@.@.@.@.A D A A A A V m m m A A A A A A a @.@.@.",
"@.@.@.@.V V V A V w .       # V V V V V u @.@.@.",
"@.@.@.@.m m m m m 2 @.@.@.@.@.v V m m m y @.@.@.",
"@.@.@.@.n n n n n 7 @.@.@.@.@.c n n v n r @.@.@.",
"@.@.@.@.v c c c v 5 @.@.@.@.@.j c c c c r @.@.@.",
"@.@.@.@.l c l c c 2 @.@.@.@.@.j l c l c w @.@.@.",
"@.@.@.@.l l j j l 2 @.@.@.@.@.g l l j l 0 @.@.@.",
"@.@.@.@.g g g g g 1 @.@.@.@.@.d g g g g 9 @.@.@.",
"@.@.@.@.u d d d d > @.@.@.@.@.u d d d d ; @.@.@.",
"@.@.@.@.X O O O @ @.@.@.@.@.@.O O O @ o @.@.@.@.",
"@.@.@.@.@.@.@.@.@.@.@.@.@.@.@.@.@.@.@.@.@.@.@.@."
};
