/* XPM */
static char * applications_system_16x16_XPM[] = {
"16 16 72 1",
" 	c None",
".	c #CACACA",
"+	c #D7D7D7",
"@	c #CBCBCB",
"#	c #C5C5C5",
"$	c #C8C8C8",
"%	c #D0D0D0",
"&	c #D3D3D3",
"*	c #A7A7A7",
"=	c #B8B8B8",
"-	c #C9C9C9",
";	c #C6C6C6",
">	c #C0C0C0",
",	c #BEBEBE",
"'	c #C3C3C3",
")	c #C4C4C4",
"!	c #C7C7C7",
"~	c #B9B9B9",
"{	c #BABABA",
"]	c #303030",
"^	c #B5B5B5",
"/	c #BDBDBD",
"(	c #ADADAD",
"_	c #363636",
":	c #4C4C4C",
"<	c #B4B4B4",
"[	c #BCBCBC",
"}	c #9F9F9F",
"|	c #B7B7B7",
"1	c #171717",
"2	c #6B6B6B",
"3	c #A9A9A9",
"4	c #A8A8A8",
"5	c #AFAFAF",
"6	c #9B9B9B",
"7	c #595959",
"8	c #151515",
"9	c #9C9C9C",
"0	c #ACACAC",
"a	c #8E8E8E",
"b	c #939393",
"c	c #959595",
"d	c #979797",
"e	c #A3A3A3",
"f	c #A6A6A6",
"g	c #A2A2A2",
"h	c #A1A1A1",
"i	c #A0A0A0",
"j	c #464646",
"k	c #797979",
"l	c #4D4D4D",
"m	c #818181",
"n	c #9D9D9D",
"o	c #999999",
"p	c #717171",
"q	c #989898",
"r	c #929292",
"s	c #9E9E9E",
"t	c #858585",
"u	c #444444",
"v	c #777777",
"w	c #8F8F8F",
"x	c #888888",
"y	c #333333",
"z	c #000000",
"A	c #3C3C3C",
"B	c #666666",
"C	c #7E7E7E",
"D	c #919191",
"E	c #131313",
"F	c #2F2F2F",
"G	c #424242",
"                ",
"       .++@     ",
"   #   $%&*     ",
"  =.-;...@>     ",
"  ,''')!;''~ {  ",
"  ]^//(_:<[///{ ",
"   }|{1  2{^|=3 ",
"  4(56   7^53:8 ",
" 94405a  b34c   ",
" defgghiheggi   ",
" jklmn9999n99o  ",
"     pqrdstqou  ",
"     vawxyzAB   ",
"     CDak       ",
"     zEFG       ",
"                "};
