/* XPM */
static char * arch_haskell_16x16_xpm[] = {
"16 16 28 1",
" 	c None",
".	c #4A5356",
"+	c #586063",
"@	c #4B5457",
"#	c #545D5F",
"$	c #4E575A",
"%	c #676E71",
"&	c #565E61",
"*	c #545C60",
"=	c #525B5E",
"-	c #5E6669",
";	c #5C6567",
">	c #5A6264",
",	c #565F61",
"'	c #646B6E",
")	c #62696C",
"!	c #60686A",
"~	c #5C6467",
"{	c #656D70",
"]	c #6A7174",
"^	c #697073",
"/	c #5A6265",
"(	c #596164",
"_	c #5B6366",
":	c #70787A",
"<	c #4A5457",
"[	c #50585B",
"}	c #4D5659",
"                ",
"       .+       ",
"       @#       ",
"       $@%      ",
"      &*=-      ",
"      ;>+,      ",
"     ')!-~{     ",
"     ]^-/(_     ",
"    :(<.@@.[    ",
"    @   @@@@}   ",
"   @@@  @  @@   ",
"  @@@@   @ @@@  ",
"  @@@@    @@@@  ",
" @@@@      @@@@ ",
" @@          @@ ",
"                "};
