/* XPM */
static char * arch_haskell_18x18_xpm[] = {
"18 18 36 1",
" 	c None",
".	c #4A5356",
"+	c #576063",
"@	c #4B5457",
"#	c #535C5F",
"$	c #4C5558",
"%	c #6C7275",
"&	c #535B5E",
"*	c #515A5D",
"=	c #4E575A",
"-	c #5B6366",
";	c #565E62",
">	c #545D60",
",	c #555D60",
"'	c #5F6669",
")	c #5D6568",
"!	c #5B6365",
"~	c #5A6265",
"{	c #586063",
"]	c #697073",
"^	c #646B6E",
"/	c #636B6D",
"(	c #61696B",
"_	c #5F676A",
":	c #5C6467",
"<	c #6B7376",
"[	c #6A7274",
"}	c #686E71",
"|	c #575F62",
"1	c #575E61",
"2	c #596164",
"3	c #697174",
"4	c #575F61",
"5	c #495154",
"6	c #596264",
"7	c #485154",
"                  ",
"        .+        ",
"        @#        ",
"        $$%       ",
"       &*=-       ",
"       +;>,       ",
"      ')!~{]      ",
"      ^/(_):      ",
"     <[}:|123     ",
"     [4..@@.5     ",
"    67  @@@@@$    ",
"    @@ @ @@@@@@   ",
"   @@@@   @ @@@   ",
"  @@@@@      @@   ",
"  @@@@ @ @ @@@@@  ",
" @@@@        @@@@ ",
" @@            @@ ",
"                  "};
