/* XPM */
static char * arch_ 16x18_xpm[] = {
"16 16 107 2",
"  	c None",
". 	c #0C4663",
"+ 	c #0B3D58",
"@ 	c #0E597F",
"# 	c #106690",
"$ 	c #072637",
"% 	c #0A334A",
"& 	c #0F5B82",
"* 	c #116B97",
"= 	c #0B3D57",
"- 	c #0C4969",
"; 	c #0D5173",
"> 	c #0A4561",
", 	c #10618A",
"' 	c #082B3E",
") 	c #10648E",
"! 	c #0C4B6B",
"~ 	c #072738",
"{ 	c #0F648E",
"] 	c #0A3B53",
"^ 	c #0D4E70",
"/ 	c #116E9E",
"( 	c #126C9A",
"_ 	c #0B4764",
": 	c #0A425F",
"< 	c #0E5376",
"[ 	c #092F44",
"} 	c #116C9A",
"| 	c #0A405B",
"1 	c #106590",
"2 	c #0E5C81",
"3 	c #082D3F",
"4 	c #0F5F87",
"5 	c #093146",
"6 	c #0D4C6D",
"7 	c #062737",
"8 	c #07293B",
"9 	c #0D567A",
"0 	c #0C4D6F",
"a 	c #082E42",
"b 	c #0E5D84",
"c 	c #093951",
"d 	c #0D577A",
"e 	c #0F5A81",
"f 	c #09364E",
"g 	c #08344B",
"h 	c #106B99",
"i 	c #093249",
"j 	c #0C4562",
"k 	c #0E587E",
"l 	c #0E587D",
"m 	c #0D5174",
"n 	c #0C496A",
"o 	c #106691",
"p 	c #0B4F6F",
"q 	c #0F5C83",
"r 	c #082D40",
"s 	c #106795",
"t 	c #08364C",
"u 	c #116A97",
"v 	c #08293A",
"w 	c #072433",
"x 	c #0F5B80",
"y 	c #106995",
"z 	c #0A3A51",
"A 	c #0E5A80",
"B 	c #0A425C",
"C 	c #0F5E87",
"D 	c #0B435F",
"E 	c #0D5477",
"F 	c #116A98",
"G 	c #1274A5",
"H 	c #0A374F",
"I 	c #106893",
"J 	c #082F43",
"K 	c #0A4460",
"L 	c #0F6089",
"M 	c #0B4562",
"N 	c #106C9A",
"O 	c #0C4C6C",
"P 	c #10628C",
"Q 	c #092F43",
"R 	c #0D5274",
"S 	c #0F6792",
"T 	c #106792",
"U 	c #0B4663",
"V 	c #0A3046",
"W 	c #082E41",
"X 	c #0B4462",
"Y 	c #116B98",
"Z 	c #10608A",
"` 	c #0E577B",
" .	c #062332",
"..	c #0A354B",
"+.	c #116997",
"@.	c #0F6088",
"#.	c #0B415B",
"$.	c #072535",
"%.	c #072536",
"&.	c #0A3B56",
"*.	c #0F5D84",
"=.	c #1373A4",
"-.	c #0A3952",
";.	c #0A3C55",
">.	c #0C4360",
",.	c #082A3C",
"'.	c #0B405B",
"              . +               ",
"              @ # $             ",
"            % & * =             ",
"            - ; > ,             ",
"          ' ) ! ~ { ]           ",
"          ^ / ( _ : <           ",
"        [ } | 1 2 3 4 5         ",
"        6 ;   7 8   9 0         ",
"      a b c   d e f g h i       ",
"      j k   l m n o   p q       ",
"    r s | t u v w x > | y z     ",
"    < A   B C     D E F G ^     ",
"  H I J K ) L     M N O 9 P Q   ",
"  R 9 S T U V     W X 1 Y Z `  .",
"..+.@.#.$.            %.&.*.=.-.",
";.>.,.                      '.. "};
