/* XPM */
static char *_487619848960[] = {
/* columns rows colors chars-per-pixel */
"128 128 46 1 ",
"  c #747474",
". c gray46",
"X c #767676",
"o c #777777",
"O c gray47",
"+ c #797979",
"@ c gray48",
"# c #7B7B7B",
"$ c #7C7C7C",
"% c gray49",
"& c #7E7E7E",
"* c gray50",
"= c #808080",
"- c #818181",
"; c gray51",
": c #838383",
"> c #848484",
", c gray52",
"< c #868686",
"1 c gray53",
"2 c #888888",
"3 c #898989",
"4 c gray54",
"5 c #8B8B8B",
"6 c gray55",
"7 c #8D8D8D",
"8 c #8E8E8E",
"9 c gray56",
"0 c #909090",
"q c gray57",
"w c #929292",
"e c #939393",
"r c gray58",
"t c #959595",
"y c gray59",
"u c #979797",
"i c #989898",
"p c gray60",
"a c #9A9A9A",
"s c #9B9B9B",
"d c gray61",
"f c #9D9D9D",
"g c gray62",
"h c #9F9F9F",
"j c #A0A0A0",
"k c None",
/* pixels */
"kkkkkkkkkkkkkkkkkkkkkkkkkkkkkkkkkkkkkkkkkkkkkkkkkkkkkkkkkkkkkkkkkkkkkkkkkkkkkkkkkkkkkkkkkkkkkkkkkkkkkkkkkkkkkkkkkkkkkkkkkkkkkkkk",
"kkkkkkkkkkkkkkkkkkkkkkkkkkkkkkkkkkkkkkkkkkkkkkkkkkkkkkkkkkkkkkk.%kkkkkkkkkkkkkkkkkkkkkkkkkkkkkkkkkkkkkkkkkkkkkkkkkkkkkkkkkkkkkkk",
"kkkkkkkkkkkkkkkkkkkkkkkkkkkkkkkkkkkkkkkkkkkkkkkkkkkkkkkkkkkkkkk.%kkkkkkkkkkkkkkkkkkkkkkkkkkkkkkkkkkkkkkkkkkkkkkkkkkkkkkkkkkkkkkk",
"kkkkkkkkkkkkkkkkkkkkkkkkkkkkkkkkkkkkkkkkkkkkkkkkkkkkkkkkkkkkkkk.O1kkkkkkkkkkkkkkkkkkkkkkkkkkkkkkkkkkkkkkkkkkkkkkkkkkkkkkkkkkkkkk",
"kkkkkkkkkkkkkkkkkkkkkkkkkkkkkkkkkkkkkkkkkkkkkkkkkkkkkkkkkkkkkk...2kkkkkkkkkkkkkkkkkkkkkkkkkkkkkkkkkkkkkkkkkkkkkkkkkkkkkkkkkkkkkk",
"kkkkkkkkkkkkkkkkkkkkkkkkkkkkkkkkkkkkkkkkkkkkkkkkkkkkkkkkkkkkkk.. 1kkkkkkkkkkkkkkkkkkkkkkkkkkkkkkkkkkkkkkkkkkkkkkkkkkkkkkkkkkkkkk",
"kkkkkkkkkkkkkkkkkkkkkkkkkkkkkkkkkkkkkkkkkkkkkkkkkkkkkkkkkkkkk....%2kkkkkkkkkkkkkkkkkkkkkkkkkkkkkkkkkkkkkkkkkkkkkkkkkkkkkkkkkkkkk",
"kkkkkkkkkkkkkkkkkkkkkkkkkkkkkkkkkkkkkkkkkkkkkkkkkkkkkkkkkkkkk.....7kkkkkkkkkkkkkkkkkkkkkkkkkkkkkkkkkkkkkkkkkkkkkkkkkkkkkkkkkkkkk",
"kkkkkkkkkkkkkkkkkkkkkkkkkkkkkkkkkkkkkkkkkkkkkkkkkkkkkkkkkkkkk.....21kkkkkkkkkkkkkkkkkkkkkkkkkkkkkkkkkkkkkkkkkkkkkkkkkkkkkkkkkkkk",
"kkkkkkkkkkkkkkkkkkkkkkkkkkkkkkkkkkkkkkkkkkkkkkkkkkkkkkkkkkkk..... 17kkkkkkkkkkkkkkkkkkkkkkkkkkkkkkkkkkkkkkkkkkkkkkkkkkkkkkkkkkkk",
"kkkkkkkkkkkkkkkkkkkkkkkkkkkkkkkkkkkkkkkkkkkkkkkkkkkkkkkkkkkk......%7kkkkkkkkkkkkkkkkkkkkkkkkkkkkkkkkkkkkkkkkkkkkkkkkkkkkkkkkkkkk",
"kkkkkkkkkkkkkkkkkkkkkkkkkkkkkkkkkkkkkkkkkkkkkkkkkkkkkkkkkkk........72kkkkkkkkkkkkkkkkkkkkkkkkkkkkkkkkkkkkkkkkkkkkkkkkkkkkkkkkkkk",
"kkkkkkkkkkkkkkkkkkkkkkkkkkkkkkkkkkkkkkkkkkkkkkkkkkkkkkkkkkk........17kkkkkkkkkkkkkkkkkkkkkkkkkkkkkkkkkkkkkkkkkkkkkkkkkkkkkkkkkkk",
"kkkkkkkkkkkkkkkkkkkkkkkkkkkkkkkkkkkkkkkkkkkkkkkkkkkkkkkkkkk....... %72kkkkkkkkkkkkkkkkkkkkkkkkkkkkkkkkkkkkkkkkkkkkkkkkkkkkkkkkkk",
"kkkkkkkkkkkkkkkkkkkkkkkkkkkkkkkkkkkkkkkkkkkkkkkkkkkkkkkkkk..........77kkkkkkkkkkkkkkkkkkkkkkkkkkkkkkkkkkkkkkkkkkkkkkkkkkkkkkkkkk",
"kkkkkkkkkkkkkkkkkkkkkkkkkkkkkkkkkkkkkkkkkkkkkkkkkkkkkkkkkk..........227kkkkkkkkkkkkkkkkkkkkkkkkkkkkkkkkkkkkkkkkkkkkkkkkkkkkkkkkk",
"kkkkkkkkkkkkkkkkkkkkkkkkkkkkkkkkkkkkkkkkkkkkkkkkkkkkkkkkk..O........:72kkkkkkkkkkkkkkkkkkkkkkkkkkkkkkkkkkkkkkkkkkkkkkkkkkkkkkkkk",
"kkkkkkkkkkkkkkkkkkkkkkkkkkkkkkkkkkkkkkkkkkkkkkkkkkkkkkkkkOOOOOO.....O77kkkkkkkkkkkkkkkkkkkkkkkkkkkkkkkkkkkkkkkkkkkkkkkkkkkkkkkkk",
"kkkkkkkkkkkkkkkkkkkkkkkkkkkkkkkkkkkkkkkkkkkkkkkkkkkkkkkkOOOOOOOOOO...277kkkkkkkkkkkkkkkkkkkkkkkkkkkkkkkkkkkkkkkkkkkkkkkkkkkkkkkk",
"kkkkkkkkkkkkkkkkkkkkkkkkkkkkkkkkkkkkkkkkkkkkkkkkkkkkkkkkOOOOOOOO.OO.O%77kkkkkkkkkkkkkkkkkkkkkkkkkkkkkkkkkkkkkkkkkkkkkkkkkkkkkkkk",
"kkkkkkkkkkkkkkkkkkkkkkkkkkkkkkkkkkkkkkkkkkkkkkkkkkkkkkkkOOOOOOOOOOOO.O777kkkkkkkkkkkkkkkkkkkkkkkkkkkkkkkkkkkkkkkkkkkkkkkkkkkkkkk",
"kkkkkkkkkkkkkkkkkkkkkkkkkkkkkkkkkkkkkkkkkkkkkkkkkkkkkkkOO%O%%OOOOOOOOO277kkkkkkkkkkkkkkkkkkkkkkkkkkkkkkkkkkkkkkkkkkkkkkkkkkkkkkk",
"kkkkkkkkkkkkkkkkkkkkkkkkkkkkkkkkkkkkkkkkkkkkkkkkkkkkkkkOO%%OOOO%OOO%OO:777kkkkkkkkkkkkkkkkkkkkkkkkkkkkkkkkkkkkkkkkkkkkkkkkkkkkkk",
"kkkkkkkkkkkkkkkkkkkkkkkkkkkkkkkkkkkkkkkkkkkkkkkkkkkkkkO%%%O%%%OOO%OOOOO777kkkkkkkkkkkkkkkkkkkkkkkkkkkkkkkkkkkkkkkkkkkkkkkkkkkkkk",
"kkkkkkkkkkkkkkkkkkkkkkkkkkkkkkkkkkkkkkkkkkkkkkkkkkkkkk%%%O%O%%%OOOO%OOO1777kkkkkkkkkkkkkkkkkkkkkkkkkkkkkkkkkkkkkkkkkkkkkkkkkkkkk",
"kkkkkkkkkkkkkkkkkkkkkkkkkkkkkkkkkkkkkkkkkkkkkkkkkkkkkk%%%%%%O%%O%%%O%O%:e7ekkkkkkkkkkkkkkkkkkkkkkkkkkkkkkkkkkkkkkkkkkkkkkkkkkkkk",
"kkkkkkkkkkkkkkkkkkkkkkkkkkkkkkkkkkkkkkkkkkkkkkkkkkkkkO:%%%%%%%%%%O%O%OO%2e7kkkkkkkkkkkkkkkkkkkkkkkkkkkkkkkkkkkkkkkkkkkkkkkkkkkkk",
"kkkkkkkkkkkkkkkkkkkkkkkkkkkkkkkkkkkkkkkkkkkkkkkkkkkkk:%%:%%%%%%%%%%%%O%O1e7ekkkkkkkkkkkkkkkkkkkkkkkkkkkkkkkkkkkkkkkkkkkkkkkkkkkk",
"kkkkkkkkkkkkkkkkkkkkkkkkkkkkkkkkkkkkkkkkkkkkkkkkkkkk%%:%:%%%:%%%%%%%%%O%%e7ekkkkkkkkkkkkkkkkkkkkkkkkkkkkkkkkkkkkkkkkkkkkkkkkkkkk",
"kkkkkkkkkkkkkkkkkkkkkkkkkkkkkkkkkkkkkkkkkkkkkkkkkkkk:%%:%%:%%%%%%%%%%%%%O2eeekkkkkkkkkkkkkkkkkkkkkkkkkkkkkkkkkkkkkkkkkkkkkkkkkkk",
"kkkkkkkkkkkkkkkkkkkkkkkkkkkkkkkkkkkkkkkkkkkkkkkkkkk%:%:%%:%:%:%::%:%%%%%%:ee7kkkkkkkkkkkkkkkkkkkkkkkkkkkkkkkkkkkkkkkkkkkkkkkkkkk",
"kkkkkkkkkkkkkkkkkkkkkkkkkkkkkkkkkkkkkkkkkkkkkkkkkkk::::::%:%:%%%%%%%%%:%%%7ee7kkkkkkkkkkkkkkkkkkkkkkkkkkkkkkkkkkkkkkkkkkkkkkkkkk",
"kkkkkkkkkkkkkkkkkkkkkkkkkkkkkkkkkkkkkkkkkkkkkkkkkk%::::::::%%%:::%%%%:%%%%1eeekkkkkkkkkkkkkkkkkkkkkkkkkkkkkkkkkkkkkkkkkkkkkkkkkk",
"kkkkkkkkkkkkkkkkkkkkkkkkkkkkkkkkkkkkkkkkkkkkkkkkkk::::::%::::::%:%::%%:%:%%eee7kkkkkkkkkkkkkkkkkkkkkkkkkkkkkkkkkkkkkkkkkkkkkkkkk",
"kkkkkkkkkkkkkkkkkkkkkkkkkkkkkkkkkkkkkkkkkkkkkkkkk:::::::::::%:::%::%:%:%%%%2eeekkkkkkkkkkkkkkkkkkkkkkkkkkkkkkkkkkkkkkkkkkkkkkkkk",
"kkkkkkkkkkkkkkkkkkkkkkkkkkkkkkkkkkkkkkkkkkkkkkkkk:::1::::::::::::::%::%:%:%:eee7kkkkkkkkkkkkkkkkkkkkkkkkkkkkkkkkkkkkkkkkkkkkkkkk",
"kkkkkkkkkkkkkkkkkkkkkkkkkkkkkkkkkkkkkkkkkkkkkkkkk11:::1::::::::::::%::%%:%%:2ttekkkkkkkkkkkkkkkkkkkkkkkkkkkkkkkkkkkkkkkkkkkkkkkk",
"kkkkkkkkkkkkkkkkkkkkkkkkkkkkkkkkkkkkkkkkkkkkkkkkk11111:::::::::::::::::::::%1ttt7kkkkkkkkkkkkkkkkkkkkkkkkkkkkkkkkkkkkkkkkkkkkkkk",
"kkkkkkkkkkkkkkkkkkkkkkkkkkkkkkkkkkkkkkkkkkkkkkkkkk1111111:::::1:::::::::%:::%7ttekkkkkkkkkkkkkkkkkkkkkkkkkkkkkkkkkkkkkkkkkkkkkkk",
"kkkkkkkkkkkkkkkkkkkkkkkkkkkkkkkkkkkkkkkkkkkkkkkkkkk1111111111::::1:::::::::::1tat2kkkkkkkkkkkkkkkkkkkkkkkkkkkkkkkkkkkkkkkkkkkkkk",
"kkkkkkkkkkkkkkkkkkkkkkkkkkkkkkkkkkkkkkkkkkkkkkkkkkkk2111111111:1::::::::::::::7ttekkkkkkkkkkkkkkkkkkkkkkkkkkkkkkkkkkkkkkkkkkkkkk",
"kkkkkkkkkkkkkkkkkkkkkkkkkkkkkkkkkkkkkkkkkkkkkk21kkkkk12111111111111:1:::::::::1ttt7kkkkkkkkkkkkkkkkkkkkkkkkkkkkkkkkkkkkkkkkkkkkk",
"kkkkkkkkkkkkkkkkkkkkkkkkkkkkkkkkkkkkkkkkkkkkkk222kkkkk1212111111111::11:::1::::eatekkkkkkkkkkkkkkkkkkkkkkkkkkkkkkkkkkkkkkkkkkkkk",
"kkkkkkkkkkkkkkkkkkkkkkkkkkkkkkkkkkkkkkkkkkkkk277722kkkk22211111211111:111::::::1tatkkkkkkkkkkkkkkkkkkkkkkkkkkkkkkkkkkkkkkkkkkkkk",
"kkkkkkkkkkkkkkkkkkkkkkkkkkkkkkkkkkkkkkkkkkkkk7277727kkkkk22222221111111111::::::etatkkkkkkkkkkkkkkkkkkkkkkkkkkkkkkkkkkkkkkkkkkkk",
"kkkkkkkkkkkkkkkkkkkkkkkkkkkkkkkkkkkkkkkkkkkk2727277227kkkk2272222222111111111:1:2attkkkkkkkkkkkkkkkkkkkkkkkkkkkkkkkkkkkkkkkkkkkk",
"kkkkkkkkkkkkkkkkkkkkkkkkkkkkkkkkkkkkkkkkkkkk777777777722kkk2722222222111111111111eaatkkkkkkkkkkkkkkkkkkkkkkkkkkkkkkkkkkkkkkkkkkk",
"kkkkkkkkkkkkkkkkkkkkkkkkkkkkkkkkkkkkkkkkkkk77777772772777kkk2272222221111111111111aatkkkkkkkkkkkkkkkkkkkkkkkkkkkkkkkkkkkkkkkkkkk",
"kkkkkkkkkkkkkkkkkkkkkkkkkkkkkkkkkkkkkkkkkkke777777777277772kkk72727222722222222211eaaekkkkkkkkkkkkkkkkkkkkkkkkkkkkkkkkkkkkkkkkkk",
"kkkkkkkkkkkkkkkkkkkkkkkkkkkkkkkkkkkkkkkkkk777e777ee77777277772k77227272272222221121aaakkkkkkkkkkkkkkkkkkkkkkkkkkkkkkkkkkkkkkkkkk",
"kkkkkkkkkkkkkkkkkkkkkkkkkkkkkkkkkkkkkkkkkk7ee77e77e77777777777222272722222222222222eaaekkkkkkkkkkkkkkkkkkkkkkkkkkkkkkkkkkkkkkkkk",
"kkkkkkkkkkkkkkkkkkkkkkkkkkkkkkkkkkkkkkkkk7ee7ee7e777e7e77777777777772777277272222222aaakkkkkkkkkkkkkkkkkkkkkkkkkkkkkkkkkkkkkkkkk",
"kkkkkkkkkkkkkkkkkkkkkkkkkkkkkkkkkkkkkkkkke77eee77e7e77e7e7777777777277722772222727227adtkkkkkkkkkkkkkkkkkkkkkkkkkkkkkkkkkkkkkkkk",
"kkkkkkkkkkkkkkkkkkkkkkkkkkkkkkkkkkkkkkkkeeee77eee7e7e77e777ee777777777727727772222222addkkkkkkkkkkkkkkkkkkkkkkkkkkkkkkkkkkkkkkkk",
"kkkkkkkkkkkkkkkkkkkkkkkkkkkkkkkkkkkkkkkkeeeeee7ee7ee7ee77ee77e777777777777722777277277ddtkkkkkkkkkkkkkkkkkkkkkkkkkkkkkkkkkkkkkkk",
"kkkkkkkkkkkkkkkkkkkkkkkkkkkkkkkkkkkkkkkteeeeeeeeee7eee7ee7e7e7e7e7e7777777777772772722add7kkkkkkkkkkkkkkkkkkkkkkkkkkkkkkkkkkkkkk",
"kkkkkkkkkkkkkkkkkkkkkkkkkkkkkkkkkkkkkkkttttteeeeeee77eeeee7e7e77e77e7e77777777777722727djtkkkkkkkkkkkkkkkkkkkkkkkkkkkkkkkkkkkkkk",
"kkkkkkkkkkkkkkkkkkkkkkkkkkkkkkkkkkkkkkttttttttteeeeeeee77e7ee7ee77e777e7777777777777772edd7kkkkkkkkkkkkkkkkkkkkkkkkkkkkkkkkkkkkk",
"kkkkkkkkkkkkkkkkkkkkkkkkkkkkkkkkkkkkkktatttttttteteeeeeee7eeeee7ee7ee7e7e777777777727727ddakkkkkkkkkkkkkkkkkkkkkkkkkkkkkkkkkkkkk",
"kkkkkkkkkkkkkkkkkkkkkkkkkkkkkkkkkkkkkttttttttttttttteeeeeeeee7ee7ee7ee7e7ee7e7e777777777ejdekkkkkkkkkkkkkkkkkkkkkkkkkkkkkkkkkkkk",
"kkkkkkkkkkkkkkkkkkkkkkkkkkkkkkkkkkkkkaatattttttttttttttteeeeeeeee7722111127777e77e7e77777tjakkkkkkkkkkkkkkkkkkkkkkkkkkkkkkkkkkkk",
"kkkkkkkkkkkkkkkkkkkkkkkkkkkkkkkkkkkktttataatatttttttttttttt72:%O..............O%:22777e777dj7kkkkkkkkkkkkkkkkkkkkkkkkkkkkkkkkkkk",
"kkkkkkkkkkkkkkkkkkkkkkkkkkkkkkkkkkkkaaatataattttttttttt71%..........................%:2777tjdkkkkkkkkkkkkkkkkkkkkkkkkkkkkkkkkkkk",
"kkkkkkkkkkkkkkkkkkkkkkkkkkkkkkkkkkkaaaaaaaataaaaatta71O.................................%12ajekkkkkkkkkkkkkkkkkkkkkkkkkkkkkkkkkk",
"kkkkkkkkkkkkkkkkkkkkkkkkkkkkkkkkkktaaaaaaaaaaataat2O.......................................%takkkkkkkkkkkkkkkkkkkkkkkkkkkkkkkkkk",
"kkkkkkkkkkkkkkkkkkkkkkkkkkkkkkkkkkadadaaaaaaaaa7%...........................................O72kkkkkkkkkkkkkkkkkkkkkkkkkkkkkkkkk",
"kkkkkkkkkkkkkkkkkkkkkkkkkkkkkkkkktdadaadaaaat7%..............................................17kkkkkkkkkkkkkkkkkkkkkkkkkkkkkkkkk",
"kkkkkkkkkkkkkkkkkkkkkkkkkkkkkkkkkdadadaaaaa7O................................................O22kkkkkkkkkkkkkkkkkkkkkkkkkkkkkkkk",
"kkkkkkkkkkkkkkkkkkkkkkkkkkkkkkkkaaadadaaa2%...................................................%2kkkkkkkkkkkkkkkkkkkkkkkkkkkkkkkk",
"kkkkkkkkkkkkkkkkkkkkkkkkkkkkkkkkaadadade%......................................................12kkkkkkkkkkkkkkkkkkkkkkkkkkkkkkk",
"kkkkkkkkkkkkkkkkkkkkkkkkkkkkkkkadaadae%........................................................O7kkkkkkkkkkkkkkkkkkkkkkkkkkkkkkk",
"kkkkkkkkkkkkkkkkkkkkkkkkkkkkkkkaaddt1...........................................................O2kkkkkkkkkkkkkkkkkkkkkkkkkkkkkk",
"kkkkkkkkkkkkkkkkkkkkkkkkkkkkkkaada2O.............................................................:kkkkkkkkkkkkkkkkkkkkkkkkkkkkkk",
"kkkkkkkkkkkkkkkkkkkkkkkkkkkkkkda7O................................................................1kkkkkkkkkkkkkkkkkkkkkkkkkkkkk",
"kkkkkkkkkkkkkkkkkkkkkkkkkkkkkae%...................................................................kkkkkkkkkkkkkkkkkkkkkkkkkkkkk",
"kkkkkkkkkkkkkkkkkkkkkkkkkkkkk1..............................kkkkkkkk...............................Okkkkkkkkkkkkkkkkkkkkkkkkkkkk",
"kkkkkkkkkkkkkkkkkkkkkkkkkkkk..............................kkkkkkkkkkkk..............................kkkkkkkkkkkkkkkkkkkkkkkkkkkk",
"kkkkkkkkkkkkkkkkkkkkkkkkkkkk.............................kkkkkkkkkkkkkk..............................kkkkkkkkkkkkkkkkkkkkkkkkkkk",
"kkkkkkkkkkkkkkkkkkkkkkkkkkk.............................kkkkkkkkkkkkkkkk.............................kkkkkkkkkkkkkkkkkkkkkkkkkkk",
"kkkkkkkkkkkkkkkkkkkkkkkkkkk............................kkkkkkkkkkkkkkkkkk.............................kkkkkkkkkkkkkkkkkkkkkkkkkk",
"kkkkkkkkkkkkkkkkkkkkkkkkkk.............................kkkkkkkkkkkkkkkkkkk............................kkkkkkkkkkkkkkkkkkkkkkkkkk",
"kkkkkkkkkkkkkkkkkkkkkkkkk.............................kkkkkkkkkkkkkkkkkkkk.............................kkkkkkkkkkkkkkkkkkkkkkkkk",
"kkkkkkkkkkkkkkkkkkkkkkkkk............................kkkkkkkkkkkkkkkkkkkkkk.............................kkkkkkkkkkkkkkkkkkkkkkkk",
"kkkkkkkkkkkkkkkkkkkkkkkk.............................kkkkkkkkkkkkkkkkkkkkkk.............................kkkkkkkkkkkkkkkkkkkkkkkk",
"kkkkkkkkkkkkkkkkkkkkkkkk............................kkkkkkkkkkkkkkkkkkkkkkkk.............................kkkkkkkkkkkkkkkkkkkkkkk",
"kkkkkkkkkkkkkkkkkkkkkkk.............................kkkkkkkkkkkkkkkkkkkkkkkk.............................kkkkkkkkkkkkkkkkkkkkkkk",
"kkkkkkkkkkkkkkkkkkkkkkk.............................kkkkkkkkkkkkkkkkkkkkkkkkk.............................kkkkkkkkkkkkkkkkkkkkkk",
"kkkkkkkkkkkkkkkkkkkkkk.............................kkkkkkkkkkkkkkkkkkkkkkkkkk.............................kkkkkkkkkkkkkkkkkkkkkk",
"kkkkkkkkkkkkkkkkkkkkkk.............................kkkkkkkkkkkkkkkkkkkkkkkkkk..............................kkkkkkkkkkkkkkkkkkkkk",
"kkkkkkkkkkkkkkkkkkkkk..............................kkkkkkkkkkkkkkkkkkkkkkkkkkk.............................kkkkkkkkkkkkkkkkkkkkk",
"kkkkkkkkkkkkkkkkkkkkk..............................kkkkkkkkkkkkkkkkkkkkkkkkkkk..............................kkkkkkkkkkkkkkkkkkkk",
"kkkkkkkkkkkkkkkkkkkk..............................kkkkkkkkkkkkkkkkkkkkkkkkkkkk..............................kkkkkkkkkkkkkkkkkkkk",
"kkkkkkkkkkkkkkkkkkkk..............................kkkkkkkkkkkkkkkkkkkkkkkkkkkk...............................kkkkkkkkkkkkkkkkkkk",
"kkkkkkkkkkkkkkkkkkk...............................kkkkkkkkkkkkkkkkkkkkkkkkkkkk...................k...........kkkkkkkkkkkkkkkkkkk",
"kkkkkkkkkkkkkkkkkk................................kkkkkkkkkkkkkkkkkkkkkkkkkkkkk...................kkk.........kkkkkkkkkkkkkkkkkk",
"kkkkkkkkkkkkkkkkkk................................kkkkkkkkkkkkkkkkkkkkkkkkkkkkk.....................kkkk......kkkkkkkkkkkkkkkkkk",
"kkkkkkkkkkkkkkkkk.................................kkkkkkkkkkkkkkkkkkkkkkkkkkkkk.......................kkkk.....kkkkkkkkkkkkkkkkk",
"kkkkkkkkkkkkkkkkk.................................kkkkkkkkkkkkkkkkkkkkkkkkkkkkk........................kkkkkk...kkkkkkkkkkkkkkkk",
"kkkkkkkkkkkkkkkk..................................kkkkkkkkkkkkkkkkkkkkkkkkkkkkk..........................kkkkkk.kkkkkkkkkkkkkkkk",
"kkkkkkkkkkkkkkkk..................................kkkkkkkkkkkkkkkkkkkkkkkkkkkkk...........................kkkkkkkkkkkkkkkkkkkkkk",
"kkkkkkkkkkkkkkk...................................kkkkkkkkkkkkkkkkkkkkkkkkkkkkk.............................kkkkkkkkkkkkkkkkkkkk",
"kkkkkkkkkkkkkkk...................................kkkkkkkkkkkkkkkkkkkkkkkkkkkkk..............................kkkkkkkkkkkkkkkkkkk",
"kkkkkkkkkkkkkk....................................kkkkkkkkkkkkkkkkkkkkkkkkkkkkk...............................kkkkkkkkkkkkkkkkkk",
"kkkkkkkkkkkkkk....................................kkkkkkkkkkkkkkkkkkkkkkkkkkkk..................................kkkkkkkkkkkkkkkk",
"kkkkkkkkkkkkk.....................................kkkkkkkkkkkkkkkkkkkkkkkkkkkk...................................kkkkkkkkkkkkkkk",
"kkkkkkkkkkkk.......................................kkkkkkkkkkkkkkkkkkkkkkkkkkk....................................kkkkkkkkkkkkkk",
"kkkkkkkkkkkk......................................kkkkkkkkkkkkkkkkkkkkkkkkkkkk.....................................kkkkkkkkkkkkk",
"kkkkkkkkkkk..................................kkkkkkkkkkkkkkkkkkkkkkkkkkkkkkkkkkkkkk..................................kkkkkkkkkkk",
"kkkkkkkkkkk...............................kkkkkkkkkkkkkkkkkkkkkkkkkkkkkkkkkkkkkkkkkkkk...............................kkkkkkkkkkk",
"kkkkkkkkkk.............................kkkkkkkkkkkkkkkkkkkkkkkkkkkkkkkkkkkkkkkkkkkkkkkkkk.............................kkkkkkkkkk",
"kkkkkkkkkk..........................kkkkkkkkkkkkkkkkkkkkkkkkkkkkkkkkkkkkkkkkkkkkkkkkkkkkkkkk...........................kkkkkkkkk",
"kkkkkkkkk........................kkkkkkkkkkkkkkkkkkkkkkkkkkkkkkkkkkkkkkkkkkkkkkkkkkkkkkkkkkkkkk........................kkkkkkkkk",
"kkkkkkkkk......................kkkkkkkkkkkkkkkkkkkkkkkkkkkkkkkkkkkkkkkkkkkkkkkkkkkkkkkkkkkkkkkkkk.......................kkkkkkkk",
"kkkkkkkk....................kkkkkkkkkkkkkkkkkkkkkkkkkkkkkkkkkkkkkkkkkkkkkkkkkkkkkkkkkkkkkkkkkkkkkkkk....................kkkkkkkk",
"kkkkkkk...................kkkkkkkkkkkkkkkkkkkkkkkkkkkkkkkkkkkkkkkkkkkkkkkkkkkkkkkkkkkkkkkkkkkkkkkkkkkk...................kkkkkkk",
"kkkkkkk.................kkkkkkkkkkkkkkkkkkkkkkkkkkkkkkkkkkkkkkkkkkkkkkkkkkkkkkkkkkkkkkkkkkkkkkkkkkkkkkkk.................kkkkkkk",
"kkkkkk................kkkkkkkkkkkkkkkkkkkkkkkkkkkkkkkkkkkkkkkkkkkkkkkkkkkkkkkkkkkkkkkkkkkkkkkkkkkkkkkkkkkk................kkkkkk",
"kkkkkk..............kkkkkkkkkkkkkkkkkkkkkkkkkkkkkkkkkkkkkkkkkkkkkkkkkkkkkkkkkkkkkkkkkkkkkkkkkkkkkkkkkkkkkkkk..............kkkkkk",
"kkkkk.............kkkkkkkkkkkkkkkkkkkkkkkkkkkkkkkkkkkkkkkkkkkkkkkkkkkkkkkkkkkkkkkkkkkkkkkkkkkkkkkkkkkkkkkkkkkk.............kkkkk",
"kkkkk...........kkkkkkkkkkkkkkkkkkkkkkkkkkkkkkkkkkkkkkkkkkkkkkkkkkkkkkkkkkkkkkkkkkkkkkkkkkkkkkkkkkkkkkkkkkkkkkkk...........kkkkk",
"kkkk..........kkkkkkkkkkkkkkkkkkkkkkkkkkkkkkkkkkkkkkkkkkkkkkkkkkkkkkkkkkkkkkkkkkkkkkkkkkkkkkkkkkkkkkkkkkkkkkkkkkkk..........kkkk",
"kkkk........kkkkkkkkkkkkkkkkkkkkkkkkkkkkkkkkkkkkkkkkkkkkkkkkkkkkkkkkkkkkkkkkkkkkkkkkkkkkkkkkkkkkkkkkkkkkkkkkkkkkkkkk........kkkk",
"kkk.......kkkkkkkkkkkkkkkkkkkkkkkkkkkkkkkkkkkkkkkkkkkkkkkkkkkkkkkkkkkkkkkkkkkkkkkkkkkkkkkkkkkkkkkkkkkkkkkkkkkkkkkkkkkk.......kkk",
"kk......kkkkkkkkkkkkkkkkkkkkkkkkkkkkkkkkkkkkkkkkkkkkkkkkkkkkkkkkkkkkkkkkkkkkkkkkkkkkkkkkkkkkkkkkkkkkkkkkkkkkkkkkkkkkkkkk......kk",
"kk....kkkkkkkkkkkkkkkkkkkkkkkkkkkkkkkkkkkkkkkkkkkkkkkkkkkkkkkkkkkkkkkkkkkkkkkkkkkkkkkkkkkkkkkkkkkkkkkkkkkkkkkkkkkkkkkkkkkk....kk",
"k...kkkkkkkkkkkkkkkkkkkkkkkkkkkkkkkkkkkkkkkkkkkkkkkkkkkkkkkkkkkkkkkkkkkkkkkkkkkkkkkkkkkkkkkkkkkkkkkkkkkkkkkkkkkkkkkkkkkkkkkk...k",
"k..kkkkkkkkkkkkkkkkkkkkkkkkkkkkkkkkkkkkkkkkkkkkkkkkkkkkkkkkkkkkkkkkkkkkkkkkkkkkkkkkkkkkkkkkkkkkkkkkkkkkkkkkkkkkkkkkkkkkkkkkkk..k",
"kkkkkkkkkkkkkkkkkkkkkkkkkkkkkkkkkkkkkkkkkkkkkkkkkkkkkkkkkkkkkkkkkkkkkkkkkkkkkkkkkkkkkkkkkkkkkkkkkkkkkkkkkkkkkkkkkkkkkkkkkkkkkkkk"
};
