/* XPM */
static char * arch_haskell_24x24_xpm[] = {
"24 24 55 1",
" 	c None",
".	c #4A5356",
"+	c #576063",
"@	c #4B5457",
"#	c #515A5D",
"$	c #4D5659",
"%	c #636B6E",
"&	c #4C5558",
"*	c #5B6466",
"=	c #50595C",
"-	c #4F585B",
";	c #575F62",
">	c #545D60",
",	c #545C5F",
"'	c #535C5F",
")	c #676E71",
"!	c #586063",
"~	c #555E61",
"{	c #535C5E",
"]	c #5E6669",
"^	c #5F6669",
"/	c #5E6668",
"(	c #5C6466",
"_	c #5B6365",
":	c #596164",
"<	c #565E61",
"[	c #6C7376",
"}	c #626A6D",
"|	c #61686B",
"1	c #60676A",
"2	c #5F6769",
"3	c #5D6568",
"4	c #5C6467",
"5	c #5A6265",
"6	c #5F676A",
"7	c #686F72",
"8	c #656C6F",
"9	c #636B6D",
"0	c #61696C",
"a	c #60686A",
"b	c #5F666A",
"c	c #6B7275",
"d	c #6B7376",
"e	c #6A7274",
"f	c #6B7174",
"g	c #576062",
"h	c #535B5E",
"i	c #525A5D",
"j	c #565F62",
"k	c #71787A",
"l	c #6D7476",
"m	c #4D575A",
"n	c #495255",
"o	c #5B6265",
"p	c #535B5F",
"                        ",
"           .+           ",
"           @#           ",
"           @$%          ",
"          &@&*          ",
"          =-$;          ",
"         >,'##)         ",
"          !;~{]         ",
"        ^/(_:!<[        ",
"        }|123456        ",
"       7)88%90abc       ",
"       def|ghi'j9       ",
"      kl2m..@@@.no      ",
"      %pn@@@@@@@@&      ",
"     $&@    @@@@@@@     ",
"     @@@    @@@@@@@     ",
"    @@@@@        @@@    ",
"    @@@@@        @@@    ",
"   @@@@@      @  @@@    ",
"  @@@@@@    @  @@@@@@   ",
"  @@@@@          @@@@@  ",
" @@@@              @@@@ ",
" @@                  @@ ",
"                        "};
