/* XPM */
static char * arch_mono_24x24_xpm[] = {
"24 24 38 1",
" 	c None",
".	c #747474",
"+	c #7F7F7F",
"@	c #757575",
"#	c #797979",
"$	c #787878",
"%	c #7C7C7C",
"&	c #7B7B7B",
"*	c #858585",
"=	c #808080",
"-	c #7D7D7D",
";	c #848484",
">	c #838383",
",	c #818181",
"'	c #909090",
")	c #868686",
"!	c #828282",
"~	c #8B8B8B",
"{	c #8C8C8C",
"]	c #898989",
"^	c #878787",
"/	c #959595",
"(	c #8F8F8F",
"_	c #8D8D8D",
":	c #8A8A8A",
"<	c #888888",
"[	c #949494",
"}	c #929292",
"|	c #919191",
"1	c #8E8E8E",
"2	c #989898",
"3	c #979797",
"4	c #7E7E7E",
"5	c #9B9B9B",
"6	c #777777",
"7	c #737373",
"8	c #7A7A7A",
"9	c #767676",
"                        ",
"           .+           ",
"           @#           ",
"           $$           ",
"          %&&*          ",
"          =+-;          ",
"         >>>,,'         ",
"          ));!~         ",
"        {{ ]^^*/        ",
"        '(__~:<_        ",
"       [[}}|'(1{/       ",
"       223_>4-4;(       ",
"      52:67.@@@.7,      ",
"      ~8.@@@@@@@@9      ",
"     6@@@@@  @@@@@@     ",
"     @@@@@    @@@@@     ",
"    @@@@@@    @@@@@@    ",
"    @@@@@      @@@@@    ",
"   @@@@@@      @@@@@    ",
"  @@@@@@@      @@@@@@   ",
"  @@@@@          @@@@@  ",
" @@@@              @@@@ ",
" @@                  @@ ",
"                        "};
