/* XPM */
static char *backward_16x16[] = {
/* columns rows colors chars-per-pixel */
"16 16 49 1 ",
"  c #676767",
". c #6F6F6F",
"X c #707070",
"o c #737373",
"O c #777777",
"+ c #7C7C7C",
"@ c #808080",
"# c #818181",
"$ c #868686",
"% c #878787",
"& c #8B8B8B",
"* c #8C8C8C",
"= c #909090",
"- c #919191",
"; c #929292",
": c #959595",
"> c #969696",
", c #989898",
"< c #9C9C9C",
"1 c #9D9D9D",
"2 c #9E9E9E",
"3 c #9F9F9F",
"4 c #A1A1A1",
"5 c #A2A2A2",
"6 c #A3A3A3",
"7 c #A4A4A4",
"8 c #A6A6A6",
"9 c #A9A9A9",
"0 c #AAAAAA",
"q c #ABABAB",
"w c #AFAFAF",
"e c #B0B0B0",
"r c #B2B2B2",
"t c #B3B3B3",
"y c #B4B4B4",
"u c #B5B5B5",
"i c #B6B6B6",
"p c #B9B9B9",
"a c #BCBCBC",
"s c #BDBDBD",
"d c #BEBEBE",
"f c #BFBFBF",
"g c #C0C0C0",
"h c #C1C1C1",
"j c #C2C2C2",
"k c #C6C6C6",
"l c #C8C8C8",
"z c #C9C9C9",
"x c None",
/* pixels */
"xxxxxxxxxxxxxxxx",
"xxxxxxxxxxxxxxxx",
"xxxxxxxxxxxxxxxx",
"xxxxxxxxxxxxxxxx",
"xxxxxxxlxxxxxxix",
"xxxxxfkkxxxxgzrx",
"xxxwpdhsxxtafj9x",
"xxqruiue,wyuii3x",
"xx>60qq7%28qqq:x",
"xxx+;<41xx@=25*x",
"xxxxxo$-xxx @&#x",
"xxxxxx .xxxxxXOx",
"xxxxxxxxxxxxxxxx",
"xxxxxxxxxxxxxxxx",
"xxxxxxxxxxxxxxxx",
"xxxxxxxxxxxxxxxx"
};
