/* XPM */
static char *_488210446247[] = {
/* columns rows colors chars-per-pixel */
"24 24 102 2 ",
"   c black",
".  c gray1",
"X  c #111111",
"o  c gray7",
"O  c #191919",
"+  c gray11",
"@  c #202020",
"#  c #232323",
"$  c gray14",
"%  c #353535",
"&  c gray21",
"*  c #3C3C3C",
"=  c gray24",
"-  c #3E3E3E",
";  c #3F3F3F",
":  c gray25",
">  c #414141",
",  c gray26",
"<  c #444444",
"1  c #464646",
"2  c #535353",
"3  c gray33",
"4  c #565656",
"5  c #5A5A5A",
"6  c #5B5B5B",
"7  c #5F5F5F",
"8  c gray39",
"9  c #656565",
"0  c gray40",
"q  c #686868",
"w  c DimGray",
"e  c gray42",
"r  c #727272",
"t  c gray46",
"y  c #767676",
"u  c gray47",
"i  c gray48",
"p  c #7B7B7B",
"a  c #7C7C7C",
"s  c gray49",
"d  c gray50",
"f  c #818181",
"g  c #838383",
"h  c gray52",
"j  c #868686",
"k  c gray53",
"l  c #898989",
"z  c gray54",
"x  c #8B8B8B",
"c  c gray55",
"v  c #8E8E8E",
"b  c gray56",
"n  c #909090",
"m  c gray57",
"M  c #939393",
"N  c gray58",
"B  c #959595",
"V  c #979797",
"C  c #989898",
"Z  c gray60",
"A  c #9B9B9B",
"S  c gray61",
"D  c #9D9D9D",
"F  c gray62",
"G  c #A0A0A0",
"H  c gray63",
"J  c #A2A2A2",
"K  c gray64",
"L  c gray65",
"P  c #A7A7A7",
"I  c gray66",
"U  c #AAAAAA",
"Y  c gray67",
"T  c #ACACAC",
"R  c #AFAFAF",
"E  c gray69",
"W  c #B2B2B2",
"Q  c gray70",
"!  c #B4B4B4",
"~  c gray72",
"^  c gray73",
"/  c #BCBCBC",
"(  c gray74",
")  c gray",
"_  c gray75",
"`  c #C1C1C1",
"'  c gray76",
"]  c #C5C5C5",
"[  c #C6C6C6",
"{  c gray78",
"}  c #CACACA",
"|  c #CBCBCB",
" . c #CECECE",
".. c #D0D0D0",
"X. c gray82",
"o. c #D2D2D2",
"O. c LightGray",
"+. c gray83",
"@. c #D7D7D7",
"#. c gray86",
"$. c gainsboro",
"%. c None",
/* pixels */
"%.%.%.%.%.%.%.%.%.%.%.%.%.%.%.%.%.%.%.%.%.%.%.%.",
"%.%.%.+.o.o.o.+.+.o.o.o.o.o.o.+.o.o.o.+.+.} %.%.",
"%.%.} +.+.#.#.+.+.+.#.#.#.+.#.+.+.#.#.+.#.+.%.%.",
"%.%.{ o.> * * = = > = = = = > > > > > 1 Q o.%.%.",
"%.%.` { %.%.( ` ` ( ` ( ` ( ` ( ( ( ( %.D  .%.%.",
"%.%.( ` %.} $.$.$.$.#.#.$.$.$.$.#.#.$.%.Z } %.%.",
"%.%.^ ( %.( o.o.o.o.o.o. .o.o.o.o.o.o.%.Z { %.%.",
"%.%.! ^ %.Q { { { { { { { { { { { { { %.M ` %.%.",
"%.%.Q ! %.I ( ( ( ( ( ( ( ( ( ( ( ( ( %.M ( %.%.",
"%.%.T T %.H ! ! Q Q ! ! Q Q Q Q Q Q Q %.c ! %.%.",
"%.%.I T %.Z I I P I I I I I P P I I I %.c Q %.%.",
"%.%.H P %.M D D D D D D D D D D D D D %.h Q %.%.",
"%.%.H H %.h B M B M B B B M B M M M M %.h I %.%.",
"%.%.D D %.p z z z z z z z z z z z z z %.a P %.%.",
"%.%.B D %.+ $ $ @ $ $ @ @ $ @ @ $ $ @ %.a P %.%.",
"%.%.M D c c z z z z z z c z z c z z c z B D %.%.",
"%.%.z Z Z Z Z Z Z Z Z Z Z Z Z Z Z Z Z Z Z Z %.%.",
"%.%.@ 3 3 3 3 3 3 2 3 B B e 3 3 2 2 2 3 2 % %.%.",
"%.%.%.%.%.%.%.%.%.t 8 M c e t %.%.%.%.%.%.%.%.%.",
"%.%.%.%.%.%.%.h c c t 3 7 8 z c z %.%.%.%.%.%.%.",
"%.%.%.%.%.%.0 z h z h z z h z h h p %.%.%.%.%.%.",
"%.%.%.%.%.%.%.% 5 e a f f f r 7 1 o %.%.%.%.%.%.",
"%.%.%.%.%.%.%.%.%.%.. o O . %.%.%.%.%.%.%.%.%.%.",
"%.%.%.%.%.%.%.%.%.%.%.%.%.%.%.%.%.%.%.%.%.%.%.%."
};
