/* XPM */
static char *_488210457987[] = {
/* columns rows colors chars-per-pixel */
"24 24 125 2 ",
"   c #0B0B0B",
".  c #0C0C0C",
"X  c gray5",
"o  c #111111",
"O  c #151515",
"+  c gray11",
"@  c #1E1E1E",
"#  c #232323",
"$  c gray14",
"%  c #252525",
"&  c gray24",
"*  c gray25",
"=  c #414141",
"-  c #444444",
";  c gray27",
":  c #464646",
">  c #484848",
",  c gray31",
"<  c #515151",
"1  c gray33",
"2  c #585858",
"3  c #5B5B5B",
"4  c gray37",
"5  c #606060",
"6  c #676767",
"7  c #6A6A6A",
"8  c gray42",
"9  c #6C6C6C",
"0  c gray43",
"q  c #717171",
"w  c #727272",
"e  c gray46",
"r  c #777777",
"t  c gray47",
"y  c gray48",
"u  c #7C7C7C",
"i  c gray49",
"p  c #7E7E7E",
"a  c gray50",
"s  c #808080",
"d  c #818181",
"f  c #838383",
"g  c gray52",
"h  c #868686",
"j  c #898989",
"k  c gray54",
"l  c #8D8D8D",
"z  c #8E8E8E",
"x  c gray56",
"c  c #909090",
"v  c gray57",
"b  c #929292",
"n  c #939393",
"m  c gray58",
"M  c #959595",
"N  c gray59",
"B  c #979797",
"V  c #989898",
"C  c gray60",
"Z  c #9A9A9A",
"A  c #9B9B9B",
"S  c gray61",
"D  c #9D9D9D",
"F  c gray62",
"G  c #9F9F9F",
"H  c #A0A0A0",
"J  c gray63",
"K  c #A2A2A2",
"L  c gray64",
"P  c #A5A5A5",
"I  c #A7A7A7",
"U  c gray66",
"Y  c #A9A9A9",
"T  c #AAAAAA",
"R  c #ACACAC",
"E  c gray68",
"W  c #AEAEAE",
"Q  c #AFAFAF",
"!  c gray69",
"~  c #B1B1B1",
"^  c #B2B2B2",
"/  c gray70",
"(  c gray71",
")  c #B6B6B6",
"_  c #B7B7B7",
"`  c gray72",
"'  c gray73",
"]  c #BBBBBB",
"[  c #BCBCBC",
"{  c gray74",
"}  c gray",
"|  c gray75",
" . c #C0C0C0",
".. c #C1C1C1",
"X. c gray76",
"o. c gray77",
"O. c #C5C5C5",
"+. c gray78",
"@. c gray79",
"#. c #CBCBCB",
"$. c gray80",
"%. c #CDCDCD",
"&. c gray81",
"*. c #D0D0D0",
"=. c gray82",
"-. c #D2D2D2",
";. c LightGray",
":. c gray83",
">. c #D5D5D5",
",. c gray84",
"<. c #D7D7D7",
"1. c #D8D8D8",
"2. c gray85",
"3. c #DADADA",
"4. c gray86",
"5. c gainsboro",
"6. c #DDDDDD",
"7. c gray87",
"8. c #DFDFDF",
"9. c gray88",
"0. c #E1E1E1",
"q. c #E2E2E2",
"w. c gray89",
"e. c gray90",
"r. c None",
/* pixels */
"r.r.r.r.r.r.r.r.r.r.r.r.r.r.r.r.r.r.r.r.r.r.r.r.",
"r.r.r.r.r.r.r.r.r.r.r.r.r.r.r.r.r.r.r.r.r.r.r.r.",
"r.r.r.r.r.r.r.r.r.r.r.r.r.r.r.r.r.r.r.r.r.r.r.r.",
"r.r.r.r.r.r.r.r.r.r.r.r.r.r.r.r.r.r.r.r.r.r.r.r.",
"r.r.r.r.r.7.3.:.;.#.o.K h F Q Q T I F r.r.r.r.r.",
"r.r.r.r.X.7.3.;.Q 0 # r r.r.O Z T K F f r.r.r.r.",
"r.r.r.r.0.7.:.p 7 r.r.r.r.r.r.- I K F B r.r.r.r.",
"r.r.r.^ 0.3.:.:.%.t r.[ K r.r.r.c K F Z w r.r.r.",
"r.r.r.:.7.3.:.;.B r.[ [ ] r.r.r.< K Z B j r.r.r.",
"r.r.r.e.7.3.:.%.* Z X.[ ) K r.r.r.F Z B c r.r.r.",
"r.r.X.0.7.:.:.X.r.^ X.[ ) ^ z r.r.z Z c c t r.r.",
"r.r.e.0.7.3.;.o.r.f [ ] ) ^ T B r.B Z B z j r.r.",
"r.Q e.7.3.:.;.#.[ p * & - < 1 p K F B c z j 7 r.",
"r.B #.o.X.[ ) ) ^ Q Q Q I K F B z j h p t r , r.",
"r.r.o           .   . . . .           . . . r.r.",
"r.) ;.%.%.;.%.;.%.;.%.;.%.%.;.%.%.;.%.%.%.;.^ r.",
"r.F [ c > 3 - - - - > - w X.[ - X.f f ] - [ F r.",
"r.z Q t B o.r.r.r.r.r.r.5 Q Q r.Q 7 0 T r.Q z r.",
"r.f F r > 7 r.r.r.r.r.r.6 F F r.F 7 0 Z r.F f r.",
"r.3 z z z z z z z z z z z z z z z z z z z z 4 r.",
"r.r.+ % % % % % % % % % % % % % # % % % % + r.r.",
"r.r.r.r.r.r.r.r.r.r.r.r.r.r.r.r.r.r.r.r.r.r.r.r.",
"r.r.r.r.r.r.r.r.r.r.r.r.r.r.r.r.r.r.r.r.r.r.r.r.",
"r.r.r.r.r.r.r.r.r.r.r.r.r.r.r.r.r.r.r.r.r.r.r.r."
};
