/* XPM */
static char *forward[] = {
/* columns rows colors chars-per-pixel */
"18 18 53 1 ",
"  c #474747",
". c #525252",
"X c #555555",
"o c #5B5B5B",
"O c #6B6B6B",
"+ c #6C6C6C",
"@ c #727272",
"# c #777777",
"$ c #797979",
"% c #7D7D7D",
"& c #7E7E7E",
"* c #808080",
"= c #838383",
"- c #848484",
"; c #8B8B8B",
": c #8C8C8C",
"> c #8E8E8E",
", c #8F8F8F",
"< c #939393",
"1 c #949494",
"2 c #979797",
"3 c #999999",
"4 c #9A9A9A",
"5 c #9B9B9B",
"6 c #9F9F9F",
"7 c #A1A1A1",
"8 c #A2A2A2",
"9 c #A4A4A4",
"0 c #A6A6A6",
"q c #A7A7A7",
"w c #ABABAB",
"e c #ACACAC",
"r c #ADADAD",
"t c #B1B1B1",
"y c #B2B2B2",
"u c #B3B3B3",
"i c #B4B4B4",
"p c #B5B5B5",
"a c #B6B6B6",
"s c #B8B8B8",
"d c #BABABA",
"f c #BCBCBC",
"g c #BEBEBE",
"h c #BFBFBF",
"j c #C0C0C0",
"k c #C4C4C4",
"l c #C5C5C5",
"z c #C6C6C6",
"x c #C7C7C7",
"c c #C9C9C9",
"v c #CBCBCB",
"b c #CDCDCD",
"n c None",
/* pixels */
"nnnnnnnnnnnnnnnnnn",
"nnnnnnnnnnnnnnnnnn",
"nnnnnnnnnnnnnnnnnn",
"nnnnnnnnnnnnnnnnnn",
"nnnnnnnnnnnnnnnnnn",
"nubnnnnnnvlnnnnnnn",
"neczgnnnnlxksnnnnn",
"n9jhhdynnfhhgsennn",
"n5apppit4yppppuenn",
"n<rwwew5*qewwr0>nn",
"n;8883$.n6887:+nnn",
"n=41%Xnnn22,Onnnnn",
"n#&onnnnn-@ nnnnnn",
"nnnnnnnnn.nnnnnnnn",
"nnnnnnnnnnnnnnnnnn",
"nnnnnnnnnnnnnnnnnn",
"nnnnnnnnnnnnnnnnnn",
"nnnnnnnnnnnnnnnnnn"
};
