/* XPM */
static char * gtk_quit_18x18_xpm[] = {
"18 18 90 1",
" 	c None",
".	c #D0D0D0",
"+	c #D4D4D4",
"@	c #DBDBDB",
"#	c #D7D7D7",
"$	c #C2C2C2",
"%	c #B5B5B5",
"&	c #C7C7C7",
"*	c #E3E3E3",
"=	c #EBEBEB",
"-	c #808080",
";	c #646464",
">	c #D6D6D6",
",	c #C5C5C5",
"'	c #BCBCBC",
")	c #ACACAC",
"!	c #C3C3C3",
"~	c #D5D5D5",
"{	c #CACACA",
"]	c #DDDDDD",
"^	c #C9C9C9",
"/	c #B4B4B4",
"(	c #B6B6B6",
"_	c #A7A7A7",
":	c #B0B0B0",
"<	c #CECECE",
"[	c #C0C0C0",
"}	c #AEAEAE",
"|	c #383838",
"1	c #636363",
"2	c #AFAFAF",
"3	c #9A9A9A",
"4	c #BEBEBE",
"5	c #ADADAD",
"6	c #D1D1D1",
"7	c #A3A3A3",
"8	c #B1B1B1",
"9	c #B3B3B3",
"0	c #CBCBCB",
"a	c #999999",
"b	c #A1A1A1",
"c	c #A2A2A2",
"d	c #A0A0A0",
"e	c #B8B8B8",
"f	c #BDBDBD",
"g	c #A9A9A9",
"h	c #B7B7B7",
"i	c #949494",
"j	c #A4A4A4",
"k	c #888888",
"l	c #969696",
"m	c #BBBBBB",
"n	c #B2B2B2",
"o	c #A6A6A6",
"p	c #7A7A7A",
"q	c #9B9B9B",
"r	c #838383",
"s	c #878787",
"t	c #747474",
"u	c #858585",
"v	c #A8A8A8",
"w	c #ABABAB",
"x	c #8D8D8D",
"y	c #939393",
"z	c #8B8B8B",
"A	c #868686",
"B	c #9D9D9D",
"C	c #979797",
"D	c #767676",
"E	c #919191",
"F	c #909090",
"G	c #6E6E6E",
"H	c #898989",
"I	c #797979",
"J	c #959595",
"K	c #313131",
"L	c #8A8A8A",
"M	c #929292",
"N	c #8F8F8F",
"O	c #8E8E8E",
"P	c #818181",
"Q	c #2F2F2F",
"R	c #717171",
"S	c #848484",
"T	c #8C8C8C",
"U	c #828282",
"V	c #6D6D6D",
"W	c #404040",
"X	c #494949",
"Y	c #3E3E3E",
"                  ",
"      .+@#$%      ",
"    &@*=-;>,')    ",
"   !~#{]  ^/'(_   ",
"  :<[}|^  / 1:23  ",
"  4!5 '6  ,_ _)7  ",
"  '8 9<0  $[a bc  ",
" dec f,$gg4h2 ijk ",
" l/k (44m(%no pqr ",
" r}l )/e/9n)b s3t ",
" uvc i9}}}gwk llt ",
"  q7  l:_ogx  yz  ",
"  ABC  DEFG  HEI  ",
"   JaF      sEk   ",
"   KLyEyMMNxOPQ   ",
"     RSLTTAUV     ",
"      W XX Y      ",
"                  "};
