/* XPM */
static char * gtk_quit_16x16_xpm[] = {
"16 16 81 1",
" 	c None",
".	c #D3D3D3",
"+	c #D7D7D7",
"@	c #CECECE",
"#	c #C6C6C6",
"$	c #C3C3C3",
"%	c #B7B7B7",
"&	c #C7C7C7",
"*	c #D4D4D4",
"=	c #DEDEDE",
"-	c #EDEDED",
";	c #808080",
">	c #626262",
",	c #D8D8D8",
"'	c #C1C1C1",
")	c #B8B8B8",
"!	c #ABABAB",
"~	c #CBCBCB",
"{	c #A3A3A3",
"]	c #CCCCCC",
"^	c #B9B9B9",
"/	c #898989",
"(	c #A2A2A2",
"_	c #B1B1B1",
":	c #9E9E9E",
"<	c #BDBDBD",
"[	c #C5C5C5",
"}	c #848484",
"|	c #696969",
"1	c #B2B2B2",
"2	c #A4A4A4",
"3	c #BABABA",
"4	c #999999",
"5	c #C8C8C8",
"6	c #CDCDCD",
"7	c #B5B5B5",
"8	c #929292",
"9	c #9D9D9D",
"0	c #A8A8A8",
"a	c #959595",
"b	c #AFAFAF",
"c	c #BFBFBF",
"d	c #A1A1A1",
"e	c #8F8F8F",
"f	c #9B9B9B",
"g	c #7D7D7D",
"h	c #A9A9A9",
"i	c #BBBBBB",
"j	c #B6B6B6",
"k	c #737373",
"l	c #878787",
"m	c #ACACAC",
"n	c #818181",
"o	c #979797",
"p	c #B4B4B4",
"q	c #B3B3B3",
"r	c #8A8A8A",
"s	c #727272",
"t	c #797979",
"u	c #8D8D8D",
"v	c #A7A7A7",
"w	c #ADADAD",
"x	c #7C7C7C",
"y	c #9A9A9A",
"z	c #969696",
"A	c #919191",
"B	c #707070",
"C	c #868686",
"D	c #949494",
"E	c #6B6B6B",
"F	c #6A6A6A",
"G	c #7A7A7A",
"H	c #6F6F6F",
"I	c #939393",
"J	c #8E8E8E",
"K	c #686868",
"L	c #6D6D6D",
"M	c #424242",
"N	c #757575",
"O	c #535353",
"P	c #3F3F3F",
"                ",
"     .+@#$%     ",
"   &*=-;>,')!   ",
"  )~@{]  ^/(_:  ",
"  <[ }#  %|}12  ",
" 3<4}56  $7 829 ",
" 07ab[[  c7d/{e ",
" f!gh<cij7bfkal ",
" /mno1%pq_hrs4t ",
" uvf 0bwwh:krox ",
" gy9  :(dz  ArB ",
"  C:D  EF  /8G  ",
"   HoIyEEzJeK   ",
"    sluDD/}L    ",
"     MNOOHP     ",
"                "};
