/* XPM */
static char * input_dialpad_16x16_XPM[] = {
"16 16 75 1",
" 	c None",
".	c #ACACAC",
"+	c #D6D6D6",
"@	c #DADADA",
"#	c #DBDBDB",
"$	c #D9D9D9",
"%	c #A1A1A1",
"&	c #7D7D7D",
"*	c #818181",
"=	c #BEBEBE",
"-	c #7A7A7A",
";	c #B8B8B8",
">	c #888888",
",	c #D5D5D5",
"'	c #A3A3A3",
")	c #9B9B9B",
"!	c #CCCCCC",
"~	c #A9A9A9",
"{	c #A2A2A2",
"]	c #565656",
"^	c #D2D2D2",
"/	c #9A9A9A",
"(	c #979797",
"_	c #C5C5C5",
":	c #A0A0A0",
"<	c #B7B7B7",
"[	c #AEAEAE",
"}	c #AFAFAF",
"|	c #B3B3B3",
"1	c #A7A7A7",
"2	c #C6C6C6",
"3	c #919191",
"4	c #C3C3C3",
"5	c #4A4A4A",
"6	c #1F1F1F",
"7	c #A6A6A6",
"8	c #333333",
"9	c #303030",
"0	c #1E1E1E",
"a	c #3F3F3F",
"b	c #C4C4C4",
"c	c #8D8D8D",
"d	c #BDBDBD",
"e	c #5C5C5C",
"f	c #939393",
"g	c #8A8A8A",
"h	c #878787",
"i	c #AAAAAA",
"j	c #ADADAD",
"k	c #ABABAB",
"l	c #BBBBBB",
"m	c #B9B9B9",
"n	c #B0B0B0",
"o	c #848484",
"p	c #4C4C4C",
"q	c #2F2F2F",
"r	c #393939",
"s	c #363636",
"t	c #989898",
"u	c #2E2E2E",
"v	c #828282",
"w	c #7E7E7E",
"x	c #4E4E4E",
"y	c #A4A4A4",
"z	c #737373",
"A	c #999999",
"B	c #909090",
"C	c #7C7C7C",
"D	c #969696",
"E	c #8C8C8C",
"F	c #020202",
"G	c #868686",
"H	c #5E5E5E",
"I	c #6F6F6F",
"J	c #6E6E6E",
"                ",
"  .+@@+##+@$+.  ",
"  %+&*=-&;*>,'  ",
"  )!  ~  { ]^/  ",
"  (_: <[}| 12(  ",
"  3456789.0ab3  ",
"  cde f  /  <g  ",
"  h|i;j;;klmn>  ",
"  onpqcrstuanv  ",
"  wix o  h  yw  ",
"  z:f3(ogA3B%z  ",
"   CADE  EAA&   ",
"    FwG  hwF    ",
"     &Gh>G&     ",
"     HIJJIH     ",
"                "};
