/* XPM */
static char * mail_mark_junk_16x16_XPM[] = {
"16 16 67 1",
" 	c None",
".	c #BFBFBF",
"+	c #D6D6D6",
"@	c #C2C2C2",
"#	c #A6A6A6",
"$	c #D7D7D7",
"%	c #D2D2D2",
"&	c #CBCBCB",
"*	c #D1D1D1",
"=	c #DBDBDB",
"-	c #717171",
";	c #D0D0D0",
">	c #BBBBBB",
",	c #B4B4B4",
"'	c #A9A9A9",
")	c #B0B0B0",
"!	c #CECECE",
"~	c #CCCCCC",
"{	c #ABABAB",
"]	c #000000",
"^	c #939393",
"/	c #464646",
"(	c #B2B2B2",
"_	c #BEBEBE",
":	c #C6C6C6",
"<	c #505050",
"[	c #707070",
"}	c #C5C5C5",
"|	c #797979",
"1	c #BABABA",
"2	c #B3B3B3",
"3	c #AAAAAA",
"4	c #AFAFAF",
"5	c #575757",
"6	c #858585",
"7	c #ACACAC",
"8	c #ADADAD",
"9	c #6F6F6F",
"0	c #AEAEAE",
"a	c #6E6E6E",
"b	c #555555",
"c	c #9C9C9C",
"d	c #969696",
"e	c #9F9F9F",
"f	c #727272",
"g	c #616161",
"h	c #A8A8A8",
"i	c #606060",
"j	c #636363",
"k	c #A1A1A1",
"l	c #9D9D9D",
"m	c #8A8A8A",
"n	c #8B8B8B",
"o	c #767676",
"p	c #656565",
"q	c #525252",
"r	c #8F8F8F",
"s	c #959595",
"t	c #929292",
"u	c #5A5A5A",
"v	c #777777",
"w	c #545454",
"x	c #919191",
"y	c #7E7E7E",
"z	c #838383",
"A	c #414141",
"B	c #252525",
"                ",
"     .+@#$%     ",
"     &*=-&; >   ",
"     ,*' )!~{   ",
"     ]^/ (_:<   ",
" [}>,           ",
"  |12        3  ",
"  4>56     )7(8 ",
" 90a       b08c ",
"  ^9d^   ef ghi ",
"  jdkk   lmnopq ",
"   rss  ^sddt   ",
"   u9v  wxyap   ",
"         zA     ",
"         B      ",
"                "};
