/* XPM */
static char *_488211726441[] = {
/* columns rows colors chars-per-pixel */
"24 24 96 2 ",
"   c #020202",
".  c #040404",
"X  c gray7",
"o  c #161616",
"O  c #1B1B1B",
"+  c gray11",
"@  c #232323",
"#  c gray17",
"$  c #323232",
"%  c #343434",
"&  c #353535",
"*  c #3A3A3A",
"=  c #3E3E3E",
"-  c #444444",
";  c #494949",
":  c gray29",
">  c #4B4B4B",
",  c gray33",
"<  c #555555",
"1  c gray34",
"2  c gray35",
"3  c gray38",
"4  c #626262",
"5  c #646464",
"6  c gray40",
"7  c #686868",
"8  c #6A6A6A",
"9  c gray42",
"0  c #6C6C6C",
"q  c #6F6F6F",
"w  c #717171",
"e  c gray45",
"r  c gray46",
"t  c #767676",
"y  c gray47",
"u  c #7C7C7C",
"i  c #7E7E7E",
"p  c #848484",
"a  c #868686",
"s  c #888888",
"d  c #898989",
"f  c #8B8B8B",
"g  c #8D8D8D",
"h  c #8E8E8E",
"j  c gray56",
"k  c gray57",
"l  c #929292",
"z  c #939393",
"x  c gray58",
"c  c #959595",
"v  c gray59",
"b  c #979797",
"n  c gray60",
"m  c #9A9A9A",
"M  c #9B9B9B",
"N  c gray61",
"B  c gray62",
"V  c #9F9F9F",
"C  c #A0A0A0",
"Z  c gray63",
"A  c gray64",
"S  c #A4A4A4",
"D  c gray65",
"F  c #A7A7A7",
"G  c gray66",
"H  c #A9A9A9",
"J  c gray67",
"K  c #AFAFAF",
"L  c gray69",
"P  c #B1B1B1",
"I  c gray70",
"U  c #B4B4B4",
"Y  c gray71",
"T  c gray72",
"R  c #B9B9B9",
"E  c gray73",
"W  c #BCBCBC",
"Q  c gray74",
"!  c gray",
"~  c gray75",
"^  c #C0C0C0",
"/  c #C1C1C1",
"(  c gray76",
")  c #C5C5C5",
"_  c gray78",
"`  c gray79",
"'  c #CACACA",
"]  c #CBCBCB",
"[  c gray80",
"{  c #CDCDCD",
"}  c #CECECE",
"|  c #D0D0D0",
" . c #D2D2D2",
".. c gray83",
"X. c #D7D7D7",
"o. c None",
/* pixels */
"o.o.o.o.o.o.o.o.o.o.o.o.o.o.o.o.o.o.o.o.o.o.o.o.",
"o.o.o.o.o.o.o.o.o.) o.P X.} } ~ o.o.o.o.o.o.o.o.",
"o.o.o.o.o.o.o.o.( X.X.~ f X.X.X.o.o.o.o.o.o.o.o.",
"o.o.o.o.o.o.o.H  . . . .i ~  . .] o.E F o.o.o.o.",
"o.o.o.o.o.o.o.] } } } } % 8 } } } ) } o.o.o.o.o.",
"o.o.o.o.o.o.o.2 E ] ] f o.o.P ] ] ] V o.o.o.o.o.",
"o.o.o.o.o.o.o.o.O a ( $ o.V ( ) ) ) 3 o.o.o.o.o.",
"o.o.o.o.K P Y o.o.o.% o.h k x Z P P o.o.o.o.o.o.",
"o.o.t E E ~ ~ f o.o.o.o.o.o.o.o.o.o.o.o.o.o.o.o.",
"o.o.o.5 Y E Y Z o.o.o.o.o.o.o.o.o.o.o.o.F o.o.o.",
"o.o.o.F Y Y Y P o.o.o.o.o.o.o.o.o.o.M P P M o.o.",
"o.o.o.K K K = w a o.o.o.o.o.o.o.o.H K P P P o.o.",
"o.o.i H H y o.o.o.o.o.o.o.o.o.o.o.5 K H K H w o.",
"o.o.> F Z @ o.o.o.o.o.o.o.o.o.f o.o.k F F H 3 o.",
"o.o.o.x 3 f x x x o.o.o.o.o.M w o.o.- Z M , o.o.",
"o.o.o.w 8 V Z V Z o.o.o.o.h V a a a w 2 8 , o.o.",
"o.o.o.* t M M M M o.o.o.a M M M M M M M 3 o.o.o.",
"o.o.o.o.8 x x k x o.o.o.k k x x x x x 0 o.o.o.o.",
"o.o.o.o.o.3 f k k o.o.o.> k k k k f 8 o.o.o.o.o.",
"o.o.o.o.o.o.  X + o.o.o.o.5 h - o . o.o.o.o.o.o.",
"o.o.o.o.o.o.o.o.o.o.o.o.o.o.t > o.o.o.o.o.o.o.o.",
"o.o.o.o.o.o.o.o.o.o.o.o.o.o.# o.o.o.o.o.o.o.o.o.",
"o.o.o.o.o.o.o.o.o.o.o.o.o.o.o.o.o.o.o.o.o.o.o.o.",
"o.o.o.o.o.o.o.o.o.o.o.o.o.o.o.o.o.o.o.o.o.o.o.o."
};
