/* XPM */
static char * media_floppy_16x16_XPM[] = {
"16 16 53 1",
" 	c None",
".	c #CDCDCD",
"+	c #D4D4D4",
"@	c #D7D7D7",
"#	c #B8B8B8",
"$	c #BABABA",
"%	c #D1D1D1",
"&	c #C5C5C5",
"*	c #D3D3D3",
"=	c #D6D6D6",
"-	c #676767",
";	c #3C3C3C",
">	c #B5B5B5",
",	c #BFBFBF",
"'	c #C8C8C8",
")	c #C0C0C0",
"!	c #C7C7C7",
"~	c #C6C6C6",
"{	c #C2C2C2",
"]	c #B9B9B9",
"^	c #B2B2B2",
"/	c #838383",
"(	c #989898",
"_	c #B1B1B1",
":	c #ABABAB",
"<	c #B7B7B7",
"[	c #A0A0A0",
"}	c #9A9A9A",
"|	c #A6A6A6",
"1	c #B3B3B3",
"2	c #B4B4B4",
"3	c #ADADAD",
"4	c #909090",
"5	c #8B8B8B",
"6	c #888888",
"7	c #8D8D8D",
"8	c #ACACAC",
"9	c #969696",
"0	c #A4A4A4",
"a	c #979797",
"b	c #959595",
"c	c #999999",
"d	c #9B9B9B",
"e	c #8E8E8E",
"f	c #919191",
"g	c #8F8F8F",
"h	c #878787",
"i	c #8C8C8C",
"j	c #828282",
"k	c #858585",
"l	c #636363",
"m	c #727272",
"n	c #656565",
"                ",
" .+++@#$$$$#@%  ",
" &**=-      ;=> ",
" ,...    &*  ') ",
" #!~~    )%  {] ",
" ^,{)    /(  $_ ",
" :#<#[      }]: ",
" |^1>>>>^>>>2^| ",
" [345555566678[ ",
" 9|          0a ",
" bc          db ",
" eb          fg ",
" h4          g6 ",
" /iijkkkkkkkii/ ",
" lmmmmmmmmmmmmn ",
"                "};
