/* XPM */
static char *_488210470897[] = {
/* columns rows colors chars-per-pixel */
"24 24 84 1 ",
"  c gray8",
". c gray12",
"X c #222222",
"o c #232323",
"O c gray19",
"+ c gray25",
"@ c #414141",
"# c gray32",
"$ c gray36",
"% c gray37",
"& c #5F5F5F",
"* c #626262",
"= c #646464",
"- c #656565",
"; c #676767",
": c #686868",
"> c gray42",
", c #6C6C6C",
"< c #6D6D6D",
"1 c #6F6F6F",
"2 c gray44",
"3 c #727272",
"4 c #747474",
"5 c gray46",
"6 c #767676",
"7 c #777777",
"8 c gray47",
"9 c #797979",
"0 c #7B7B7B",
"q c gray49",
"w c #7E7E7E",
"e c gray50",
"r c #818181",
"t c gray51",
"y c #848484",
"u c gray52",
"i c #868686",
"p c #888888",
"a c #898989",
"s c gray54",
"d c #8B8B8B",
"f c gray55",
"g c #8D8D8D",
"h c #8E8E8E",
"j c gray56",
"k c #909090",
"l c #929292",
"z c #939393",
"x c gray58",
"c c gray59",
"v c #979797",
"b c #989898",
"n c #9B9B9B",
"m c #A0A0A0",
"M c gray63",
"N c #A4A4A4",
"B c gray65",
"V c #A7A7A7",
"C c #A9A9A9",
"Z c gray68",
"A c gray69",
"S c #B1B1B1",
"D c #B6B6B6",
"F c #B7B7B7",
"G c gray72",
"H c gray73",
"J c gray",
"K c #C1C1C1",
"L c gray76",
"P c #C3C3C3",
"I c #C6C6C6",
"U c gray78",
"Y c #C8C8C8",
"T c #CACACA",
"R c #CBCBCB",
"E c gray80",
"W c #CECECE",
"Q c gray81",
"! c #D0D0D0",
"~ c #D2D2D2",
"^ c LightGray",
"/ c gray83",
"( c gray85",
") c None",
/* pixels */
"))))))))))))))))))))))))",
")))KKKKKKKKKKKKKKKKK))))",
")M((((((!GGGGGGGGGE(!)))",
")x//////#)))))))))oY/S))",
")h!!!!!!)))))))))))G!!))",
")dEEEEEE))))))I/E))GEYz)",
")dIYYIII))))))K!!))SYYd)",
")uKKKIIK))))))JEY))ZIKu)",
")tJJJKJJ))))))7h0))VJJt)",
")eGGGGGGx)))))))))dFGGe)",
")0FFFFFFFFFFFFFFFFFGFFe)",
")0SSSSSSSSSSZSSSSSSSSS0)",
")7ZZZVhhhhhhhhddddVZZZ7)",
")3CCVX)))))))))))) nCC3)",
")<MVb))))))))))))))hVM3)",
")<Mnb))))))))))))))hMM<)",
"):nnx))))))))))))))dbn<)",
")-bxz))))))))))))))uxb:)",
")*zzd))))))))))))))tzz-)",
")&hhh))))))))))))))dhh*)",
")&ddddtuuuuuuuuuuudddd&)",
")+tuuuuuuuuuuuuuuuuuuu+)",
"))XOOOOOOOOOOOOOOOOOOX))",
"))))))))))))))))))))))))"
};
