/* XPM */
static char *_488212350153[] = {
/* columns rows colors chars-per-pixel */
"24 24 85 1 ",
"  c gray19",
". c #313131",
"X c gray24",
"o c #434343",
"O c gray27",
"+ c #464646",
"@ c gray30",
"# c #4E4E4E",
"$ c #505050",
"% c #515151",
"& c gray35",
"* c #5A5A5A",
"= c #5F5F5F",
"- c #606060",
"; c #626262",
": c gray39",
"> c #656565",
", c gray40",
"< c #686868",
"1 c DimGray",
"2 c gray42",
"3 c gray43",
"4 c #6F6F6F",
"5 c gray44",
"6 c #717171",
"7 c gray45",
"8 c gray46",
"9 c gray47",
"0 c #797979",
"q c #7B7B7B",
"w c #7C7C7C",
"e c gray49",
"r c #7E7E7E",
"t c gray50",
"y c #808080",
"u c #818181",
"i c gray51",
"p c #838383",
"a c #848484",
"s c gray52",
"d c #868686",
"f c gray53",
"g c #888888",
"h c #898989",
"j c gray54",
"k c #8B8B8B",
"l c gray55",
"z c #8D8D8D",
"x c #8E8E8E",
"c c gray56",
"v c gray57",
"b c #929292",
"n c #939393",
"m c #979797",
"M c #989898",
"N c gray60",
"B c #9A9A9A",
"V c #9B9B9B",
"C c gray61",
"Z c #9D9D9D",
"A c #9F9F9F",
"S c #A0A0A0",
"D c #ACACAC",
"F c #AEAEAE",
"G c #AFAFAF",
"H c #B2B2B2",
"J c gray70",
"K c #B6B6B6",
"L c #B7B7B7",
"P c #B9B9B9",
"I c #BCBCBC",
"U c #C0C0C0",
"Y c #C3C3C3",
"T c #C6C6C6",
"R c gray79",
"E c #CACACA",
"W c #CDCDCD",
"Q c gray81",
"! c #D0D0D0",
"~ c LightGray",
"^ c #D5D5D5",
"/ c #D7D7D7",
"( c gray85",
") c #DADADA",
"_ c None",
/* pixels */
"________________________",
"____)))))))))))))))_____",
"___s^!SMMCCMMCCMCC!^____",
"___r^yyyyxxjxxxyyyy!x___",
"___rQssjsxxxxxxsjssQr___",
"___rQsMjMMr-4jxssssQ9___",
"___9TyMs51xKPCysjMyR9___",
"___9Tyrsjnj1#-yjynyR9___",
"___8YyyyyjsjxnxyyrrY5___",
"___5Yrr9ryyysysyrrrY8___",
"___5PGnxxxxxxxxxxnGP5___",
"___5PPPKPPPPKPPPPPPP5___",
"___5KKKKKKKKKKKKKKKK4___",
"___4JJJJJJJJJJJJJJJJ4___",
"___1GGGGGGGGGGGGGGGG1___",
"___1DDDDDDDDDDDGDDDD1___",
"___>S+++o+o++++++++C>___",
"___>j_jnnnj_n______j>___",
"___>j_&===*_-%_____j>___",
"___-s______________s-___",
"___#y______________y%___",
"____Xxxnxnnxnxxnxnx+____",
"_____              _____",
"________________________"
};
