/* XPM */
static char * media_flash_16x16_XPM[] = {
"16 16 56 1",
" 	c None",
".	c #A2A2A2",
"+	c #DBDBDB",
"@	c #ABABAB",
"#	c #A9A9A9",
"$	c #AAAAAA",
"%	c #A8A8A8",
"&	c #D9D9D9",
"*	c #989898",
"=	c #909090",
"-	c #7D7D7D",
";	c #7F7F7F",
">	c #8C8C8C",
",	c #8F8F8F",
"'	c #A1A1A1",
")	c #959595",
"!	c #969696",
"~	c #676767",
"{	c #757575",
"]	c #8E8E8E",
"^	c #868686",
"/	c #858585",
"(	c #999999",
"_	c #949494",
":	c #919191",
"<	c #939393",
"[	c #929292",
"}	c #747474",
"|	c #A5A5A5",
"1	c #838383",
"2	c #8D8D8D",
"3	c #7E7E7E",
"4	c #8A8A8A",
"5	c #818181",
"6	c #828282",
"7	c #898989",
"8	c #848484",
"9	c #808080",
"0	c #BABABA",
"a	c #B2B2B2",
"b	c #B6B6B6",
"c	c #B5B5B5",
"d	c #B1B1B1",
"e	c #B0B0B0",
"f	c #7A7A7A",
"g	c #9C9C9C",
"h	c #979797",
"i	c #727272",
"j	c #6E6E6E",
"k	c #545454",
"l	c #575757",
"m	c #565656",
"n	c #5A5A5A",
"o	c #646464",
"p	c #656565",
"q	c #7C7C7C",
"                ",
"  .+@#$$$$#%&   ",
"  *=-;>>>>;;,'  ",
"  )*)!)~{]^/(_  ",
"  :<[{}#|1/!<:  ",
"  2[3145;466:2  ",
"  7(;3818/9;(7  ",
"  /0aaaaaaaa0/  ",
"  5bccccccccb5  ",
"  -deeeeeeeed-  ",
"  fg!!!h!hhhgf  ",
"  i f-- -    i  ",
"  j klm n    j  ",
"  o          p  ",
"   iqqqqqqqqi   ",
"                "};
