/* XPM */
static char *_488210384036[] = {
/* columns rows colors chars-per-pixel */
"24 24 117 2 ",
"   c #040404",
".  c #0E0E0E",
"X  c gray11",
"o  c #1D1D1D",
"O  c #222222",
"+  c #252525",
"@  c gray16",
"#  c #2C2C2C",
"$  c gray19",
"%  c #323232",
"&  c #373737",
"*  c #3C3C3C",
"=  c gray25",
"-  c gray26",
";  c #444444",
":  c gray28",
">  c #484848",
",  c gray29",
"<  c #505050",
"1  c #535353",
"2  c gray33",
"3  c #555555",
"4  c gray34",
"5  c gray35",
"6  c #5A5A5A",
"7  c gray36",
"8  c #5D5D5D",
"9  c gray37",
"0  c #5F5F5F",
"q  c #606060",
"w  c gray38",
"e  c #626262",
"r  c gray40",
"t  c #686868",
"y  c DimGray",
"u  c #6C6C6C",
"i  c #6D6D6D",
"p  c gray43",
"a  c gray44",
"s  c #727272",
"d  c gray45",
"f  c #767676",
"g  c #777777",
"h  c #797979",
"j  c gray48",
"k  c #7B7B7B",
"l  c gray49",
"z  c #7E7E7E",
"x  c gray50",
"c  c #808080",
"v  c #818181",
"b  c gray51",
"n  c #838383",
"m  c #848484",
"M  c gray52",
"N  c gray53",
"B  c #888888",
"V  c #898989",
"C  c gray54",
"Z  c #8B8B8B",
"A  c #8D8D8D",
"S  c gray56",
"D  c #909090",
"F  c gray57",
"G  c #929292",
"H  c #939393",
"J  c gray58",
"K  c #959595",
"L  c #979797",
"P  c #989898",
"I  c gray60",
"U  c #9B9B9B",
"Y  c gray61",
"T  c #9D9D9D",
"R  c gray62",
"E  c #9F9F9F",
"W  c #A0A0A0",
"Q  c gray63",
"!  c #A2A2A2",
"~  c gray64",
"^  c #A4A4A4",
"/  c #A5A5A5",
"(  c #A7A7A7",
")  c gray66",
"_  c #A9A9A9",
"`  c #AAAAAA",
"'  c gray67",
"]  c gray69",
"[  c #B1B1B1",
"{  c #B2B2B2",
"}  c gray70",
"|  c #B4B4B4",
" . c gray71",
".. c #B6B6B6",
"X. c #B7B7B7",
"o. c gray72",
"O. c #B9B9B9",
"+. c gray73",
"@. c #BBBBBB",
"#. c gray74",
"$. c gray",
"%. c gray75",
"&. c #C0C0C0",
"*. c #C3C3C3",
"=. c gray77",
"-. c #C5C5C5",
";. c #C8C8C8",
":. c gray79",
">. c #CACACA",
",. c #CBCBCB",
"<. c gray80",
"1. c #CDCDCD",
"2. c #D0D0D0",
"3. c #D2D2D2",
"4. c #D8D8D8",
"5. c gray85",
"6. c None",
/* pixels */
"6.6.6.6.6.6.6.6.6.6.6.6.6.6.6.6.6.6.6.6.6.6.6.6.",
"6.6.6.6.6.6.6.,.4.4.4.4.4.4.4.4.4.4.4.4.4.4.6.6.",
"6.6.6.6.6.6.6.3.3.3.3.3.3.3.3.3.3.3.3.3.4.3.Y 6.",
"6.6.6.6.6.6.6.,.,.,.,.,.,.Y 6 9 ( <.,.,.,.,.J 6.",
"6.6.6.6.6.6.6.-.-.-.-.o.l 6.C v o v $.-.-.-.S 6.",
"6.6.6.6.6.6.6.$.$.$.$.& 6.C $.$.v 6.> *.$.$.C 6.",
"6.6.6.6.6.6.6.X.o.o.( 6.[ X.o.o.X.` 6.[ o.o.N 6.",
"6.6.6.6.6.6.6.[ [ D v 6.C U N C C Q 6.` [ [ v 6.",
"6.6.6.6.6.6.6.w 9 C U [ C . 9 w 9 U 6.( ` ` j 6.",
"6.6.6.6.6.6.[ $.,.<.,.,.,.6.J D D S 6.Y ( ( g 6.",
"6.6.6.6.6.6.C X.o.X.o.X.X.6.> - : + 6.Y Y Y d 6.",
"6.6.6.6.6.6.D Q Y ( ( ( Q 6.j g g v D U J U p 6.",
"6.6.6.6.6.6.v - v 2 D D d 6 D D D D D D D S y 6.",
"6.6.6.6.6.6.p *.X.6 v y * N C C C C C C C S 9 6.",
"6.6.6.6.6.` ,.Y r j r @ d p p p p p p p p 9 6.6.",
"6.6.6.6.o.<.v 6.6.6.6.6.6.6.6.6.6.6.% O 6.6.6.6.",
"6.6.6.o.,.9 6.6.6.6.6.6.6.6.U Y ` ` ` Q Y 6.6.6.",
"6.6.$.,.< 6.6.6.6.( ` [ X.X.Q l w 2 > - J U 6.6.",
"6.6.3.S Y X.$.*.*.X.D p : o 6.6.6.6.6.w U p 6.6.",
"6.g 3.<.*.Q l 6 %   6.6.6.6.6.6.6.6.N Y y 6.6.6.",
"6.6.# o 6.6.6.6.6.6.6.6.6.6.6.6.6.D Q < 6.6.6.6.",
"6.6.6.6.6.6.6.6.6.6.6.6.6.6.6.6.Y J % 6.6.6.6.6.",
"6.6.6.6.6.6.6.6.6.6.6.6.6.6.6.6.@ 6.6.6.6.6.6.6.",
"6.6.6.6.6.6.6.6.6.6.6.6.6.6.6.6.6.6.6.6.6.6.6.6."
};
