/* XPM */
static char *pause_16x16[] = {
/* columns rows colors chars-per-pixel */
"16 16 24 1 ",
"  c #5E5E5E",
". c #6F6F6F",
"X c #848484",
"o c #8E8E8E",
"O c #919191",
"+ c #969696",
"@ c #999999",
"# c #9F9F9F",
"$ c #A2A2A2",
"% c #A3A3A3",
"& c #A7A7A7",
"* c #ABABAB",
"= c #ACACAC",
"- c #B0B0B0",
"; c #B4B4B4",
": c #B5B5B5",
"> c #B9B9B9",
", c #BEBEBE",
"< c #C4C4C4",
"1 c #C7C7C7",
"2 c #C8C8C8",
"3 c #D1D1D1",
"4 c #D2D2D2",
"5 c None",
/* pixels */
"5555555555555555",
"5555555555555555",
"5555555555555555",
"5555555555555555",
"555534<55<435555",
"555512>55>215555",
"5555,,-55-,,5555",
"5555;:&55&:;5555",
"5555*=#55#=*5555",
"5555$%+55+%$5555",
"5555@@o55o@@5555",
"5555OOX55XOO5555",
"5555  .55.  5555",
"5555555555555555",
"5555555555555555",
"5555555555555555"
};
