/* XPM */
static char * speaker_16x16_XPM[] = {
"16 16 70 1",
" 	c None",
".	c #DDDDDD",
"+	c #B7B7B7",
"@	c #7B7B7B",
"#	c #8E8E8E",
"$	c #D0D0D0",
"%	c #D8D8D8",
"&	c #A8A8A8",
"*	c #959595",
"=	c #C4C4C4",
"-	c #BEBEBE",
";	c #BFBFBF",
">	c #C9C9C9",
",	c #CACACA",
"'	c #CDCDCD",
")	c #9F9F9F",
"!	c #999999",
"~	c #A5A5A5",
"{	c #9B9B9B",
"]	c #838383",
"^	c #8F8F8F",
"/	c #BBBBBB",
"(	c #C2C2C2",
"_	c #989898",
":	c #C1C1C1",
"<	c #D5D5D5",
"[	c #A7A7A7",
"}	c #656565",
"|	c #868686",
"1	c #AFAFAF",
"2	c #BCBCBC",
"3	c #B6B6B6",
"4	c #B9B9B9",
"5	c #949494",
"6	c #6B6B6B",
"7	c #636363",
"8	c #AEAEAE",
"9	c #505050",
"0	c #8B8B8B",
"a	c #A9A9A9",
"b	c #B0B0B0",
"c	c #B3B3B3",
"d	c #8A8A8A",
"e	c #C5C5C5",
"f	c #6C6C6C",
"g	c #ABABAB",
"h	c #5A5A5A",
"i	c #A3A3A3",
"j	c #D4D4D4",
"k	c #A1A1A1",
"l	c #818181",
"m	c #4A4A4A",
"n	c #565656",
"o	c #545454",
"p	c #6F6F6F",
"q	c #9C9C9C",
"r	c #797979",
"s	c #AAAAAA",
"t	c #919191",
"u	c #909090",
"v	c #3E3E3E",
"w	c #9D9D9D",
"x	c #747474",
"y	c #BDBDBD",
"z	c #474747",
"A	c #2B2B2B",
"B	c #808080",
"C	c #6A6A6A",
"D	c #030303",
"E	c #939393",
"                ",
"                ",
"                ",
"       .+   @#  ",
"      $%&  + *  ",
" =--;>,').!~{]^ ",
" /-(-((=_:<@[}| ",
" 123//+456'7890 ",
" abbbbbcd!efghd ",
" i&&[~~[]j$|k}l ",
" mnop{q)rst=!#u ",
"     vw5x  y kz ",
"      ABC  DEr  ",
"                ",
"                ",
"                "};
