/* XPM */
static char *_488210433361[] = {
/* columns rows colors chars-per-pixel */
"24 24 98 2 ",
"   c gray9",
".  c gray10",
"X  c #1B1B1B",
"o  c gray13",
"O  c #232323",
"+  c gray16",
"@  c #323232",
"#  c #373737",
"$  c gray26",
"%  c #444444",
"&  c #464646",
"*  c gray29",
"=  c gray33",
"-  c #555555",
";  c #585858",
":  c #5B5B5B",
">  c gray36",
",  c #5D5D5D",
"<  c gray37",
"1  c #5F5F5F",
"2  c gray39",
"3  c gray40",
"4  c #686868",
"5  c DimGray",
"6  c #6A6A6A",
"7  c gray42",
"8  c #6C6C6C",
"9  c #6D6D6D",
"0  c gray44",
"q  c #717171",
"w  c #727272",
"e  c #747474",
"r  c gray46",
"t  c gray48",
"y  c #7B7B7B",
"u  c gray49",
"i  c #7E7E7E",
"p  c gray50",
"a  c #808080",
"s  c #818181",
"d  c gray51",
"f  c #848484",
"g  c gray52",
"h  c #868686",
"j  c gray53",
"k  c #898989",
"l  c #8B8B8B",
"z  c gray55",
"x  c #8E8E8E",
"c  c gray56",
"v  c #909090",
"b  c gray57",
"n  c gray58",
"m  c #959595",
"M  c gray59",
"N  c #979797",
"B  c #989898",
"V  c gray60",
"C  c #9B9B9B",
"Z  c gray62",
"A  c #A2A2A2",
"S  c #A4A4A4",
"D  c #A5A5A5",
"F  c gray65",
"G  c #A9A9A9",
"H  c #AAAAAA",
"J  c gray67",
"K  c #ACACAC",
"L  c gray68",
"P  c #B1B1B1",
"I  c #B2B2B2",
"U  c #B4B4B4",
"Y  c gray71",
"T  c #B6B6B6",
"R  c #B7B7B7",
"E  c #BBBBBB",
"W  c #BCBCBC",
"Q  c gray74",
"!  c gray",
"~  c gray75",
"^  c #C0C0C0",
"/  c gray76",
"(  c #C3C3C3",
")  c #C8C8C8",
"_  c gray79",
"`  c #CACACA",
"'  c #CECECE",
"]  c gray81",
"[  c #D0D0D0",
"{  c #D2D2D2",
"}  c LightGray",
"|  c gray83",
" . c gray84",
".. c #D7D7D7",
"X. c #D8D8D8",
"o. c #DADADA",
"O. c gainsboro",
"+. c None",
/* pixels */
"+.+.+.+.+.+.+.+.+.+.+.+.+.+.+.+.+.+.+.+.+.+.+.+.",
"+.+.+.+.+.+.+.+.+.+.+.+.+.+.+.+.+.+.+.+.+.+.+.+.",
"+.+.+.+.+.+.+.+.+.+.+.+.+.+.+.+.+.+.+.+.+.+.+.+.",
"+.+.+.+.+.+.+.+.+.+.+.+.+.+.+.+.+.+.+.+.+.+.+.+.",
"+.+.+.+.+.+.+.+.+.+.+.X.) +.+.+.+.+.V S +.+.+.+.",
"+.+.+.+.+.+.+.+.+.+.| O.Y +.+.+.+.+.3 S j +.+.+.",
"+.+.+.+.+.+.+.+.+.[ [ X.L +.+.+.! Y +.c V +.+.+.",
"+.+.+.+.+.+.+.Y [ [ [ [ G +.+.+.v ! k % V j +.+.",
"+.+.( ! ! ! ! ) ) ) ) ) A +.X.! # E G +.d c +.+.",
"+.S ( ! ! ( ! ( ( ( ( ( Z +.[ [ +.j I 9 9 v : +.",
"+.V ! ! ! ! ! E ! ! ! ! V +.j | c q I q : v > +.",
"+.m Y E Y Y E Y E Y Y Y m +.r [ V > I p * c 6 +.",
"+.v I I I I I I I I I I c +.m [ c 6 I t - v 3 +.",
"+.k G G G G G G G G G G k +.Y | > p I 3 6 v - +.",
"+.d S A A A A S S S S S j +.X.[ +.m I - q v % +.",
"+.+ > > : : 6 Z Z Z Z Z p +.[ V +.! G +.j v +.+.",
"+.+.+.+.+.+.+.% m m V V t +.. +.S ! 6 +.Z d +.+.",
"+.+.+.+.+.+.+.+.@ c c v r +.+.+.G I +.m V $ +.+.",
"+.+.+.+.+.+.+.+.+.O d k q +.+.+.O . j S p +.+.+.",
"+.+.+.+.+.+.+.+.+.+.  9 > +.+.+.+.+.p A # +.+.+.",
"+.+.+.+.+.+.+.+.+.+.+.+.+.+.+.+.+.+.+.. +.+.+.+.",
"+.+.+.+.+.+.+.+.+.+.+.+.+.+.+.+.+.+.+.+.+.+.+.+.",
"+.+.+.+.+.+.+.+.+.+.+.+.+.+.+.+.+.+.+.+.+.+.+.+.",
"+.+.+.+.+.+.+.+.+.+.+.+.+.+.+.+.+.+.+.+.+.+.+.+."
};
