/* XPM */
static char *stop[] = {
/* columns rows colors chars-per-pixel */
"18 18 20 1 ",
"  c #585858",
". c #5B5B5B",
"X c #848484",
"o c #8D8D8D",
"O c #909090",
"+ c #989898",
"@ c #A1A1A1",
"# c #A2A2A2",
"$ c #AAAAAA",
"% c #ABABAB",
"& c #B4B4B4",
"* c #B5B5B5",
"= c #BEBEBE",
"- c #BFBFBF",
"; c #C7C7C7",
": c #C8C8C8",
"> c #D0D0D0",
", c #D2D2D2",
"< c #D8D8D8",
"1 c None",
/* pixels */
"111111111111111111",
"111111111111111111",
"111111111111111111",
"111111111111111111",
"111111<<<<<<111111",
"11111>,,,,,,>11111",
"1111;::::::::;1111",
"1111=--------=1111",
"1111&********&1111",
"1111$%%%%%%%%$1111",
"1111@########@1111",
"1111++++++++++1111",
"1111XoOOOOOOoX1111",
"11111 ...... 11111",
"111111111111111111",
"111111111111111111",
"111111111111111111",
"111111111111111111"
};
