/* XPM */
static char * user_home_16x16_xpm[] = {
"16 16 77 1",
" 	c None",
".	c #CCCCCC",
"+	c #CBCBCB",
"@	c #D3D3D3",
"#	c #C3C3C3",
"$	c #999999",
"%	c #909090",
"&	c #BDBDBD",
"*	c #D0D0D0",
"=	c #C9C9C9",
"-	c #B1B1B1",
";	c #929292",
">	c #ACACAC",
",	c #8E8E8E",
"'	c #AEAEAE",
")	c #C8C8C8",
"!	c #A5A5A5",
"~	c #B0B0B0",
"{	c #8F8F8F",
"]	c #A3A3A3",
"^	c #C1C1C1",
"/	c #A0A0A0",
"(	c #878787",
"_	c #A8A8A8",
":	c #BEBEBE",
"<	c #C2C2C2",
"[	c #ADADAD",
"}	c #8B8B8B",
"|	c #9F9F9F",
"1	c #BABABA",
"2	c #BCBCBC",
"3	c #7C7C7C",
"4	c #A2A2A2",
"5	c #BBBBBB",
"6	c #B7B7B7",
"7	c #A6A6A6",
"8	c #7F7F7F",
"9	c #B9B9B9",
"0	c #606060",
"a	c #6C6C6C",
"b	c #9B9B9B",
"c	c #B8B8B8",
"d	c #B3B3B3",
"e	c #B2B2B2",
"f	c #B5B5B5",
"g	c #A1A1A1",
"h	c #767676",
"i	c #696969",
"j	c #AAAAAA",
"k	c #A9A9A9",
"l	c #797979",
"m	c #636363",
"n	c #626262",
"o	c #707070",
"p	c #9E9E9E",
"q	c #8A8A8A",
"r	c #A4A4A4",
"s	c #333333",
"t	c #919191",
"u	c #989898",
"v	c #848484",
"w	c #959595",
"x	c #9C9C9C",
"y	c #818181",
"z	c #949494",
"A	c #8C8C8C",
"B	c #939393",
"C	c #7D7D7D",
"D	c #888888",
"E	c #969696",
"F	c #737373",
"G	c #484848",
"H	c #515151",
"I	c #505050",
"J	c #4D4D4D",
"K	c #4E4E4E",
"L	c #4B4B4B",
"                ",
"      .+.@      ",
"     .#$%&*     ",
"    =-;>-,')    ",
"   #!,>..~{]^   ",
"  &/(_:<&^[}|1  ",
" 2!3415655178]9 ",
" 0abc-'d[-efghi ",
"   >j>k_kkj[_b  ",
"   ]7]lmnopkpq  ",
"   br,s   t4uv  ",
"   wxy    zw;8  ",
"   ABC    D,}3  ",
"   Ep8    ;u%F  ",
"   GHI    JIKL  ",
"                "};
