/* XPM */
static char *view_refresh_16x16[] = {
/* columns rows colors chars-per-pixel */
"16 16 54 1 ",
"  c #494949",
". c #4C4C4C",
"X c #535353",
"o c #5C5C5C",
"O c #5D5D5D",
"+ c #616161",
"@ c #626262",
"# c #636363",
"$ c #696969",
"% c #6B6B6B",
"& c #6C6C6C",
"* c #6E6E6E",
"= c #717171",
"- c #7A7A7A",
"; c #7D7D7D",
": c #7F7F7F",
"> c #818181",
", c #848484",
"< c #868686",
"1 c #898989",
"2 c #8F8F8F",
"3 c #909090",
"4 c #959595",
"5 c #9C9C9C",
"6 c #9D9D9D",
"7 c #9E9E9E",
"8 c #9F9F9F",
"9 c #A0A0A0",
"0 c #A1A1A1",
"q c #A2A2A2",
"w c #A3A3A3",
"e c #A7A7A7",
"r c #A9A9A9",
"t c #AAAAAA",
"y c #ABABAB",
"u c #AFAFAF",
"i c #B1B1B1",
"p c #B2B2B2",
"a c #B3B3B3",
"s c #B4B4B4",
"d c #B5B5B5",
"f c #B6B6B6",
"g c #B7B7B7",
"h c #B9B9B9",
"j c #BBBBBB",
"k c #BFBFBF",
"l c #C0C0C0",
"z c #C2C2C2",
"x c #C3C3C3",
"c c #C7C7C7",
"v c #C9C9C9",
"b c #CACACA",
"n c #CCCCCC",
"m c None",
/* pixels */
"mmmmmmmmmmmmmmmm",
"mmmmmmmmmmbmmmmm",
"mmmmmmmmmknlmmmm",
"mmmmmmipthxzfmmm",
"mmmmuddddffff6mm",
"mmmwr0999ety9=mm",
"mm15: mmm<94$mmm",
"mm;1mmmmm,1@5kmm",
"mmOO7vlmmX.mcymm",
"mmm<jzammmmsl2mm",
"mmmaffsasddgqmmm",
"mm<rttreeew4+mmm",
"mmm-582&&%ommmmm",
"mmmm*3>mmmmmmmmm",
"mmmmmO#mmmmmmmmm",
"mmmmmmmmmmmmmmmm"
};
