<?xml version="1.0" encoding="UTF-8" standalone="no"?>
<!-- Created with Inkscape (http://www.inkscape.org/) -->

<svg
   xmlns:dc="http://purl.org/dc/elements/1.1/"
   xmlns:cc="http://creativecommons.org/ns#"
   xmlns:rdf="http://www.w3.org/1999/02/22-rdf-syntax-ns#"
   xmlns:svg="http://www.w3.org/2000/svg"
   xmlns="http://www.w3.org/2000/svg"
   xmlns:sodipodi="http://sodipodi.sourceforge.net/DTD/sodipodi-0.dtd"
   xmlns:inkscape="http://www.inkscape.org/namespaces/inkscape"
   id="svg7384"
   sodipodi:docname="user-status-pending-symbolic.svg"
   version="1.1"
   inkscape:version="0.48.3.1 r9886"
   height="16"
   width="16">
  <metadata
     id="metadata90">
    <rdf:RDF>
      <cc:Work
         rdf:about="">
        <dc:format>image/svg+xml</dc:format>
        <dc:type
           rdf:resource="http://purl.org/dc/dcmitype/StillImage" />
        <dc:title>Gnome Symbolic Icon Theme</dc:title>
      </cc:Work>
    </rdf:RDF>
  </metadata>
  <sodipodi:namedview
     inkscape:cy="10.205859"
     pagecolor="#555753"
     borderopacity="1"
     showborder="false"
     inkscape:bbox-paths="false"
     guidetolerance="10"
     inkscape:object-paths="true"
     inkscape:window-width="811"
     showguides="true"
     inkscape:object-nodes="true"
     inkscape:snap-bbox="true"
     inkscape:pageshadow="2"
     inkscape:guide-bbox="true"
     inkscape:snap-nodes="false"
     bordercolor="#666666"
     objecttolerance="10"
     id="namedview88"
     showgrid="true"
     inkscape:window-maximized="0"
     inkscape:window-x="33"
     inkscape:snap-global="true"
     inkscape:window-y="142"
     gridtolerance="10"
     inkscape:window-height="696"
     inkscape:snap-to-guides="true"
     inkscape:current-layer="layer9"
     inkscape:snap-bbox-midpoints="false"
     inkscape:zoom="45.254834"
     inkscape:cx="11.775879"
     inkscape:snap-grids="true"
     inkscape:pageopacity="1">
    <inkscape:grid
       spacingx="1px"
       spacingy="1px"
       id="grid4866"
       empspacing="2"
       enabled="true"
       type="xygrid"
       snapvisiblegridlinesonly="true"
       visible="true" />
  </sodipodi:namedview>
  <title
     id="title9167">Gnome Symbolic Icon Theme</title>
  <defs
     id="defs7386" />
  <g
     inkscape:label="status"
     transform="translate(-141.0002,-357)"
     inkscape:groupmode="layer"
     id="layer9"
     style="display:inline">
    <path
       style="opacity:0.35;color:#bebebe;fill:#bebebe;fill-opacity:1;fill-rule:nonzero;stroke:none;stroke-width:2.4000001;marker:none;visibility:visible;display:inline;overflow:visible;enable-background:accumulate"
       d="M 3.6875 1.0625 C 2.164 1.0625 0.9375 2.289 0.9375 3.8125 L 0.9375 8.25 C 0.9375 9.7735 2.164 11 3.6875 11 L 10 11 L 12.96875 15.0625 L 12.96875 10.90625 C 14.17328 10.61341 15.0625 9.54714 15.0625 8.25 L 15.0625 3.8125 C 15.0625 2.289 13.836 1.0625 12.3125 1.0625 L 3.6875 1.0625 z M 8.21875 1.71875 C 9.04322 1.75715 9.85393 2.03104 10.5625 2.5625 C 10.94937 2.85268 11.28929 3.22597 11.5625 3.625 L 11.5625 2.4375 C 11.5535 2.10771 11.80268 1.78914 12.125 1.71875 C 12.128 1.71375 12.21875 1.71875 12.21875 1.71875 L 13 1.71875 L 13 2.28125 C 13.006 2.33315 13.006 2.38562 13 2.4375 L 13 5.28125 L 13 6 L 12.28125 6 L 9.4375 6 L 9.34375 6 L 8.71875 6 L 8.71875 5.375 C 8.71675 5.3438 8.71675 5.31245 8.71875 5.28125 C 8.71875 4.90491 9.06116 4.5625 9.4375 4.5625 L 10.4375 4.5625 C 10.24793 4.23918 10.02125 3.94564 9.71875 3.71875 C 8.44777 2.76546 6.67205 3.01028 5.71875 4.28125 C 4.76546 5.55224 5.01028 7.32796 6.28125 8.28125 C 7.55221 9.23452 9.32795 8.98972 10.28125 7.71875 C 10.41342 7.54671 10.62682 7.44002 10.84375 7.4375 C 10.85415 7.43727 10.8646 7.43727 10.875 7.4375 L 11 7.4375 L 11.5625 7.4375 L 11.5625 7.96875 C 11.5665 8.01035 11.5665 8.05215 11.5625 8.09375 C 11.5762 8.25812 11.5312 8.42677 11.4375 8.5625 C 10.02026 10.45201 7.32704 10.85474 5.4375 9.4375 C 3.54799 8.02027 3.14528 5.32702 4.5625 3.4375 C 5.27111 2.49275 6.31737 1.90552 7.40625 1.75 C 7.67847 1.7111 7.94393 1.70595 8.21875 1.71875 z "
       transform="translate(141.0002,357)"
       id="path2994" />
  </g>
  <g
     inkscape:label="devices"
     transform="translate(-141.0002,-357)"
     inkscape:groupmode="layer"
     id="layer10" />
  <g
     inkscape:label="apps"
     transform="translate(-141.0002,-357)"
     inkscape:groupmode="layer"
     id="layer11" />
  <g
     inkscape:label="actions"
     transform="translate(-141.0002,-357)"
     inkscape:groupmode="layer"
     id="layer12" />
  <g
     inkscape:label="places"
     transform="translate(-141.0002,-357)"
     inkscape:groupmode="layer"
     id="layer13" />
  <g
     inkscape:label="mimetypes"
     transform="translate(-141.0002,-357)"
     inkscape:groupmode="layer"
     id="layer14" />
  <g
     inkscape:label="emblems"
     transform="translate(-141.0002,-357)"
     inkscape:groupmode="layer"
     id="layer15"
     style="display:inline" />
  <g
     inkscape:label="categories"
     transform="translate(-141.0002,-357)"
     inkscape:groupmode="layer"
     id="g4953"
     style="display:inline" />
</svg>
