#define arrow_big_rev_width 21
#define arrow_big_rev_height 21
static unsigned char arrow_big_rev_bits[] = {
   0xff, 0x1f, 0x0e, 0xff, 0x0f, 0x07, 0xff, 0x87, 0x03, 0xff, 0xc3, 0x01,
   0xff, 0xe1, 0x00, 0xff, 0x70, 0x00, 0x7f, 0x38, 0x00, 0x3f, 0x1c, 0x00,
   0x1f, 0x0e, 0x00, 0x0f, 0x07, 0x00, 0x87, 0x03, 0x00, 0x0f, 0x07, 0x00,
   0x1f, 0x0e, 0x00, 0x3f, 0x1c, 0x00, 0x7f, 0x38, 0x00, 0xff, 0x70, 0x00,
   0xff, 0xe1, 0x00, 0xff, 0xc3, 0x01, 0xff, 0x87, 0x03, 0xff, 0x0f, 0x07,
0xff, 0x1f, 0x0e };
