<?xml version="1.0" encoding="UTF-8" standalone="no"?>
<!-- Created with Inkscape (http://www.inkscape.org/) -->

<svg
   xmlns:dc="http://purl.org/dc/elements/1.1/"
   xmlns:cc="http://creativecommons.org/ns#"
   xmlns:rdf="http://www.w3.org/1999/02/22-rdf-syntax-ns#"
   xmlns:svg="http://www.w3.org/2000/svg"
   xmlns="http://www.w3.org/2000/svg"
   xmlns:xlink="http://www.w3.org/1999/xlink"
   xmlns:sodipodi="http://sodipodi.sourceforge.net/DTD/sodipodi-0.dtd"
   xmlns:inkscape="http://www.inkscape.org/namespaces/inkscape"
   id="svg2816"
   height="22"
   width="22"
   version="1.0"
   inkscape:version="0.48.3.1 r9886"
   sodipodi:docname="applications-microblogging-panel.svg">
  <defs
     id="defs8">
    <linearGradient
       id="linearGradient3753">
      <stop
         style="stop-color:#f0f0f0;stop-opacity:1;"
         offset="0"
         id="stop3755" />
      <stop
         style="stop-color:#828282;stop-opacity:1;"
         offset="1"
         id="stop3757" />
    </linearGradient>
    <linearGradient
       inkscape:collect="always"
       xlink:href="#linearGradient3753"
       id="linearGradient3759"
       x1="0.27976102"
       y1="4.1355934"
       x2="0.49152541"
       y2="21.940678"
       gradientUnits="userSpaceOnUse" />
  </defs>
  <sodipodi:namedview
     pagecolor="#ffffff"
     bordercolor="#666666"
     borderopacity="1"
     objecttolerance="10"
     gridtolerance="10"
     guidetolerance="10"
     inkscape:pageopacity="0"
     inkscape:pageshadow="2"
     inkscape:window-width="943"
     inkscape:window-height="716"
     id="namedview6"
     showgrid="false"
     inkscape:zoom="10.727273"
     inkscape:cx="-3.2627119"
     inkscape:cy="11"
     inkscape:window-x="408"
     inkscape:window-y="289"
     inkscape:window-maximized="0"
     inkscape:current-layer="svg2816" />
  <metadata
     id="metadata8">
    <rdf:RDF>
      <cc:Work
         rdf:about="">
        <dc:format>image/svg+xml</dc:format>
        <dc:type
           rdf:resource="http://purl.org/dc/dcmitype/StillImage" />
        <dc:title />
      </cc:Work>
    </rdf:RDF>
  </metadata>
  <path
     d="M 10.5,4.7 C 8.6406,4.7 6.9362,5.3905 5.6251,6.5125 5.0045,6.2122 3.6493,5.66 2.0001,5.7 c 0,0 1.2426,2.4851 1.6875,3.375 C 3.5704,9.3291 3.4638,9.5878 3.3751,9.8562 2.4853,10.0787 1e-4,10.7 1e-4,10.7 c 4.467e-5,0 1.4673,2 3,2 0,0 0.0246,-0.004 0.0313,0 0.2543,3.91 3.4945,7 7.4686,7 1.965,0 3.756,-0.762 5.094,-2 H 21 L 17.656,14.356 C 17.864,13.669 18,12.955 18,12.2 18,8.06 14.64,4.7 10.5,4.7 z m -3.4999,3 c 0.5525,-10e-5 1,0.4478 1,1 0,0.5524 -0.4476,1 -1,1 -0.5522,0 -1,-0.4478 -1,-1 0,-0.5522 0.448,-1 1,-1 z m 3.1249,3 c 0.995,-0.0042 1.991,0.366 2.75,1.125 1.012,1.012 1.344,2.459 1,3.75 -1.29,0.344 -2.737,0.013 -3.75,-1 C 9.1128,13.562 8.7808,12.115 9.1251,10.825 9.4478,10.739 9.7935,10.701 10.125,10.7 z"
     style="opacity:0.8;fill:#000000;fill-opacity:1;fill-rule:evenodd"
     id="path3753"
     inkscape:connector-curvature="0" />
  <path
     id="path2396"
     style="fill-rule:evenodd;fill:url(#linearGradient3759);fill-opacity:1"
     d="m10.5 4c-1.8594 0-3.5638 0.6905-4.8749 1.8125-0.6206-0.3003-1.9758-0.8525-3.625-0.8125 0 0 1.2426 2.4851 1.6875 3.375-0.1172 0.2541-0.2238 0.5128-0.3125 0.7812-0.8898 0.2225-3.375 0.8438-3.375 0.8438 0.00004467 0 1.4673 2 3 2 0 0 0.0246-0.004 0.0313 0 0.2543 3.91 3.4945 7 7.4686 7 1.965 0 3.756-0.762 5.094-2h5.406l-3.344-3.344c0.208-0.687 0.344-1.401 0.344-2.156 0-4.14-3.36-7.5-7.5-7.5zm-3.4999 3c0.5525-0.0001 1 0.4478 1 1 0 0.5524-0.4476 1-1 1-0.5522 0-1-0.4478-1-1s0.448-1 1-1zm3.1249 3c0.995-0.0042 1.991 0.366 2.75 1.125 1.012 1.012 1.344 2.459 1 3.75-1.29 0.344-2.737 0.013-3.75-1-1.0122-1.013-1.3442-2.46-0.9999-3.75 0.3227-0.086 0.6684-0.124 0.9999-0.125z" />
</svg>
