<?xml version="1.0" encoding="UTF-8" standalone="no"?>
<!-- Created with Inkscape (http://www.inkscape.org/) -->

<svg
   xmlns:dc="http://purl.org/dc/elements/1.1/"
   xmlns:cc="http://creativecommons.org/ns#"
   xmlns:rdf="http://www.w3.org/1999/02/22-rdf-syntax-ns#"
   xmlns:svg="http://www.w3.org/2000/svg"
   xmlns="http://www.w3.org/2000/svg"
   xmlns:sodipodi="http://sodipodi.sourceforge.net/DTD/sodipodi-0.dtd"
   xmlns:inkscape="http://www.inkscape.org/namespaces/inkscape"
   width="16"
   height="16"
   id="svg7217"
   sodipodi:version="0.32"
   inkscape:version="0.48.3.1 r9886"
   sodipodi:docname="folder-download-symbolic.svg"
   inkscape:output_extension="org.inkscape.output.svg.inkscape"
   version="1.1"
   inkscape:export-filename="folder-symbolic.png"
   inkscape:export-xdpi="90"
   inkscape:export-ydpi="90">
  <defs
     id="defs7219" />
  <sodipodi:namedview
     id="base"
     pagecolor="#ffffff"
     bordercolor="#666666"
     borderopacity="1.0"
     inkscape:pageopacity="0.0"
     inkscape:pageshadow="2"
     inkscape:zoom="39.59798"
     inkscape:cx="8.5102435"
     inkscape:cy="8.7713798"
     inkscape:current-layer="layer1"
     showgrid="true"
     inkscape:grid-bbox="true"
     inkscape:document-units="px"
     inkscape:window-width="1248"
     inkscape:window-height="688"
     inkscape:window-x="219"
     inkscape:window-y="263"
     inkscape:window-maximized="0">
    <inkscape:grid
       type="xygrid"
       id="grid2984"
       empspacing="2"
       visible="true"
       enabled="true"
       snapvisiblegridlinesonly="true" />
  </sodipodi:namedview>
  <metadata
     id="metadata7222">
    <rdf:RDF>
      <cc:Work
         rdf:about="">
        <dc:format>image/svg+xml</dc:format>
        <dc:type
           rdf:resource="http://purl.org/dc/dcmitype/StillImage" />
        <dc:title />
      </cc:Work>
    </rdf:RDF>
  </metadata>
  <g
     id="layer1"
     inkscape:label="Layer 1"
     inkscape:groupmode="layer"
     transform="translate(0,-32)">
    <path
       style="fill:#bebebe;fill-opacity:1;stroke:none"
       d="m 2,33 c -0.5384074,0 -1.03221179,0.287415 -1.0208995,1.0409 l -2.01e-4,3.0061 14.0421695,0 -1.51e-4,-1.039099 C 15.024318,35.249172 14.545818,35 14,35 L 7,35 5.4664544,33.279051 C 5.3700642,33.147299 5.1362847,33 5,33 z"
       id="path15"
       inkscape:connector-curvature="0"
       sodipodi:nodetypes="sccccsccss" />
    <path
       style="fill:#bebebe;fill-opacity:1;stroke:none;display:inline;enable-background:new"
       d="m 0.5,5.99375 c -0.2027474,0 -0.3584984,0.126882 -0.34375,0.3125 l 0.4375,8.4185 c 0.0106903,0.185957 0.2347561,0.3125 0.4375,0.3125 l 13.9375,0 c 0.202747,0 0.42693,-0.126543 0.4375,-0.3125 l 0.4375,-8.4185 C 15.85923,6.120632 15.702747,5.99375 15.5,5.99375 z M 8,7.963 c 0.55228,0 1,0.4477 1,1 0,0.5523 -0.44772,1 -1,1 -0.55228,0 -1,-0.4477 -1,-1 0,-0.5523 0.44772,-1 1,-1 z m -2.09375,2 c 0.29918,-0.0249 0.60713,0.0935 0.8125,0.3125 l 1.3125,1.28125 1.25,-1.3125 C 9.4691,10.05637 9.72035,9.96131 10,9.963 l 1,0.03125 0,1 c -6.5e-4,0.2574 -0.09427,0.50057 -0.28125,0.6875 L 8.75,13.713 c -0.37177,0.38424 -1.06573,0.38424 -1.4375,0 l -2,-2.03125 C 5.1208,11.50471 4.99904,11.26413 5,10.99425 l 0,-1 c 0,0 0.87502,-0.03225 0.90625,-0.03125 z"
       transform="translate(0,32)"
       id="path39063"
       inkscape:connector-curvature="0"
       sodipodi:nodetypes="sccssccssssssscccccccccccccc" />
  </g>
</svg>
