<?xml version="1.0" encoding="UTF-8" standalone="no"?>
<!-- Created with Inkscape (http://www.inkscape.org/) -->

<svg
   xmlns:dc="http://purl.org/dc/elements/1.1/"
   xmlns:cc="http://creativecommons.org/ns#"
   xmlns:rdf="http://www.w3.org/1999/02/22-rdf-syntax-ns#"
   xmlns:svg="http://www.w3.org/2000/svg"
   xmlns="http://www.w3.org/2000/svg"
   xmlns:sodipodi="http://sodipodi.sourceforge.net/DTD/sodipodi-0.dtd"
   xmlns:inkscape="http://www.inkscape.org/namespaces/inkscape"
   width="16"
   height="16"
   id="svg7217"
   sodipodi:version="0.32"
   inkscape:version="0.48.3.1 r9886"
   sodipodi:docname="folder-publicshare-symbolic.svg"
   inkscape:output_extension="org.inkscape.output.svg.inkscape"
   version="1.1"
   inkscape:export-filename="folder-symbolic.png"
   inkscape:export-xdpi="90"
   inkscape:export-ydpi="90">
  <defs
     id="defs7219" />
  <sodipodi:namedview
     id="base"
     pagecolor="#ffffff"
     bordercolor="#666666"
     borderopacity="1.0"
     inkscape:pageopacity="0.0"
     inkscape:pageshadow="2"
     inkscape:zoom="39.59798"
     inkscape:cx="9.5205374"
     inkscape:cy="6.2726115"
     inkscape:current-layer="layer1"
     showgrid="true"
     inkscape:grid-bbox="true"
     inkscape:document-units="px"
     inkscape:window-width="1248"
     inkscape:window-height="688"
     inkscape:window-x="219"
     inkscape:window-y="263"
     inkscape:window-maximized="0">
    <inkscape:grid
       type="xygrid"
       id="grid3002"
       empspacing="2"
       visible="true"
       enabled="true"
       snapvisiblegridlinesonly="true" />
  </sodipodi:namedview>
  <metadata
     id="metadata7222">
    <rdf:RDF>
      <cc:Work
         rdf:about="">
        <dc:format>image/svg+xml</dc:format>
        <dc:type
           rdf:resource="http://purl.org/dc/dcmitype/StillImage" />
        <dc:title />
      </cc:Work>
    </rdf:RDF>
  </metadata>
  <g
     id="layer1"
     inkscape:label="Layer 1"
     inkscape:groupmode="layer"
     transform="translate(0,-32)">
    <path
       style="fill:#bebebe;fill-opacity:1;stroke:none"
       d="m 2,33 c -0.5384074,0 -1.03220504,0.287415 -1.02089275,1.0409 l -2.0099e-4,3.0061 14.04216374,0 -1.52e-4,-1.039099 C 15.024318,35.249172 14.545818,35 14,35 L 7,35 5.4664544,33.279052 C 5.3700642,33.147299 5.1362847,33 5,33 z"
       id="path15"
       inkscape:connector-curvature="0"
       sodipodi:nodetypes="sccccsccss" />
    <path
       style="fill:#bebebe;fill-opacity:1;stroke:none;display:inline;enable-background:new"
       d="m 0.5,5.99375 c -0.2027474,0 -0.3584984,0.126882 -0.34375,0.3125 l 0.4375,8.4125 c 0.0106903,0.185957 0.2347561,0.3125 0.4375,0.3125 l 13.9375,0 c 0.202747,0 0.42693,-0.126542 0.4375,-0.3125 l 0.4375,-8.4125 C 15.85923,6.120632 15.702747,5.99375 15.5,5.99375 z M 3,7 7,7 5.46875,8.53125 l 1.5,1.375 c -0.45035,0.2493 -0.87662,0.67 -1.125,1.0625 L 4.40625,9.53125 3,11 z m 6,0 4,0 0,4 -1.40625,-1.46875 -1.4375,1.4375 C 9.90787,10.57623 9.4816,10.15551 9.03125,9.90625 l 1.5,-1.375 z m -1,4 c 0.8284279,0 1.5,0.671572 1.5,1.5 C 9.5,13.328428 8.8284279,14 8,14 7.1715721,14 6.5,13.328428 6.5,12.5 6.5,11.671572 7.1715721,11 8,11 z"
       transform="translate(0,32)"
       id="path39063"
       inkscape:connector-curvature="0"
       sodipodi:nodetypes="sccssccssccccccccccccccccsssss" />
  </g>
</svg>
