<?xml version="1.0" encoding="UTF-8" standalone="no"?>
<!-- Created with Inkscape (http://www.inkscape.org/) -->

<svg
   xmlns:dc="http://purl.org/dc/elements/1.1/"
   xmlns:cc="http://creativecommons.org/ns#"
   xmlns:rdf="http://www.w3.org/1999/02/22-rdf-syntax-ns#"
   xmlns:svg="http://www.w3.org/2000/svg"
   xmlns="http://www.w3.org/2000/svg"
   xmlns:sodipodi="http://sodipodi.sourceforge.net/DTD/sodipodi-0.dtd"
   xmlns:inkscape="http://www.inkscape.org/namespaces/inkscape"
   width="16"
   height="16"
   id="svg7217"
   sodipodi:version="0.32"
   inkscape:version="0.48.3.1 r9886"
   sodipodi:docname="folder-documents-symbolic.svg"
   inkscape:output_extension="org.inkscape.output.svg.inkscape"
   version="1.1"
   inkscape:export-filename="folder-symbolic.png"
   inkscape:export-xdpi="90"
   inkscape:export-ydpi="90">
  <defs
     id="defs7219" />
  <sodipodi:namedview
     id="base"
     pagecolor="#ffffff"
     bordercolor="#666666"
     borderopacity="1.0"
     inkscape:pageopacity="0.0"
     inkscape:pageshadow="2"
     inkscape:zoom="56"
     inkscape:cx="8.5014881"
     inkscape:cy="11.143023"
     inkscape:current-layer="layer1"
     showgrid="true"
     inkscape:grid-bbox="true"
     inkscape:document-units="px"
     inkscape:window-width="1248"
     inkscape:window-height="688"
     inkscape:window-x="218"
     inkscape:window-y="261"
     inkscape:window-maximized="0">
    <inkscape:grid
       type="xygrid"
       id="grid2984"
       empspacing="2"
       visible="true"
       enabled="true"
       snapvisiblegridlinesonly="true" />
  </sodipodi:namedview>
  <metadata
     id="metadata7222">
    <rdf:RDF>
      <cc:Work
         rdf:about="">
        <dc:format>image/svg+xml</dc:format>
        <dc:type
           rdf:resource="http://purl.org/dc/dcmitype/StillImage" />
        <dc:title />
      </cc:Work>
    </rdf:RDF>
  </metadata>
  <g
     id="layer1"
     inkscape:label="Layer 1"
     inkscape:groupmode="layer"
     transform="translate(0,-32)">
    <path
       style="fill:#bebebe;fill-opacity:1;stroke:none"
       d="m 2,33 c -0.5384074,0 -1.03193562,0.287415 -1.02062332,1.0409 l -3.6992e-4,3.0061 14.04198624,0 -1.14e-4,-1.039099 C 15.024279,35.249172 14.545818,35 14,35 L 7,35 5.4666233,33.279052 C 5.3702331,33.147299 5.1362847,33 5,33 z"
       id="path15"
       inkscape:connector-curvature="0"
       sodipodi:nodetypes="sccccsccss" />
    <path
       style="fill:#bebebe;fill-opacity:1;stroke:none;display:inline;enable-background:new"
       d="m 0.5,5.99375 c -0.2027474,0 -0.3584984,0.126882 -0.34375,0.3125 l 0.4375,8.4185 c 0.0106903,0.185957 0.2347561,0.3125 0.4375,0.3125 l 13.9375,0 c 0.202747,0 0.42693,-0.126543 0.4375,-0.3125 l 0.4375,-8.4185 C 15.85923,6.120632 15.702747,5.99375 15.5,5.99375 z M 5,7 8,7 11,10.03125 11,14 5,14 z m 2,1 0,0.5 0,2 0,0.5 0.5,0 2,0 0.5,0 0,-1 L 9.5,10 8,10 8,8.5 8,8 z"
       transform="translate(0,32)"
       id="path39063"
       inkscape:connector-curvature="0"
       sodipodi:nodetypes="sccssccssccccccccccccccccccc" />
  </g>
</svg>
