<?xml version="1.0" encoding="UTF-8" standalone="no"?>
<!-- Created with Inkscape (http://www.inkscape.org/) -->

<svg
   xmlns:dc="http://purl.org/dc/elements/1.1/"
   xmlns:cc="http://creativecommons.org/ns#"
   xmlns:rdf="http://www.w3.org/1999/02/22-rdf-syntax-ns#"
   xmlns:svg="http://www.w3.org/2000/svg"
   xmlns="http://www.w3.org/2000/svg"
   xmlns:xlink="http://www.w3.org/1999/xlink"
   xmlns:sodipodi="http://sodipodi.sourceforge.net/DTD/sodipodi-0.dtd"
   xmlns:inkscape="http://www.inkscape.org/namespaces/inkscape"
   version="1.0"
   width="48"
   height="48"
   id="svg1903"
   sodipodi:version="0.32"
   inkscape:version="0.48.3.1 r9886"
   sodipodi:docname="gnome-main-menu.svg"
   inkscape:output_extension="org.inkscape.output.svg.inkscape"
   inkscape:export-filename="gnome-foot.png"
   inkscape:export-xdpi="90"
   inkscape:export-ydpi="90">
  <metadata
     id="metadata23">
    <rdf:RDF>
      <cc:Work
         rdf:about="">
        <dc:format>image/svg+xml</dc:format>
        <dc:type
           rdf:resource="http://purl.org/dc/dcmitype/StillImage" />
        <dc:title></dc:title>
      </cc:Work>
    </rdf:RDF>
  </metadata>
  <sodipodi:namedview
     inkscape:window-height="708"
     inkscape:window-width="876"
     inkscape:pageshadow="2"
     inkscape:pageopacity="0.0"
     guidetolerance="10.0"
     gridtolerance="10.0"
     objecttolerance="10.0"
     borderopacity="1.0"
     bordercolor="#666666"
     pagecolor="#ffffff"
     id="base"
     showgrid="false"
     inkscape:zoom="5.3529167"
     inkscape:cx="7.7303656"
     inkscape:cy="28.368629"
     inkscape:window-x="23"
     inkscape:window-y="76"
     inkscape:current-layer="svg1903"
     inkscape:window-maximized="0" />
  <defs
     id="defs1905">
    <linearGradient
       id="linearGradient3757">
      <stop
         style="stop-color:#dddddd;stop-opacity:1;"
         offset="0"
         id="stop3759" />
      <stop
         style="stop-color:#838383;stop-opacity:1;"
         offset="1"
         id="stop3761" />
    </linearGradient>
    <linearGradient
       inkscape:collect="always"
       xlink:href="#linearGradient3757"
       id="linearGradient3763"
       x1="95.361267"
       y1="0.71336639"
       x2="94.714684"
       y2="116.04877"
       gradientUnits="userSpaceOnUse" />
    <linearGradient
       inkscape:collect="always"
       xlink:href="#linearGradient3757"
       id="linearGradient3765"
       gradientUnits="userSpaceOnUse"
       x1="95.361267"
       y1="0.71336639"
       x2="94.714684"
       y2="116.04877" />
    <linearGradient
       inkscape:collect="always"
       xlink:href="#linearGradient3757"
       id="linearGradient3767"
       gradientUnits="userSpaceOnUse"
       x1="95.361267"
       y1="0.71336639"
       x2="94.714684"
       y2="116.04877" />
    <linearGradient
       inkscape:collect="always"
       xlink:href="#linearGradient3757"
       id="linearGradient3769"
       gradientUnits="userSpaceOnUse"
       x1="95.361267"
       y1="0.71336639"
       x2="94.714684"
       y2="116.04877" />
    <linearGradient
       inkscape:collect="always"
       xlink:href="#linearGradient3757"
       id="linearGradient3771"
       gradientUnits="userSpaceOnUse"
       x1="95.361267"
       y1="0.71336639"
       x2="94.714684"
       y2="116.04877" />
    <linearGradient
       inkscape:collect="always"
       xlink:href="#linearGradient3757"
       id="linearGradient3773"
       gradientUnits="userSpaceOnUse"
       x1="95.361267"
       y1="0.71336639"
       x2="94.714684"
       y2="116.04877" />
    <linearGradient
       inkscape:collect="always"
       xlink:href="#linearGradient3757"
       id="linearGradient3775"
       gradientUnits="userSpaceOnUse"
       x1="95.361267"
       y1="0.71336639"
       x2="94.714684"
       y2="116.04877" />
    <filter
       inkscape:collect="always"
       id="filter3852">
      <feGaussianBlur
         inkscape:collect="always"
         stdDeviation="2.6809399"
         id="feGaussianBlur3854" />
    </filter>
  </defs>
  <g
     id="g3838"
     style="fill:#000000;fill-opacity:1;fill-rule:nonzero;stroke:none;filter:url(#filter3852)"
     transform="matrix(0.35337454,0,0,0.35337454,7.2006367,3.9362247)">
    <g
       id="g3840"
       style="fill:#000000;fill-opacity:1">
      <path
         inkscape:connector-curvature="0"
         id="path3842"
         style="fill:#000000;fill-opacity:1"
         d="M 86.068,0 C 61.466,0 56.851,35.041 70.691,35.041 84.529,35.041 110.671,0 86.068,0 z" />
      <path
         inkscape:connector-curvature="0"
         id="path3844"
         style="fill:#000000;fill-opacity:1"
         d="M 45.217,30.699 C 52.586,31.149 60.671,2.577 46.821,4.374 32.976,6.171 37.845,30.249 45.217,30.699 z" />
      <path
         inkscape:connector-curvature="0"
         id="path3846"
         style="fill:#000000;fill-opacity:1"
         d="M 11.445,48.453 C 16.686,46.146 12.12,23.581 3.208,29.735 -5.7,35.89 6.204,50.759 11.445,48.453 z" />
      <path
         inkscape:connector-curvature="0"
         id="path3848"
         style="fill:#000000;fill-opacity:1"
         d="M 26.212,36.642 C 32.451,35.37 32.793,9.778 21.667,14.369 10.539,18.961 19.978,37.916 26.212,36.642 l 0,0 z" />
      <path
         inkscape:connector-curvature="0"
         id="path3850"
         style="fill:#000000;fill-opacity:1"
         d="m 58.791,93.913 c 1.107,8.454 -6.202,12.629 -13.36,7.179 C 22.644,83.743 83.16,75.088 79.171,51.386 75.86,31.712 15.495,37.769 8.621,68.553 3.968,89.374 27.774,118.26 52.614,118.26 c 12.22,0 26.315,-11.034 28.952,-25.012 C 83.58,82.589 57.867,86.86 58.791,93.913 l 0,0 z" />
    </g>
  </g>
  <g
     transform="matrix(0.35337454,0,0,0.35337454,7.0009346,2.9049269)"
     style="fill:url(#linearGradient3763);fill-opacity:1;fill-rule:nonzero;stroke:none"
     id="g3771">
    <g
       style="fill:url(#linearGradient3775);fill-opacity:1"
       id="g3773">
      <path
         d="M 86.068,0 C 61.466,0 56.851,35.041 70.691,35.041 84.529,35.041 110.671,0 86.068,0 z"
         style="fill:url(#linearGradient3765);fill-opacity:1"
         id="path3775"
         inkscape:connector-curvature="0" />
      <path
         d="M 45.217,30.699 C 52.586,31.149 60.671,2.577 46.821,4.374 32.976,6.171 37.845,30.249 45.217,30.699 z"
         style="fill:url(#linearGradient3767);fill-opacity:1"
         id="path3777"
         inkscape:connector-curvature="0" />
      <path
         d="M 11.445,48.453 C 16.686,46.146 12.12,23.581 3.208,29.735 -5.7,35.89 6.204,50.759 11.445,48.453 z"
         style="fill:url(#linearGradient3769);fill-opacity:1"
         id="path3779"
         inkscape:connector-curvature="0" />
      <path
         d="M 26.212,36.642 C 32.451,35.37 32.793,9.778 21.667,14.369 10.539,18.961 19.978,37.916 26.212,36.642 l 0,0 z"
         style="fill:url(#linearGradient3771);fill-opacity:1"
         id="path3781"
         inkscape:connector-curvature="0" />
      <path
         d="m 58.791,93.913 c 1.107,8.454 -6.202,12.629 -13.36,7.179 C 22.644,83.743 83.16,75.088 79.171,51.386 75.86,31.712 15.495,37.769 8.621,68.553 3.968,89.374 27.774,118.26 52.614,118.26 c 12.22,0 26.315,-11.034 28.952,-25.012 C 83.58,82.589 57.867,86.86 58.791,93.913 l 0,0 z"
         style="fill:url(#linearGradient3773);fill-opacity:1"
         id="path3783"
         inkscape:connector-curvature="0" />
    </g>
  </g>
</svg>
