<?xml version="1.0" encoding="UTF-8" standalone="no"?>
<!-- This is a derivative work based on the Debian logo  -->

<!-- Copyleft: SZERVAC Attila - sas - @ 321.hu -->

<!-- Created with Inkscape (http://www.inkscape.org/) -->

<svg
   xmlns:dc="http://purl.org/dc/elements/1.1/"
   xmlns:cc="http://creativecommons.org/ns#"
   xmlns:rdf="http://www.w3.org/1999/02/22-rdf-syntax-ns#"
   xmlns:svg="http://www.w3.org/2000/svg"
   xmlns="http://www.w3.org/2000/svg"
   xmlns:xlink="http://www.w3.org/1999/xlink"
   xmlns:sodipodi="http://sodipodi.sourceforge.net/DTD/sodipodi-0.dtd"
   xmlns:inkscape="http://www.inkscape.org/namespaces/inkscape"
   version="1.0"
   x="0.0000000"
   y="0.0000000"
   width="48"
   height="48"
   id="svg1"
   sodipodi:version="0.32"
   inkscape:version="0.48.3.1 r9886"
   sodipodi:docname="swirl-foot.svg"
   inkscape:output_extension="org.inkscape.output.svg.inkscape"
   inkscape:export-filename="debian-swirl.png"
   inkscape:export-xdpi="90"
   inkscape:export-ydpi="90">
  <sodipodi:namedview
     id="base"
     pagecolor="#ffffff"
     bordercolor="#666666"
     borderopacity="1.0"
     inkscape:pageopacity="0.0"
     inkscape:pageshadow="2"
     inkscape:zoom="5.6568542"
     inkscape:cx="21.492648"
     inkscape:cy="36.032032"
     inkscape:window-width="1016"
     inkscape:window-height="713"
     inkscape:window-x="0"
     inkscape:window-y="25"
     inkscape:current-layer="svg1"
     showgrid="false"
     inkscape:window-maximized="0" />
  <defs
     id="defs3">
    <linearGradient
       id="linearGradient3765">
      <stop
         style="stop-color:#e6e6e6;stop-opacity:1;"
         offset="0"
         id="stop3767" />
      <stop
         style="stop-color:#828282;stop-opacity:1;"
         offset="1"
         id="stop3769" />
    </linearGradient>
    <linearGradient
       id="linearGradient3757">
      <stop
         id="stop3759"
         offset="0"
         style="stop-color:#dddddd;stop-opacity:1;" />
      <stop
         id="stop3761"
         offset="1"
         style="stop-color:#838383;stop-opacity:1;" />
    </linearGradient>
    <filter
       inkscape:collect="always"
       id="filter4212">
      <feGaussianBlur
         inkscape:collect="always"
         stdDeviation="0.95315478"
         id="feGaussianBlur4214" />
    </filter>
    <linearGradient
       inkscape:collect="always"
       xlink:href="#linearGradient3765"
       id="linearGradient4216"
       gradientUnits="userSpaceOnUse"
       x1="2747.4834"
       y1="4420.7461"
       x2="2744.2947"
       y2="3351.0432" />
    <linearGradient
       inkscape:collect="always"
       xlink:href="#linearGradient3765"
       id="linearGradient4218"
       gradientUnits="userSpaceOnUse"
       x1="2747.4834"
       y1="4420.7461"
       x2="2744.2947"
       y2="3351.0432" />
    <linearGradient
       inkscape:collect="always"
       xlink:href="#linearGradient3765"
       id="linearGradient4220"
       gradientUnits="userSpaceOnUse"
       x1="2747.4834"
       y1="4420.7461"
       x2="2744.2947"
       y2="3351.0432" />
    <linearGradient
       inkscape:collect="always"
       xlink:href="#linearGradient3765"
       id="linearGradient4222"
       gradientUnits="userSpaceOnUse"
       x1="2747.4834"
       y1="4420.7461"
       x2="2744.2947"
       y2="3351.0432" />
    <linearGradient
       inkscape:collect="always"
       xlink:href="#linearGradient3765"
       id="linearGradient4224"
       gradientUnits="userSpaceOnUse"
       x1="2747.4834"
       y1="4420.7461"
       x2="2744.2947"
       y2="3351.0432" />
    <linearGradient
       inkscape:collect="always"
       xlink:href="#linearGradient3765"
       id="linearGradient4226"
       gradientUnits="userSpaceOnUse"
       x1="2747.4834"
       y1="4420.7461"
       x2="2744.2947"
       y2="3351.0432" />
    <linearGradient
       inkscape:collect="always"
       xlink:href="#linearGradient3765"
       id="linearGradient4228"
       gradientUnits="userSpaceOnUse"
       x1="2747.4834"
       y1="4420.7461"
       x2="2744.2947"
       y2="3351.0432" />
    <linearGradient
       inkscape:collect="always"
       xlink:href="#linearGradient3765"
       id="linearGradient4230"
       gradientUnits="userSpaceOnUse"
       x1="2747.4834"
       y1="4420.7461"
       x2="2744.2947"
       y2="3351.0432" />
    <linearGradient
       inkscape:collect="always"
       xlink:href="#linearGradient3765"
       id="linearGradient4232"
       gradientUnits="userSpaceOnUse"
       x1="2747.4834"
       y1="4420.7461"
       x2="2744.2947"
       y2="3351.0432" />
    <linearGradient
       inkscape:collect="always"
       xlink:href="#linearGradient3765"
       id="linearGradient4234"
       gradientUnits="userSpaceOnUse"
       x1="2747.4834"
       y1="4420.7461"
       x2="2744.2947"
       y2="3351.0432" />
    <linearGradient
       inkscape:collect="always"
       xlink:href="#linearGradient3765"
       id="linearGradient4236"
       gradientUnits="userSpaceOnUse"
       x1="2747.4834"
       y1="4420.7461"
       x2="2744.2947"
       y2="3351.0432" />
    <linearGradient
       inkscape:collect="always"
       xlink:href="#linearGradient3765"
       id="linearGradient4238"
       gradientUnits="userSpaceOnUse"
       x1="2747.4834"
       y1="4420.7461"
       x2="2744.2947"
       y2="3351.0432" />
    <linearGradient
       inkscape:collect="always"
       xlink:href="#linearGradient3765"
       id="linearGradient4240"
       gradientUnits="userSpaceOnUse"
       x1="2747.4834"
       y1="4420.7461"
       x2="2744.2947"
       y2="3351.0432" />
    <linearGradient
       inkscape:collect="always"
       xlink:href="#linearGradient3765"
       id="linearGradient4242"
       gradientUnits="userSpaceOnUse"
       x1="2747.4834"
       y1="4420.7461"
       x2="2744.2947"
       y2="3351.0432" />
    <linearGradient
       inkscape:collect="always"
       xlink:href="#linearGradient3757"
       id="linearGradient4244"
       gradientUnits="userSpaceOnUse"
       x1="95.361267"
       y1="0.71336639"
       x2="94.714684"
       y2="116.04877" />
    <linearGradient
       inkscape:collect="always"
       xlink:href="#linearGradient3757"
       id="linearGradient4246"
       gradientUnits="userSpaceOnUse"
       x1="95.361267"
       y1="0.71336639"
       x2="94.714684"
       y2="116.04877" />
    <linearGradient
       inkscape:collect="always"
       xlink:href="#linearGradient3757"
       id="linearGradient4248"
       gradientUnits="userSpaceOnUse"
       x1="95.361267"
       y1="0.71336639"
       x2="94.714684"
       y2="116.04877" />
    <linearGradient
       inkscape:collect="always"
       xlink:href="#linearGradient3757"
       id="linearGradient4250"
       gradientUnits="userSpaceOnUse"
       x1="95.361267"
       y1="0.71336639"
       x2="94.714684"
       y2="116.04877" />
    <linearGradient
       inkscape:collect="always"
       xlink:href="#linearGradient3757"
       id="linearGradient4252"
       gradientUnits="userSpaceOnUse"
       x1="95.361267"
       y1="0.71336639"
       x2="94.714684"
       y2="116.04877" />
    <linearGradient
       inkscape:collect="always"
       xlink:href="#linearGradient3757"
       id="linearGradient4254"
       gradientUnits="userSpaceOnUse"
       x1="95.361267"
       y1="0.71336639"
       x2="94.714684"
       y2="116.04877" />
  </defs>
  <metadata
     id="metadata954">
    <rdf:RDF>
      <cc:Work
         rdf:about="">
        <dc:format>image/svg+xml</dc:format>
        <dc:type
           rdf:resource="http://purl.org/dc/dcmitype/StillImage" />
        <dc:title />
      </cc:Work>
    </rdf:RDF>
  </metadata>
  <g
     id="g4166"
     style="fill:#000000;fill-opacity:1;filter:url(#filter4212)"
     transform="translate(0,0.21243193)">
    <g
       transform="matrix(0.02745991,0,0,-0.02745991,-62.763647,137.19962)"
       style="fill:#000000;fill-opacity:1"
       id="g4168">
      <g
         id="g4170"
         style="fill:#000000;fill-opacity:1">
        <path
           d="m 3255.5,3850.9 c -18,-0.2 3.4,-9.3 26.8,-12.9 6.5,5.1 12.4,10.2 17.6,15.2 -14.6,-3.6 -29.5,-3.7 -44.4,-2.3"
           id="path4172"
           style="fill:#000000;fill-opacity:1"
           inkscape:connector-curvature="0" />
        <path
           d="m 3351.9,3874.9 c 10.7,14.8 18.5,31 21.3,47.7 -2.4,-11.9 -8.9,-22.2 -15,-33.1 -33.6,-21.1 -3.2,12.6 0,25.4 -36.1,-45.5 -5,-27.3 -6.3,-40"
           id="path4174"
           style="fill:#000000;fill-opacity:1"
           inkscape:connector-curvature="0" />
        <path
           d="m 3387.5,3967.6 c 2.2,32.3 -6.4,22.1 -9.2,9.8 3.3,-1.8 6,-22.8 9.2,-9.8"
           id="path4176"
           style="fill:#000000;fill-opacity:1"
           inkscape:connector-curvature="0" />
        <path
           d="m 3187.3,4409.9 c 9.6,-1.7 20.8,-3.1 19.2,-5.3 10.5,2.3 12.8,4.4 -19.2,5.3"
           id="path4178"
           style="fill:#000000;fill-opacity:1"
           inkscape:connector-curvature="0" />
        <path
           d="m 3206.5,4404.6 -6.8,-1.5 6.3,0.6 0.5,0.9"
           id="path4180"
           style="fill:#000000;fill-opacity:1"
           inkscape:connector-curvature="0" />
        <path
           d="m 3505.5,3955.3 c 1.1,-29.1 -8.5,-43.1 -17.1,-68.1 l -15.5,-7.8 c -12.7,-24.6 1.2,-15.6 -7.9,-35.3 -19.8,-17.6 -60.2,-55.2 -73.1,-58.6 -9.5,0.2 6.4,11.1 8.4,15.4 -26.5,-18.2 -21.3,-27.4 -61.9,-38.5 l -1.2,2.7 c -100.2,-47.2 -239.3,46.2 -237.5,173.7 -1.1,-8.1 -3,-6.1 -5.3,-9.4 -5.1,65.6 30.3,131.5 90.1,158.4 58.5,28.9 127,17 168.9,-22 -23,30.1 -68.8,62.1 -123.1,59.1 -53.1,-0.8 -102.9,-34.6 -119.5,-71.3 -27.2,-17.2 -30.4,-66.1 -42.2,-75.1 -16,-117.3 30,-168.1 107.8,-227.7 12.3,-8.3 3.5,-9.5 5.1,-15.8 -25.8,12.1 -49.5,30.4 -69,52.8 10.4,-15.1 21.5,-29.9 35.9,-41.4 -24.4,8.3 -56.9,59.1 -66.4,61.2 42,-75.3 170.5,-132 237.8,-103.9 -31.2,-1.1 -70.7,-0.6 -105.7,12.3 -14.7,7.6 -34.7,23.2 -31.1,26.2 91.8,-34.3 186.7,-26 266.1,37.7 20.2,15.7 42.3,42.5 48.7,42.9 -9.6,-14.5 1.6,-7 -5.7,-19.7 20.1,32.5 -8.8,13.2 20.8,56.1 l 10.9,-15.1 c -4.1,27 33.5,59.7 29.6,102.4 8.7,13 9.7,-14.1 0.5,-44.1 12.7,33.3 3.4,38.7 6.6,66.1 3.5,-9.2 8.2,-19 10.5,-28.7 -8.2,32.1 8.5,54.1 12.7,72.8 -4.1,1.8 -12.8,-14.2 -14.8,23.8 0.3,16.5 4.6,8.6 6.3,12.7 -3.3,1.8 -11.8,14.5 -16.9,38.7 3.7,5.8 10,-14.7 15.1,-15.6 -3.3,19.3 -9,34 -9.2,48.8 -14.9,31.2 -5.3,-4.1 -17.4,13.4 -15.8,49.5 13.2,11.5 15.2,34 24,-34.9 37.7,-88.8 44,-111.2 -4.8,27.2 -12.5,53.7 -22,79.2 7.3,-3.1 -11.8,56.1 9.5,16.9 -22.7,83.5 -97.2,161.6 -165.7,198.2 8.4,-7.7 19,-17.3 15.2,-18.8 -34.1,20.3 -28.1,21.9 -33,30.4 -27.7,11.3 -29.5,-0.9 -47.9,0 -52.3,27.7 -62.4,24.8 -110.5,42.2 l 2.2,-10.3 c -34.7,11.6 -40.4,-4.3 -77.9,0 -2.2,1.8 12,6.4 23.8,8.1 -33.5,-4.4 -31.9,6.7 -64.7,-1.2 8.1,5.7 16.6,9.5 25.2,14.3 -27.3,-1.7 -65.2,-15.9 -53.5,-3 -44.5,-19.9 -123.7,-47.8 -168.1,-89.4 l -1.4,9.3 c -20.4,-24.4 -88.7,-72.9 -94.2,-104.6 l -5.4,-1.3 c -10.6,-17.9 -17.5,-38.2 -25.9,-56.6 -13.8,-23.7 -20.3,-9.1 -18.3,-12.8 -27.2,-55.3 -40.8,-101.7 -52.5,-139.7 8.4,-12.5 0.2,-75 3.4,-125 -13.7,-247 173.4,-486.9 377.8,-542.3 30,-10.7 74.6,-10.3 112.5,-11.4 -44.8,12.8 -50.5,6.8 -94.1,22 -31.4,14.8 -38.3,31.7 -60.6,51 l 8.8,-15.6 c -43.6,15.5 -25.4,19.2 -60.9,30.4 l 9.4,12.3 c -14.1,1.1 -37.4,23.8 -43.8,36.5 l -15.5,-0.7 c -18.6,23 -28.5,39.5 -27.8,52.4 l -5,-8.9 c -5.7,9.7 -68.4,86 -35.9,68.3 -6,5.5 -14,9 -22.8,24.8 l 6.7,7.6 c -15.7,20.1 -28.9,46 -27.9,54.6 8.4,-11.3 14.2,-13.4 19.9,-15.3 -39.5,98.1 -41.8,5.4 -71.7,99.9 l 6.3,0.5 c -4.9,7.3 -7.8,15.3 -11.7,23.1 l 2.7,27.5 c -28.4,32.9 -7.9,140 -3.8,198.7 2.9,23.9 23.8,49.3 39.7,89.2 l -9.7,1.7 c 18.5,32.3 105.9,129.9 146.3,124.9 19.6,24.6 -3.9,0.1 -7.7,6.3 43,44.5 56.5,31.4 85.6,39.4 31.3,18.6 -26.9,-7.2 -12,7.1 54.1,13.8 38.3,31.5 109,38.5 7.4,-4.3 -17.3,-6.6 -23.5,-12.1 45.1,22.1 142.7,17.1 206.1,-12.2 73.6,-34.4 156.3,-136.1 159.5,-231.7 l 3.8,-1 c -1.9,-38 5.8,-82 -7.6,-122.4 l 9.1,19.1"
           id="path4182"
           style="fill:#000000;fill-opacity:1"
           inkscape:connector-curvature="0" />
        <path
           d="m 3059.3,3826.2 -2.5,-12.6 c 11.8,-16 21.2,-33.4 36.3,-45.9 -10.9,21.1 -18.9,29.9 -33.8,58.5"
           id="path4184"
           style="fill:#000000;fill-opacity:1"
           inkscape:connector-curvature="0" />
        <path
           d="m 3087.2,3827.3 c -6.2,6.9 -9.9,15.3 -14,23.5 3.9,-14.5 12,-27 19.6,-39.8 l -5.6,16.3"
           id="path4186"
           style="fill:#000000;fill-opacity:1"
           inkscape:connector-curvature="0" />
        <path
           d="m 3581.3,3934.7 -2.6,-6.6 c -4.9,-34.4 -15.3,-68.4 -31.4,-99.9 17.7,33.2 29.2,69.6 34,106.5"
           id="path4188"
           style="fill:#000000;fill-opacity:1"
           inkscape:connector-curvature="0" />
        <path
           d="m 3190.9,4418.5 c 12.1,4.4 29.8,2.4 42.7,5.4 -16.8,-1.4 -33.5,-2.3 -50,-4.4 l 7.3,-1"
           id="path4190"
           style="fill:#000000;fill-opacity:1"
           inkscape:connector-curvature="0" />
        <path
           d="m 2764.3,4191.7 c 2.8,-25.9 -19.5,-36 5,-18.9 13.1,29.5 -5.2,8.1 -5,18.9"
           id="path4192"
           style="fill:#000000;fill-opacity:1"
           inkscape:connector-curvature="0" />
        <path
           d="m 2735.6,4071.7 c 5.6,17.3 6.6,27.7 8.8,37.7 -15.6,-19.9 -7.2,-24.2 -8.8,-37.7"
           id="path4194"
           style="fill:#000000;fill-opacity:1"
           inkscape:connector-curvature="0" />
      </g>
    </g>
    <g
       transform="matrix(0.34560437,0,0,0.34560437,7.3747182,2.5000054)"
       style="fill:#000000;fill-opacity:1;fill-rule:nonzero;stroke:none"
       id="g4196">
      <g
         style="fill:#000000;fill-opacity:1"
         id="g4198">
        <path
           d="M 86.068,0 C 61.466,0 56.851,35.041 70.691,35.041 84.529,35.041 110.671,0 86.068,0 z"
           style="fill:#000000;fill-opacity:1"
           id="path4200"
           inkscape:connector-curvature="0" />
        <path
           d="M 45.217,30.699 C 52.586,31.149 60.671,2.577 46.821,4.374 32.976,6.171 37.845,30.249 45.217,30.699 z"
           style="fill:#000000;fill-opacity:1"
           id="path4202"
           inkscape:connector-curvature="0" />
        <path
           d="M 11.445,48.453 C 16.686,46.146 12.12,23.581 3.208,29.735 -5.7,35.89 6.204,50.759 11.445,48.453 z"
           style="fill:#000000;fill-opacity:1"
           id="path4204"
           inkscape:connector-curvature="0" />
        <path
           d="M 26.212,36.642 C 32.451,35.37 32.793,9.778 21.667,14.369 10.539,18.961 19.978,37.916 26.212,36.642 l 0,0 z"
           style="fill:#000000;fill-opacity:1"
           id="path4206"
           inkscape:connector-curvature="0" />
      </g>
    </g>
  </g>
  <g
     id="g4144"
     transform="translate(0,-0.99999655)">
    <g
       id="Debian"
       style="fill:url(#linearGradient4242);fill-opacity:1"
       transform="matrix(0.02745991,0,0,-0.02745991,-62.763647,137.19962)">
      <g
         style="fill:url(#linearGradient4240);fill-opacity:1"
         id="GROUP_BEGIN_2">
        <path
           inkscape:connector-curvature="0"
           style="fill:url(#linearGradient4216);fill-opacity:1"
           id="PATH_1"
           d="m 3255.5,3850.9 c -18,-0.2 3.4,-9.3 26.8,-12.9 6.5,5.1 12.4,10.2 17.6,15.2 -14.6,-3.6 -29.5,-3.7 -44.4,-2.3" />
        <path
           inkscape:connector-curvature="0"
           style="fill:url(#linearGradient4218);fill-opacity:1"
           id="PATH_2"
           d="m 3351.9,3874.9 c 10.7,14.8 18.5,31 21.3,47.7 -2.4,-11.9 -8.9,-22.2 -15,-33.1 -33.6,-21.1 -3.2,12.6 0,25.4 -36.1,-45.5 -5,-27.3 -6.3,-40" />
        <path
           inkscape:connector-curvature="0"
           style="fill:url(#linearGradient4220);fill-opacity:1"
           id="PATH_3"
           d="m 3387.5,3967.6 c 2.2,32.3 -6.4,22.1 -9.2,9.8 3.3,-1.8 6,-22.8 9.2,-9.8" />
        <path
           inkscape:connector-curvature="0"
           style="fill:url(#linearGradient4222);fill-opacity:1"
           id="PATH_4"
           d="m 3187.3,4409.9 c 9.6,-1.7 20.8,-3.1 19.2,-5.3 10.5,2.3 12.8,4.4 -19.2,5.3" />
        <path
           inkscape:connector-curvature="0"
           style="fill:url(#linearGradient4224);fill-opacity:1"
           id="PATH_5"
           d="m 3206.5,4404.6 -6.8,-1.5 6.3,0.6 0.5,0.9" />
        <path
           inkscape:connector-curvature="0"
           style="fill:url(#linearGradient4226);fill-opacity:1"
           id="PATH_6"
           d="m 3505.5,3955.3 c 1.1,-29.1 -8.5,-43.1 -17.1,-68.1 l -15.5,-7.8 c -12.7,-24.6 1.2,-15.6 -7.9,-35.3 -19.8,-17.6 -60.2,-55.2 -73.1,-58.6 -9.5,0.2 6.4,11.1 8.4,15.4 -26.5,-18.2 -21.3,-27.4 -61.9,-38.5 l -1.2,2.7 c -100.2,-47.2 -239.3,46.2 -237.5,173.7 -1.1,-8.1 -3,-6.1 -5.3,-9.4 -5.1,65.6 30.3,131.5 90.1,158.4 58.5,28.9 127,17 168.9,-22 -23,30.1 -68.8,62.1 -123.1,59.1 -53.1,-0.8 -102.9,-34.6 -119.5,-71.3 -27.2,-17.2 -30.4,-66.1 -42.2,-75.1 -16,-117.3 30,-168.1 107.8,-227.7 12.3,-8.3 3.5,-9.5 5.1,-15.8 -25.8,12.1 -49.5,30.4 -69,52.8 10.4,-15.1 21.5,-29.9 35.9,-41.4 -24.4,8.3 -56.9,59.1 -66.4,61.2 42,-75.3 170.5,-132 237.8,-103.9 -31.2,-1.1 -70.7,-0.6 -105.7,12.3 -14.7,7.6 -34.7,23.2 -31.1,26.2 91.8,-34.3 186.7,-26 266.1,37.7 20.2,15.7 42.3,42.5 48.7,42.9 -9.6,-14.5 1.6,-7 -5.7,-19.7 20.1,32.5 -8.8,13.2 20.8,56.1 l 10.9,-15.1 c -4.1,27 33.5,59.7 29.6,102.4 8.7,13 9.7,-14.1 0.5,-44.1 12.7,33.3 3.4,38.7 6.6,66.1 3.5,-9.2 8.2,-19 10.5,-28.7 -8.2,32.1 8.5,54.1 12.7,72.8 -4.1,1.8 -12.8,-14.2 -14.8,23.8 0.3,16.5 4.6,8.6 6.3,12.7 -3.3,1.8 -11.8,14.5 -16.9,38.7 3.7,5.8 10,-14.7 15.1,-15.6 -3.3,19.3 -9,34 -9.2,48.8 -14.9,31.2 -5.3,-4.1 -17.4,13.4 -15.8,49.5 13.2,11.5 15.2,34 24,-34.9 37.7,-88.8 44,-111.2 -4.8,27.2 -12.5,53.7 -22,79.2 7.3,-3.1 -11.8,56.1 9.5,16.9 -22.7,83.5 -97.2,161.6 -165.7,198.2 8.4,-7.7 19,-17.3 15.2,-18.8 -34.1,20.3 -28.1,21.9 -33,30.4 -27.7,11.3 -29.5,-0.9 -47.9,0 -52.3,27.7 -62.4,24.8 -110.5,42.2 l 2.2,-10.3 c -34.7,11.6 -40.4,-4.3 -77.9,0 -2.2,1.8 12,6.4 23.8,8.1 -33.5,-4.4 -31.9,6.7 -64.7,-1.2 8.1,5.7 16.6,9.5 25.2,14.3 -27.3,-1.7 -65.2,-15.9 -53.5,-3 -44.5,-19.9 -123.7,-47.8 -168.1,-89.4 l -1.4,9.3 c -20.4,-24.4 -88.7,-72.9 -94.2,-104.6 l -5.4,-1.3 c -10.6,-17.9 -17.5,-38.2 -25.9,-56.6 -13.8,-23.7 -20.3,-9.1 -18.3,-12.8 -27.2,-55.3 -40.8,-101.7 -52.5,-139.7 8.4,-12.5 0.2,-75 3.4,-125 -13.7,-247 173.4,-486.9 377.8,-542.3 30,-10.7 74.6,-10.3 112.5,-11.4 -44.8,12.8 -50.5,6.8 -94.1,22 -31.4,14.8 -38.3,31.7 -60.6,51 l 8.8,-15.6 c -43.6,15.5 -25.4,19.2 -60.9,30.4 l 9.4,12.3 c -14.1,1.1 -37.4,23.8 -43.8,36.5 l -15.5,-0.7 c -18.6,23 -28.5,39.5 -27.8,52.4 l -5,-8.9 c -5.7,9.7 -68.4,86 -35.9,68.3 -6,5.5 -14,9 -22.8,24.8 l 6.7,7.6 c -15.7,20.1 -28.9,46 -27.9,54.6 8.4,-11.3 14.2,-13.4 19.9,-15.3 -39.5,98.1 -41.8,5.4 -71.7,99.9 l 6.3,0.5 c -4.9,7.3 -7.8,15.3 -11.7,23.1 l 2.7,27.5 c -28.4,32.9 -7.9,140 -3.8,198.7 2.9,23.9 23.8,49.3 39.7,89.2 l -9.7,1.7 c 18.5,32.3 105.9,129.9 146.3,124.9 19.6,24.6 -3.9,0.1 -7.7,6.3 43,44.5 56.5,31.4 85.6,39.4 31.3,18.6 -26.9,-7.2 -12,7.1 54.1,13.8 38.3,31.5 109,38.5 7.4,-4.3 -17.3,-6.6 -23.5,-12.1 45.1,22.1 142.7,17.1 206.1,-12.2 73.6,-34.4 156.3,-136.1 159.5,-231.7 l 3.8,-1 c -1.9,-38 5.8,-82 -7.6,-122.4 l 9.1,19.1" />
        <path
           inkscape:connector-curvature="0"
           style="fill:url(#linearGradient4228);fill-opacity:1"
           id="PATH_7"
           d="m 3059.3,3826.2 -2.5,-12.6 c 11.8,-16 21.2,-33.4 36.3,-45.9 -10.9,21.1 -18.9,29.9 -33.8,58.5" />
        <path
           inkscape:connector-curvature="0"
           style="fill:url(#linearGradient4230);fill-opacity:1"
           id="PATH_8"
           d="m 3087.2,3827.3 c -6.2,6.9 -9.9,15.3 -14,23.5 3.9,-14.5 12,-27 19.6,-39.8 l -5.6,16.3" />
        <path
           inkscape:connector-curvature="0"
           style="fill:url(#linearGradient4232);fill-opacity:1"
           id="PATH_9"
           d="m 3581.3,3934.7 -2.6,-6.6 c -4.9,-34.4 -15.3,-68.4 -31.4,-99.9 17.7,33.2 29.2,69.6 34,106.5" />
        <path
           inkscape:connector-curvature="0"
           style="fill:url(#linearGradient4234);fill-opacity:1"
           id="PATH_10"
           d="m 3190.9,4418.5 c 12.1,4.4 29.8,2.4 42.7,5.4 -16.8,-1.4 -33.5,-2.3 -50,-4.4 l 7.3,-1" />
        <path
           inkscape:connector-curvature="0"
           style="fill:url(#linearGradient4236);fill-opacity:1"
           id="PATH_11"
           d="m 2764.3,4191.7 c 2.8,-25.9 -19.5,-36 5,-18.9 13.1,29.5 -5.2,8.1 -5,18.9" />
        <path
           inkscape:connector-curvature="0"
           style="fill:url(#linearGradient4238);fill-opacity:1"
           id="PATH_12"
           d="m 2735.6,4071.7 c 5.6,17.3 6.6,27.7 8.8,37.7 -15.6,-19.9 -7.2,-24.2 -8.8,-37.7" />
      </g>
    </g>
    <g
       id="g3771"
       style="fill:url(#linearGradient4254);fill-opacity:1;fill-rule:nonzero;stroke:none"
       transform="matrix(0.34560437,0,0,0.34560437,7.3747182,2.5000054)">
      <g
         id="g3773"
         style="fill:url(#linearGradient4252);fill-opacity:1">
        <path
           inkscape:connector-curvature="0"
           id="path3775"
           style="fill:url(#linearGradient4244);fill-opacity:1"
           d="M 86.068,0 C 61.466,0 56.851,35.041 70.691,35.041 84.529,35.041 110.671,0 86.068,0 z" />
        <path
           inkscape:connector-curvature="0"
           id="path3777"
           style="fill:url(#linearGradient4246);fill-opacity:1"
           d="M 45.217,30.699 C 52.586,31.149 60.671,2.577 46.821,4.374 32.976,6.171 37.845,30.249 45.217,30.699 z" />
        <path
           inkscape:connector-curvature="0"
           id="path3779"
           style="fill:url(#linearGradient4248);fill-opacity:1"
           d="M 11.445,48.453 C 16.686,46.146 12.12,23.581 3.208,29.735 -5.7,35.89 6.204,50.759 11.445,48.453 z" />
        <path
           inkscape:connector-curvature="0"
           id="path3781"
           style="fill:url(#linearGradient4250);fill-opacity:1"
           d="M 26.212,36.642 C 32.451,35.37 32.793,9.778 21.667,14.369 10.539,18.961 19.978,37.916 26.212,36.642 l 0,0 z" />
      </g>
    </g>
  </g>
</svg>
